%TF.GenerationSoftware,KiCad,Pcbnew,(6.0.4)*%
%TF.CreationDate,2022-08-04T20:18:12-07:00*%
%TF.ProjectId,l0ckcr4ck3r,6c30636b-6372-4346-936b-33722e6b6963,rev?*%
%TF.SameCoordinates,Original*%
%TF.FileFunction,Legend,Top*%
%TF.FilePolarity,Positive*%
%FSLAX46Y46*%
G04 Gerber Fmt 4.6, Leading zero omitted, Abs format (unit mm)*
G04 Created by KiCad (PCBNEW (6.0.4)) date 2022-08-04 20:18:12*
%MOMM*%
%LPD*%
G01*
G04 APERTURE LIST*
%ADD10C,0.150000*%
%ADD11C,0.500000*%
%ADD12C,0.350000*%
%ADD13C,0.127000*%
%ADD14C,0.200000*%
%ADD15C,0.120000*%
%ADD16C,0.010000*%
G04 APERTURE END LIST*
D10*
X167015023Y-49509512D02*
X164475023Y-49509512D01*
X167075601Y-52158660D02*
X167075601Y-54658660D01*
X167015023Y-46979512D02*
X167015023Y-49509512D01*
X167075601Y-54658660D02*
X164535601Y-54658660D01*
X167015023Y-46979512D02*
X164560023Y-46979512D01*
X164620601Y-52158660D02*
X167075601Y-52158660D01*
D11*
X137413809Y-41640000D02*
X137604285Y-41735238D01*
X137890000Y-41735238D01*
X138175714Y-41640000D01*
X138366190Y-41449523D01*
X138461428Y-41259047D01*
X138556666Y-40878095D01*
X138556666Y-40592380D01*
X138461428Y-40211428D01*
X138366190Y-40020952D01*
X138175714Y-39830476D01*
X137890000Y-39735238D01*
X137699523Y-39735238D01*
X137413809Y-39830476D01*
X137318571Y-39925714D01*
X137318571Y-40592380D01*
X137699523Y-40592380D01*
X136461428Y-39735238D02*
X136461428Y-41735238D01*
X135318571Y-39735238D01*
X135318571Y-41735238D01*
X134366190Y-39735238D02*
X134366190Y-41735238D01*
X133890000Y-41735238D01*
X133604285Y-41640000D01*
X133413809Y-41449523D01*
X133318571Y-41259047D01*
X133223333Y-40878095D01*
X133223333Y-40592380D01*
X133318571Y-40211428D01*
X133413809Y-40020952D01*
X133604285Y-39830476D01*
X133890000Y-39735238D01*
X134366190Y-39735238D01*
X166179047Y-98155238D02*
X166179047Y-100155238D01*
X165036190Y-98155238D02*
X165893333Y-99298095D01*
X165036190Y-100155238D02*
X166179047Y-99012380D01*
X164179047Y-98155238D02*
X164179047Y-100155238D01*
X163036190Y-98155238D01*
X163036190Y-100155238D01*
X161702857Y-100155238D02*
X161321904Y-100155238D01*
X161131428Y-100060000D01*
X160940952Y-99869523D01*
X160845714Y-99488571D01*
X160845714Y-98821904D01*
X160940952Y-98440952D01*
X161131428Y-98250476D01*
X161321904Y-98155238D01*
X161702857Y-98155238D01*
X161893333Y-98250476D01*
X162083809Y-98440952D01*
X162179047Y-98821904D01*
X162179047Y-99488571D01*
X162083809Y-99869523D01*
X161893333Y-100060000D01*
X161702857Y-100155238D01*
X159321904Y-99202857D02*
X159036190Y-99107619D01*
X158940952Y-99012380D01*
X158845714Y-98821904D01*
X158845714Y-98536190D01*
X158940952Y-98345714D01*
X159036190Y-98250476D01*
X159226666Y-98155238D01*
X159988571Y-98155238D01*
X159988571Y-100155238D01*
X159321904Y-100155238D01*
X159131428Y-100060000D01*
X159036190Y-99964761D01*
X158940952Y-99774285D01*
X158940952Y-99583809D01*
X159036190Y-99393333D01*
X159131428Y-99298095D01*
X159321904Y-99202857D01*
X159988571Y-99202857D01*
D12*
X133238571Y-64162857D02*
X133024285Y-64091428D01*
X132667142Y-64091428D01*
X132524285Y-64162857D01*
X132452857Y-64234285D01*
X132381428Y-64377142D01*
X132381428Y-64520000D01*
X132452857Y-64662857D01*
X132524285Y-64734285D01*
X132667142Y-64805714D01*
X132952857Y-64877142D01*
X133095714Y-64948571D01*
X133167142Y-65020000D01*
X133238571Y-65162857D01*
X133238571Y-65305714D01*
X133167142Y-65448571D01*
X133095714Y-65520000D01*
X132952857Y-65591428D01*
X132595714Y-65591428D01*
X132381428Y-65520000D01*
X131952857Y-65591428D02*
X131095714Y-65591428D01*
X131524285Y-64091428D02*
X131524285Y-65591428D01*
X130595714Y-64877142D02*
X130095714Y-64877142D01*
X129881428Y-64091428D02*
X130595714Y-64091428D01*
X130595714Y-65591428D01*
X129881428Y-65591428D01*
X129238571Y-64091428D02*
X129238571Y-65591428D01*
X128667142Y-65591428D01*
X128524285Y-65520000D01*
X128452857Y-65448571D01*
X128381428Y-65305714D01*
X128381428Y-65091428D01*
X128452857Y-64948571D01*
X128524285Y-64877142D01*
X128667142Y-64805714D01*
X129238571Y-64805714D01*
D11*
X159099047Y-49672857D02*
X159765714Y-49672857D01*
X159765714Y-48625238D02*
X159765714Y-50625238D01*
X158813333Y-50625238D01*
X158146666Y-49196666D02*
X157194285Y-49196666D01*
X158337142Y-48625238D02*
X157670476Y-50625238D01*
X157003809Y-48625238D01*
X156337142Y-48625238D02*
X156337142Y-50625238D01*
X155194285Y-48625238D01*
X155194285Y-50625238D01*
D12*
X147407142Y-47811428D02*
X146907142Y-46311428D01*
X146407142Y-47811428D01*
X145907142Y-46311428D02*
X145907142Y-47811428D01*
X145407142Y-46740000D01*
X144907142Y-47811428D01*
X144907142Y-46311428D01*
D11*
X165464761Y-107775238D02*
X165083809Y-107775238D01*
X164893333Y-107680000D01*
X164702857Y-107489523D01*
X164607619Y-107108571D01*
X164607619Y-106441904D01*
X164702857Y-106060952D01*
X164893333Y-105870476D01*
X165083809Y-105775238D01*
X165464761Y-105775238D01*
X165655238Y-105870476D01*
X165845714Y-106060952D01*
X165940952Y-106441904D01*
X165940952Y-107108571D01*
X165845714Y-107489523D01*
X165655238Y-107680000D01*
X165464761Y-107775238D01*
X162798095Y-105775238D02*
X163750476Y-105775238D01*
X163750476Y-107775238D01*
X162131428Y-106822857D02*
X161464761Y-106822857D01*
X161179047Y-105775238D02*
X162131428Y-105775238D01*
X162131428Y-107775238D01*
X161179047Y-107775238D01*
X160321904Y-105775238D02*
X160321904Y-107775238D01*
X159845714Y-107775238D01*
X159560000Y-107680000D01*
X159369523Y-107489523D01*
X159274285Y-107299047D01*
X159179047Y-106918095D01*
X159179047Y-106632380D01*
X159274285Y-106251428D01*
X159369523Y-106060952D01*
X159560000Y-105870476D01*
X159845714Y-105775238D01*
X160321904Y-105775238D01*
X167798095Y-113966666D02*
X166845714Y-113966666D01*
X167988571Y-113395238D02*
X167321904Y-115395238D01*
X166655238Y-113395238D01*
X166083809Y-113490476D02*
X165798095Y-113395238D01*
X165321904Y-113395238D01*
X165131428Y-113490476D01*
X165036190Y-113585714D01*
X164940952Y-113776190D01*
X164940952Y-113966666D01*
X165036190Y-114157142D01*
X165131428Y-114252380D01*
X165321904Y-114347619D01*
X165702857Y-114442857D01*
X165893333Y-114538095D01*
X165988571Y-114633333D01*
X166083809Y-114823809D01*
X166083809Y-115014285D01*
X165988571Y-115204761D01*
X165893333Y-115300000D01*
X165702857Y-115395238D01*
X165226666Y-115395238D01*
X164940952Y-115300000D01*
X163131428Y-115395238D02*
X164083809Y-115395238D01*
X164179047Y-114442857D01*
X164083809Y-114538095D01*
X163893333Y-114633333D01*
X163417142Y-114633333D01*
X163226666Y-114538095D01*
X163131428Y-114442857D01*
X163036190Y-114252380D01*
X163036190Y-113776190D01*
X163131428Y-113585714D01*
X163226666Y-113490476D01*
X163417142Y-113395238D01*
X163893333Y-113395238D01*
X164083809Y-113490476D01*
X164179047Y-113585714D01*
X161321904Y-115395238D02*
X161702857Y-115395238D01*
X161893333Y-115300000D01*
X161988571Y-115204761D01*
X162179047Y-114919047D01*
X162274285Y-114538095D01*
X162274285Y-113776190D01*
X162179047Y-113585714D01*
X162083809Y-113490476D01*
X161893333Y-113395238D01*
X161512380Y-113395238D01*
X161321904Y-113490476D01*
X161226666Y-113585714D01*
X161131428Y-113776190D01*
X161131428Y-114252380D01*
X161226666Y-114442857D01*
X161321904Y-114538095D01*
X161512380Y-114633333D01*
X161893333Y-114633333D01*
X162083809Y-114538095D01*
X162179047Y-114442857D01*
X162274285Y-114252380D01*
X159893333Y-115395238D02*
X159702857Y-115395238D01*
X159512380Y-115300000D01*
X159417142Y-115204761D01*
X159321904Y-115014285D01*
X159226666Y-114633333D01*
X159226666Y-114157142D01*
X159321904Y-113776190D01*
X159417142Y-113585714D01*
X159512380Y-113490476D01*
X159702857Y-113395238D01*
X159893333Y-113395238D01*
X160083809Y-113490476D01*
X160179047Y-113585714D01*
X160274285Y-113776190D01*
X160369523Y-114157142D01*
X160369523Y-114633333D01*
X160274285Y-115014285D01*
X160179047Y-115204761D01*
X160083809Y-115300000D01*
X159893333Y-115395238D01*
X157988571Y-115395238D02*
X157798095Y-115395238D01*
X157607619Y-115300000D01*
X157512380Y-115204761D01*
X157417142Y-115014285D01*
X157321904Y-114633333D01*
X157321904Y-114157142D01*
X157417142Y-113776190D01*
X157512380Y-113585714D01*
X157607619Y-113490476D01*
X157798095Y-113395238D01*
X157988571Y-113395238D01*
X158179047Y-113490476D01*
X158274285Y-113585714D01*
X158369523Y-113776190D01*
X158464761Y-114157142D01*
X158464761Y-114633333D01*
X158369523Y-115014285D01*
X158274285Y-115204761D01*
X158179047Y-115300000D01*
X157988571Y-115395238D01*
X165972857Y-75295238D02*
X167115714Y-75295238D01*
X166544285Y-75295238D02*
X166544285Y-77295238D01*
X166734761Y-77009523D01*
X166925238Y-76819047D01*
X167115714Y-76723809D01*
X164734761Y-77295238D02*
X164544285Y-77295238D01*
X164353809Y-77200000D01*
X164258571Y-77104761D01*
X164163333Y-76914285D01*
X164068095Y-76533333D01*
X164068095Y-76057142D01*
X164163333Y-75676190D01*
X164258571Y-75485714D01*
X164353809Y-75390476D01*
X164544285Y-75295238D01*
X164734761Y-75295238D01*
X164925238Y-75390476D01*
X165020476Y-75485714D01*
X165115714Y-75676190D01*
X165210952Y-76057142D01*
X165210952Y-76533333D01*
X165115714Y-76914285D01*
X165020476Y-77104761D01*
X164925238Y-77200000D01*
X164734761Y-77295238D01*
X162353809Y-76628571D02*
X162353809Y-75295238D01*
X163210952Y-76628571D02*
X163210952Y-75580952D01*
X163115714Y-75390476D01*
X162925238Y-75295238D01*
X162639523Y-75295238D01*
X162449047Y-75390476D01*
X162353809Y-75485714D01*
X160734761Y-76342857D02*
X161401428Y-76342857D01*
X161401428Y-75295238D02*
X161401428Y-77295238D01*
X160449047Y-77295238D01*
D12*
X156173956Y-88617236D02*
X155459671Y-88617236D01*
X156316814Y-88188664D02*
X155816814Y-89688664D01*
X155316814Y-88188664D01*
D11*
X158289523Y-75453333D02*
X158384761Y-75167619D01*
X158384761Y-74691428D01*
X158289523Y-74500952D01*
X158194285Y-74405714D01*
X158003809Y-74310476D01*
X157813333Y-74310476D01*
X157622857Y-74405714D01*
X157527619Y-74500952D01*
X157432380Y-74691428D01*
X157337142Y-75072380D01*
X157241904Y-75262857D01*
X157146666Y-75358095D01*
X156956190Y-75453333D01*
X156765714Y-75453333D01*
X156575238Y-75358095D01*
X156480000Y-75262857D01*
X156384761Y-75072380D01*
X156384761Y-74596190D01*
X156480000Y-74310476D01*
X158384761Y-73453333D02*
X156384761Y-73453333D01*
X156384761Y-72691428D01*
X156480000Y-72500952D01*
X156575238Y-72405714D01*
X156765714Y-72310476D01*
X157051428Y-72310476D01*
X157241904Y-72405714D01*
X157337142Y-72500952D01*
X157432380Y-72691428D01*
X157432380Y-73453333D01*
X157813333Y-71548571D02*
X157813333Y-70596190D01*
X158384761Y-71739047D02*
X156384761Y-71072380D01*
X158384761Y-70405714D01*
X158384761Y-68596190D02*
X157432380Y-69262857D01*
X158384761Y-69739047D02*
X156384761Y-69739047D01*
X156384761Y-68977142D01*
X156480000Y-68786666D01*
X156575238Y-68691428D01*
X156765714Y-68596190D01*
X157051428Y-68596190D01*
X157241904Y-68691428D01*
X157337142Y-68786666D01*
X157432380Y-68977142D01*
X157432380Y-69739047D01*
X157337142Y-67739047D02*
X157337142Y-67072380D01*
X158384761Y-66786666D02*
X158384761Y-67739047D01*
X156384761Y-67739047D01*
X156384761Y-66786666D01*
X130984761Y-62403809D02*
X130984761Y-61260952D01*
X132984761Y-61832380D02*
X130984761Y-61832380D01*
X132984761Y-60594285D02*
X130984761Y-60594285D01*
X132413333Y-59927619D01*
X130984761Y-59260952D01*
X132984761Y-59260952D01*
X132794285Y-57165714D02*
X132889523Y-57260952D01*
X132984761Y-57546666D01*
X132984761Y-57737142D01*
X132889523Y-58022857D01*
X132699047Y-58213333D01*
X132508571Y-58308571D01*
X132127619Y-58403809D01*
X131841904Y-58403809D01*
X131460952Y-58308571D01*
X131270476Y-58213333D01*
X131080000Y-58022857D01*
X130984761Y-57737142D01*
X130984761Y-57546666D01*
X131080000Y-57260952D01*
X131175238Y-57165714D01*
X131175238Y-56403809D02*
X131080000Y-56308571D01*
X130984761Y-56118095D01*
X130984761Y-55641904D01*
X131080000Y-55451428D01*
X131175238Y-55356190D01*
X131365714Y-55260952D01*
X131556190Y-55260952D01*
X131841904Y-55356190D01*
X132984761Y-56499047D01*
X132984761Y-55260952D01*
X131175238Y-54499047D02*
X131080000Y-54403809D01*
X130984761Y-54213333D01*
X130984761Y-53737142D01*
X131080000Y-53546666D01*
X131175238Y-53451428D01*
X131365714Y-53356190D01*
X131556190Y-53356190D01*
X131841904Y-53451428D01*
X132984761Y-54594285D01*
X132984761Y-53356190D01*
X130984761Y-52118095D02*
X130984761Y-51927619D01*
X131080000Y-51737142D01*
X131175238Y-51641904D01*
X131365714Y-51546666D01*
X131746666Y-51451428D01*
X132222857Y-51451428D01*
X132603809Y-51546666D01*
X132794285Y-51641904D01*
X132889523Y-51737142D01*
X132984761Y-51927619D01*
X132984761Y-52118095D01*
X132889523Y-52308571D01*
X132794285Y-52403809D01*
X132603809Y-52499047D01*
X132222857Y-52594285D01*
X131746666Y-52594285D01*
X131365714Y-52499047D01*
X131175238Y-52403809D01*
X131080000Y-52308571D01*
X130984761Y-52118095D01*
X131841904Y-50308571D02*
X131746666Y-50499047D01*
X131651428Y-50594285D01*
X131460952Y-50689523D01*
X131365714Y-50689523D01*
X131175238Y-50594285D01*
X131080000Y-50499047D01*
X130984761Y-50308571D01*
X130984761Y-49927619D01*
X131080000Y-49737142D01*
X131175238Y-49641904D01*
X131365714Y-49546666D01*
X131460952Y-49546666D01*
X131651428Y-49641904D01*
X131746666Y-49737142D01*
X131841904Y-49927619D01*
X131841904Y-50308571D01*
X131937142Y-50499047D01*
X132032380Y-50594285D01*
X132222857Y-50689523D01*
X132603809Y-50689523D01*
X132794285Y-50594285D01*
X132889523Y-50499047D01*
X132984761Y-50308571D01*
X132984761Y-49927619D01*
X132889523Y-49737142D01*
X132794285Y-49641904D01*
X132603809Y-49546666D01*
X132222857Y-49546666D01*
X132032380Y-49641904D01*
X131937142Y-49737142D01*
X131841904Y-49927619D01*
X168210952Y-90630476D02*
X167925238Y-90535238D01*
X167449047Y-90535238D01*
X167258571Y-90630476D01*
X167163333Y-90725714D01*
X167068095Y-90916190D01*
X167068095Y-91106666D01*
X167163333Y-91297142D01*
X167258571Y-91392380D01*
X167449047Y-91487619D01*
X167830000Y-91582857D01*
X168020476Y-91678095D01*
X168115714Y-91773333D01*
X168210952Y-91963809D01*
X168210952Y-92154285D01*
X168115714Y-92344761D01*
X168020476Y-92440000D01*
X167830000Y-92535238D01*
X167353809Y-92535238D01*
X167068095Y-92440000D01*
X166210952Y-91582857D02*
X165544285Y-91582857D01*
X165258571Y-90535238D02*
X166210952Y-90535238D01*
X166210952Y-92535238D01*
X165258571Y-92535238D01*
X163258571Y-90535238D02*
X163925238Y-91487619D01*
X164401428Y-90535238D02*
X164401428Y-92535238D01*
X163639523Y-92535238D01*
X163449047Y-92440000D01*
X163353809Y-92344761D01*
X163258571Y-92154285D01*
X163258571Y-91868571D01*
X163353809Y-91678095D01*
X163449047Y-91582857D01*
X163639523Y-91487619D01*
X164401428Y-91487619D01*
X162687142Y-92535238D02*
X162020476Y-90535238D01*
X161353809Y-92535238D01*
X160306190Y-92535238D02*
X159925238Y-92535238D01*
X159734761Y-92440000D01*
X159544285Y-92249523D01*
X159449047Y-91868571D01*
X159449047Y-91201904D01*
X159544285Y-90820952D01*
X159734761Y-90630476D01*
X159925238Y-90535238D01*
X160306190Y-90535238D01*
X160496666Y-90630476D01*
X160687142Y-90820952D01*
X160782380Y-91201904D01*
X160782380Y-91868571D01*
X160687142Y-92249523D01*
X160496666Y-92440000D01*
X160306190Y-92535238D01*
D12*
X169601419Y-88991715D02*
X168458562Y-88991715D01*
D11*
X168702857Y-57610476D02*
X168417142Y-57515238D01*
X167940952Y-57515238D01*
X167750476Y-57610476D01*
X167655238Y-57705714D01*
X167560000Y-57896190D01*
X167560000Y-58086666D01*
X167655238Y-58277142D01*
X167750476Y-58372380D01*
X167940952Y-58467619D01*
X168321904Y-58562857D01*
X168512380Y-58658095D01*
X168607619Y-58753333D01*
X168702857Y-58943809D01*
X168702857Y-59134285D01*
X168607619Y-59324761D01*
X168512380Y-59420000D01*
X168321904Y-59515238D01*
X167845714Y-59515238D01*
X167560000Y-59420000D01*
X166988571Y-59515238D02*
X165845714Y-59515238D01*
X166417142Y-57515238D02*
X166417142Y-59515238D01*
X165179047Y-58562857D02*
X164512380Y-58562857D01*
X164226666Y-57515238D02*
X165179047Y-57515238D01*
X165179047Y-59515238D01*
X164226666Y-59515238D01*
X163369523Y-57515238D02*
X163369523Y-59515238D01*
X162607619Y-59515238D01*
X162417142Y-59420000D01*
X162321904Y-59324761D01*
X162226666Y-59134285D01*
X162226666Y-58848571D01*
X162321904Y-58658095D01*
X162417142Y-58562857D01*
X162607619Y-58467619D01*
X163369523Y-58467619D01*
X161369523Y-57515238D02*
X161369523Y-59515238D01*
X160607619Y-59515238D01*
X160417142Y-59420000D01*
X160321904Y-59324761D01*
X160226666Y-59134285D01*
X160226666Y-58848571D01*
X160321904Y-58658095D01*
X160417142Y-58562857D01*
X160607619Y-58467619D01*
X161369523Y-58467619D01*
X159369523Y-58562857D02*
X158702857Y-58562857D01*
X158417142Y-57515238D02*
X159369523Y-57515238D01*
X159369523Y-59515238D01*
X158417142Y-59515238D01*
X156417142Y-57515238D02*
X157083809Y-58467619D01*
X157560000Y-57515238D02*
X157560000Y-59515238D01*
X156798095Y-59515238D01*
X156607619Y-59420000D01*
X156512380Y-59324761D01*
X156417142Y-59134285D01*
X156417142Y-58848571D01*
X156512380Y-58658095D01*
X156607619Y-58562857D01*
X156798095Y-58467619D01*
X157560000Y-58467619D01*
D12*
X165538390Y-83356957D02*
X165538390Y-84856957D01*
X165181247Y-84856957D01*
X164966962Y-84785529D01*
X164824105Y-84642671D01*
X164752676Y-84499814D01*
X164681247Y-84214100D01*
X164681247Y-83999814D01*
X164752676Y-83714100D01*
X164824105Y-83571243D01*
X164966962Y-83428386D01*
X165181247Y-83356957D01*
X165538390Y-83356957D01*
X164038390Y-83356957D02*
X164038390Y-84856957D01*
X163038390Y-84856957D02*
X162752676Y-84856957D01*
X162609819Y-84785529D01*
X162466962Y-84642671D01*
X162395533Y-84356957D01*
X162395533Y-83856957D01*
X162466962Y-83571243D01*
X162609819Y-83428386D01*
X162752676Y-83356957D01*
X163038390Y-83356957D01*
X163181247Y-83428386D01*
X163324105Y-83571243D01*
X163395533Y-83856957D01*
X163395533Y-84356957D01*
X163324105Y-84642671D01*
X163181247Y-84785529D01*
X163038390Y-84856957D01*
X161752676Y-83356957D02*
X161752676Y-84856957D01*
X161395533Y-84856957D01*
X161181247Y-84785529D01*
X161038390Y-84642671D01*
X160966962Y-84499814D01*
X160895533Y-84214100D01*
X160895533Y-83999814D01*
X160966962Y-83714100D01*
X161038390Y-83571243D01*
X161181247Y-83428386D01*
X161395533Y-83356957D01*
X161752676Y-83356957D01*
X160252676Y-84142671D02*
X159752676Y-84142671D01*
X159538390Y-83356957D02*
X160252676Y-83356957D01*
X160252676Y-84856957D01*
X159538390Y-84856957D01*
X160591428Y-43072857D02*
X159448571Y-43072857D01*
X160020000Y-42501428D02*
X160020000Y-43644285D01*
D11*
X131714761Y-94963809D02*
X129714761Y-94963809D01*
X131714761Y-93820952D01*
X129714761Y-93820952D01*
X131143333Y-92963809D02*
X131143333Y-92011428D01*
X131714761Y-93154285D02*
X129714761Y-92487619D01*
X131714761Y-91820952D01*
X131714761Y-91154285D02*
X129714761Y-91154285D01*
X131714761Y-90011428D01*
X129714761Y-90011428D01*
X129714761Y-88678095D02*
X129714761Y-88297142D01*
X129810000Y-88106666D01*
X130000476Y-87916190D01*
X130381428Y-87820952D01*
X131048095Y-87820952D01*
X131429047Y-87916190D01*
X131619523Y-88106666D01*
X131714761Y-88297142D01*
X131714761Y-88678095D01*
X131619523Y-88868571D01*
X131429047Y-89059047D01*
X131048095Y-89154285D01*
X130381428Y-89154285D01*
X130000476Y-89059047D01*
X129810000Y-88868571D01*
X129714761Y-88678095D01*
X176132857Y-75295238D02*
X177275714Y-75295238D01*
X176704285Y-75295238D02*
X176704285Y-77295238D01*
X176894761Y-77009523D01*
X177085238Y-76819047D01*
X177275714Y-76723809D01*
X174894761Y-77295238D02*
X174704285Y-77295238D01*
X174513809Y-77200000D01*
X174418571Y-77104761D01*
X174323333Y-76914285D01*
X174228095Y-76533333D01*
X174228095Y-76057142D01*
X174323333Y-75676190D01*
X174418571Y-75485714D01*
X174513809Y-75390476D01*
X174704285Y-75295238D01*
X174894761Y-75295238D01*
X175085238Y-75390476D01*
X175180476Y-75485714D01*
X175275714Y-75676190D01*
X175370952Y-76057142D01*
X175370952Y-76533333D01*
X175275714Y-76914285D01*
X175180476Y-77104761D01*
X175085238Y-77200000D01*
X174894761Y-77295238D01*
X172513809Y-76628571D02*
X172513809Y-75295238D01*
X173370952Y-76628571D02*
X173370952Y-75580952D01*
X173275714Y-75390476D01*
X173085238Y-75295238D01*
X172799523Y-75295238D01*
X172609047Y-75390476D01*
X172513809Y-75485714D01*
X170894761Y-76342857D02*
X171561428Y-76342857D01*
X171561428Y-75295238D02*
X171561428Y-77295238D01*
X170609047Y-77295238D01*
X152368095Y-39735238D02*
X153510952Y-39735238D01*
X152939523Y-39735238D02*
X152939523Y-41735238D01*
X153130000Y-41449523D01*
X153320476Y-41259047D01*
X153510952Y-41163809D01*
X151606190Y-41544761D02*
X151510952Y-41640000D01*
X151320476Y-41735238D01*
X150844285Y-41735238D01*
X150653809Y-41640000D01*
X150558571Y-41544761D01*
X150463333Y-41354285D01*
X150463333Y-41163809D01*
X150558571Y-40878095D01*
X151701428Y-39735238D01*
X150463333Y-39735238D01*
X149891904Y-41735238D02*
X149225238Y-39735238D01*
X148558571Y-41735238D01*
D13*
%TO.C,U2*%
X149860000Y-66040000D02*
X149860000Y-45720000D01*
X134620000Y-66040000D02*
X149860000Y-66040000D01*
X134620000Y-45720000D02*
X134620000Y-66040000D01*
X149860000Y-45720000D02*
X134620000Y-45720000D01*
D14*
X134130000Y-64770000D02*
G75*
G03*
X134130000Y-64770000I-100000J0D01*
G01*
D15*
%TO.C,M3*%
X162570000Y-90255000D02*
X162570000Y-87595000D01*
X159970000Y-87595000D02*
X161300000Y-87595000D01*
X159970000Y-88925000D02*
X159970000Y-87595000D01*
X162570000Y-90255000D02*
X167710000Y-90255000D01*
X167710000Y-90255000D02*
X167710000Y-87595000D01*
X162570000Y-87595000D02*
X167710000Y-87595000D01*
%TO.C,U6*%
X167710000Y-105470000D02*
X167710000Y-102810000D01*
X160030000Y-105470000D02*
X160030000Y-102810000D01*
X160030000Y-105470000D02*
X167710000Y-105470000D01*
X157430000Y-102810000D02*
X158760000Y-102810000D01*
X160030000Y-102810000D02*
X167710000Y-102810000D01*
X157430000Y-104140000D02*
X157430000Y-102810000D01*
%TO.C,M2*%
X156150000Y-44450000D02*
X158810000Y-44450000D01*
X157480000Y-41850000D02*
X158810000Y-41850000D01*
X158810000Y-41850000D02*
X158810000Y-43180000D01*
X156150000Y-47050000D02*
X158810000Y-47050000D01*
X158810000Y-44450000D02*
X158810000Y-47050000D01*
X156150000Y-44450000D02*
X156150000Y-47050000D01*
%TO.C,U5*%
X160030000Y-113090000D02*
X167710000Y-113090000D01*
X160030000Y-113090000D02*
X160030000Y-110430000D01*
X167710000Y-113090000D02*
X167710000Y-110430000D01*
X157430000Y-111760000D02*
X157430000Y-110430000D01*
X157430000Y-110430000D02*
X158760000Y-110430000D01*
X160030000Y-110430000D02*
X167710000Y-110430000D01*
D13*
%TO.C,U4*%
X172339000Y-65278000D02*
X172593000Y-65024000D01*
X172720000Y-62103000D02*
X172593000Y-65024000D01*
X162687000Y-65024000D02*
X162560000Y-62103000D01*
X172339000Y-65278000D02*
X162941000Y-65278000D01*
X162687000Y-65024000D02*
X162941000Y-65278000D01*
X163398200Y-64668400D02*
G75*
G03*
X163398200Y-64668400I-254000J0D01*
G01*
G36*
X164211000Y-62230000D02*
G01*
X162306000Y-62230000D01*
X162306000Y-61722000D01*
X164211000Y-61722000D01*
X164211000Y-62230000D01*
G37*
D16*
X164211000Y-62230000D02*
X162306000Y-62230000D01*
X162306000Y-61722000D01*
X164211000Y-61722000D01*
X164211000Y-62230000D01*
G36*
X172974000Y-61722000D02*
G01*
X162306000Y-61722000D01*
X162306000Y-60960000D01*
X172974000Y-60960000D01*
X172974000Y-61722000D01*
G37*
X172974000Y-61722000D02*
X162306000Y-61722000D01*
X162306000Y-60960000D01*
X172974000Y-60960000D01*
X172974000Y-61722000D01*
G36*
X166751000Y-62230000D02*
G01*
X165989000Y-62230000D01*
X165989000Y-61722000D01*
X166751000Y-61722000D01*
X166751000Y-62230000D01*
G37*
X166751000Y-62230000D02*
X165989000Y-62230000D01*
X165989000Y-61722000D01*
X166751000Y-61722000D01*
X166751000Y-62230000D01*
G36*
X172974000Y-62230000D02*
G01*
X171069000Y-62230000D01*
X171069000Y-61722000D01*
X172974000Y-61722000D01*
X172974000Y-62230000D01*
G37*
X172974000Y-62230000D02*
X171069000Y-62230000D01*
X171069000Y-61722000D01*
X172974000Y-61722000D01*
X172974000Y-62230000D01*
G36*
X169291000Y-62230000D02*
G01*
X168529000Y-62230000D01*
X168529000Y-61722000D01*
X169291000Y-61722000D01*
X169291000Y-62230000D01*
G37*
X169291000Y-62230000D02*
X168529000Y-62230000D01*
X168529000Y-61722000D01*
X169291000Y-61722000D01*
X169291000Y-62230000D01*
D15*
%TO.C,M1*%
X161255000Y-48270000D02*
X161255000Y-55950000D01*
X163915000Y-45670000D02*
X163915000Y-47000000D01*
X162585000Y-45670000D02*
X163915000Y-45670000D01*
X161255000Y-48270000D02*
X163915000Y-48270000D01*
X163915000Y-48270000D02*
X163915000Y-55950000D01*
X161255000Y-55950000D02*
X163915000Y-55950000D01*
%TO.C,M4*%
X154940000Y-67250000D02*
X156270000Y-67250000D01*
X153610000Y-69850000D02*
X153610000Y-74990000D01*
X153610000Y-74990000D02*
X156270000Y-74990000D01*
X156270000Y-69850000D02*
X156270000Y-74990000D01*
X156270000Y-67250000D02*
X156270000Y-68580000D01*
X153610000Y-69850000D02*
X156270000Y-69850000D01*
%TO.C,C1*%
X164210000Y-72160000D02*
X164210000Y-74326000D01*
X165771000Y-68542000D02*
X165771000Y-70080000D01*
X165851000Y-72160000D02*
X165851000Y-73636000D01*
X166131000Y-68855000D02*
X166131000Y-73385000D01*
X165531000Y-68378000D02*
X165531000Y-70080000D01*
X164731000Y-72160000D02*
X164731000Y-74218000D01*
X165611000Y-68430000D02*
X165611000Y-70080000D01*
X165971000Y-68704000D02*
X165971000Y-70080000D01*
X165731000Y-72160000D02*
X165731000Y-73727000D01*
X166491000Y-69286000D02*
X166491000Y-72954000D01*
X164811000Y-68046000D02*
X164811000Y-70080000D01*
X165931000Y-72160000D02*
X165931000Y-73570000D01*
X164370000Y-67938000D02*
X164370000Y-70080000D01*
X165091000Y-68150000D02*
X165091000Y-70080000D01*
X166051000Y-68777000D02*
X166051000Y-70080000D01*
X165691000Y-68484000D02*
X165691000Y-70080000D01*
X165611000Y-72160000D02*
X165611000Y-73810000D01*
X165651000Y-72160000D02*
X165651000Y-73784000D01*
X165011000Y-72160000D02*
X165011000Y-74122000D01*
X165651000Y-68456000D02*
X165651000Y-70080000D01*
X166291000Y-69028000D02*
X166291000Y-73212000D01*
X165811000Y-72160000D02*
X165811000Y-73668000D01*
X164450000Y-72160000D02*
X164450000Y-74287000D01*
X164330000Y-72160000D02*
X164330000Y-74309000D01*
X165851000Y-68604000D02*
X165851000Y-70080000D01*
X166051000Y-72160000D02*
X166051000Y-73463000D01*
X165291000Y-72160000D02*
X165291000Y-73996000D01*
X164250000Y-72160000D02*
X164250000Y-74321000D01*
X165451000Y-72160000D02*
X165451000Y-73910000D01*
X165691000Y-72160000D02*
X165691000Y-73756000D01*
X165491000Y-72160000D02*
X165491000Y-73886000D01*
X164571000Y-72160000D02*
X164571000Y-74261000D01*
X164691000Y-68010000D02*
X164691000Y-70080000D01*
X164050000Y-72160000D02*
X164050000Y-74342000D01*
X166571000Y-69406000D02*
X166571000Y-72834000D01*
X165251000Y-72160000D02*
X165251000Y-74016000D01*
X165131000Y-72160000D02*
X165131000Y-74072000D01*
X166771000Y-69770000D02*
X166771000Y-72470000D01*
X166411000Y-69176000D02*
X166411000Y-73064000D01*
X164450000Y-67953000D02*
X164450000Y-70080000D01*
X164691000Y-72160000D02*
X164691000Y-74230000D01*
X166971000Y-70318000D02*
X166971000Y-71922000D01*
X165411000Y-72160000D02*
X165411000Y-73932000D01*
X165331000Y-68264000D02*
X165331000Y-70080000D01*
X164170000Y-67909000D02*
X164170000Y-70080000D01*
X165451000Y-68330000D02*
X165451000Y-70080000D01*
X164851000Y-72160000D02*
X164851000Y-74181000D01*
X164611000Y-72160000D02*
X164611000Y-74251000D01*
X165051000Y-68134000D02*
X165051000Y-70080000D01*
X165971000Y-72160000D02*
X165971000Y-73536000D01*
X166091000Y-72160000D02*
X166091000Y-73425000D01*
X165251000Y-68224000D02*
X165251000Y-70080000D01*
X166171000Y-68896000D02*
X166171000Y-73344000D01*
X165531000Y-72160000D02*
X165531000Y-73862000D01*
X165051000Y-72160000D02*
X165051000Y-74106000D01*
X160309759Y-69281000D02*
X160939759Y-69281000D01*
X165211000Y-68204000D02*
X165211000Y-70080000D01*
X166651000Y-69539000D02*
X166651000Y-72701000D01*
X166931000Y-70180000D02*
X166931000Y-72060000D01*
X166011000Y-72160000D02*
X166011000Y-73500000D01*
X166011000Y-68740000D02*
X166011000Y-70080000D01*
X164370000Y-72160000D02*
X164370000Y-74302000D01*
X163930000Y-67892000D02*
X163930000Y-74348000D01*
X164531000Y-72160000D02*
X164531000Y-74270000D01*
X164090000Y-72160000D02*
X164090000Y-74338000D01*
X166891000Y-70061000D02*
X166891000Y-72179000D01*
X164891000Y-72160000D02*
X164891000Y-74167000D01*
X165131000Y-68168000D02*
X165131000Y-70080000D01*
X164130000Y-72160000D02*
X164130000Y-74335000D01*
X164971000Y-72160000D02*
X164971000Y-74138000D01*
X164090000Y-67902000D02*
X164090000Y-70080000D01*
X165771000Y-72160000D02*
X165771000Y-73698000D01*
X164330000Y-67931000D02*
X164330000Y-70080000D01*
X164651000Y-72160000D02*
X164651000Y-74241000D01*
X164210000Y-67914000D02*
X164210000Y-70080000D01*
X165171000Y-68186000D02*
X165171000Y-70080000D01*
X165571000Y-68404000D02*
X165571000Y-70080000D01*
X165091000Y-72160000D02*
X165091000Y-74090000D01*
X166371000Y-69125000D02*
X166371000Y-73115000D01*
X167011000Y-70487000D02*
X167011000Y-71753000D01*
X164410000Y-72160000D02*
X164410000Y-74295000D01*
X165331000Y-72160000D02*
X165331000Y-73976000D01*
X164050000Y-67898000D02*
X164050000Y-70080000D01*
X164971000Y-68102000D02*
X164971000Y-70080000D01*
X164010000Y-67896000D02*
X164010000Y-74344000D01*
X166811000Y-69858000D02*
X166811000Y-72382000D01*
X165571000Y-72160000D02*
X165571000Y-73836000D01*
X166611000Y-69470000D02*
X166611000Y-72770000D01*
X164290000Y-67925000D02*
X164290000Y-70080000D01*
X165291000Y-68244000D02*
X165291000Y-70080000D01*
X165931000Y-68670000D02*
X165931000Y-70080000D01*
X165371000Y-72160000D02*
X165371000Y-73954000D01*
X164571000Y-67979000D02*
X164571000Y-70080000D01*
X165811000Y-68572000D02*
X165811000Y-70080000D01*
X166451000Y-69230000D02*
X166451000Y-73010000D01*
X165211000Y-72160000D02*
X165211000Y-74036000D01*
X165011000Y-68118000D02*
X165011000Y-70080000D01*
X165491000Y-68354000D02*
X165491000Y-70080000D01*
X164931000Y-72160000D02*
X164931000Y-74153000D01*
X166331000Y-69076000D02*
X166331000Y-73164000D01*
X163890000Y-67890000D02*
X163890000Y-74350000D01*
X164490000Y-67961000D02*
X164490000Y-70080000D01*
X164651000Y-67999000D02*
X164651000Y-70080000D01*
X164771000Y-68034000D02*
X164771000Y-70080000D01*
X163970000Y-67893000D02*
X163970000Y-74347000D01*
X163850000Y-67890000D02*
X163850000Y-74350000D01*
X166211000Y-68938000D02*
X166211000Y-73302000D01*
X165371000Y-68286000D02*
X165371000Y-70080000D01*
X164851000Y-68059000D02*
X164851000Y-70080000D01*
X164290000Y-72160000D02*
X164290000Y-74315000D01*
X164130000Y-67905000D02*
X164130000Y-70080000D01*
X165171000Y-72160000D02*
X165171000Y-74054000D01*
X160624759Y-68966000D02*
X160624759Y-69596000D01*
X166851000Y-69955000D02*
X166851000Y-72285000D01*
X164891000Y-68073000D02*
X164891000Y-70080000D01*
X164931000Y-68087000D02*
X164931000Y-70080000D01*
X166731000Y-69688000D02*
X166731000Y-72552000D01*
X166251000Y-68983000D02*
X166251000Y-73257000D01*
X164410000Y-67945000D02*
X164410000Y-70080000D01*
X166691000Y-69611000D02*
X166691000Y-72629000D01*
X165731000Y-68513000D02*
X165731000Y-70080000D01*
X167051000Y-70718000D02*
X167051000Y-71522000D01*
X164490000Y-72160000D02*
X164490000Y-74279000D01*
X163810000Y-67890000D02*
X163810000Y-74350000D01*
X165891000Y-72160000D02*
X165891000Y-73604000D01*
X164771000Y-72160000D02*
X164771000Y-74206000D01*
X164250000Y-67919000D02*
X164250000Y-70080000D01*
X164170000Y-72160000D02*
X164170000Y-74331000D01*
X164531000Y-67970000D02*
X164531000Y-70080000D01*
X164811000Y-72160000D02*
X164811000Y-74194000D01*
X166531000Y-69344000D02*
X166531000Y-72896000D01*
X165411000Y-68308000D02*
X165411000Y-70080000D01*
X165891000Y-68636000D02*
X165891000Y-70080000D01*
X164611000Y-67989000D02*
X164611000Y-70080000D01*
X166091000Y-68815000D02*
X166091000Y-70080000D01*
X164731000Y-68022000D02*
X164731000Y-70080000D01*
X167080000Y-71120000D02*
G75*
G03*
X167080000Y-71120000I-3270000J0D01*
G01*
%TO.C,U3*%
X158780000Y-97850000D02*
X169000000Y-97850000D01*
X156180000Y-96520000D02*
X156180000Y-95190000D01*
X169000000Y-97850000D02*
X169000000Y-95190000D01*
X156180000Y-95190000D02*
X157510000Y-95190000D01*
X158780000Y-97850000D02*
X158780000Y-95190000D01*
X158780000Y-95190000D02*
X169000000Y-95190000D01*
%TO.C,D1*%
X159840000Y-79835000D02*
X165280000Y-79835000D01*
X159840000Y-79965000D02*
X159840000Y-79835000D01*
X165280000Y-82775000D02*
X165280000Y-82645000D01*
X165280000Y-79835000D02*
X165280000Y-79965000D01*
X160740000Y-79835000D02*
X160740000Y-82775000D01*
X159840000Y-82645000D02*
X159840000Y-82775000D01*
X160860000Y-79835000D02*
X160860000Y-82775000D01*
X159840000Y-82775000D02*
X165280000Y-82775000D01*
X160620000Y-79835000D02*
X160620000Y-82775000D01*
%TO.C,C2*%
X176971000Y-69858000D02*
X176971000Y-72382000D01*
X174410000Y-67919000D02*
X174410000Y-70080000D01*
X175051000Y-68073000D02*
X175051000Y-70080000D01*
X175931000Y-72160000D02*
X175931000Y-73698000D01*
X176691000Y-69344000D02*
X176691000Y-72896000D01*
X175011000Y-68059000D02*
X175011000Y-70080000D01*
X175411000Y-68224000D02*
X175411000Y-70080000D01*
X177051000Y-70061000D02*
X177051000Y-72179000D01*
X176491000Y-69076000D02*
X176491000Y-73164000D01*
X175131000Y-68102000D02*
X175131000Y-70080000D01*
X176091000Y-72160000D02*
X176091000Y-73570000D01*
X176051000Y-72160000D02*
X176051000Y-73604000D01*
X175571000Y-72160000D02*
X175571000Y-73932000D01*
X177011000Y-69955000D02*
X177011000Y-72285000D01*
X175851000Y-72160000D02*
X175851000Y-73756000D01*
X175011000Y-72160000D02*
X175011000Y-74181000D01*
X175971000Y-72160000D02*
X175971000Y-73668000D01*
X175451000Y-72160000D02*
X175451000Y-73996000D01*
X176131000Y-68704000D02*
X176131000Y-70080000D01*
X176571000Y-69176000D02*
X176571000Y-73064000D01*
X174931000Y-72160000D02*
X174931000Y-74206000D01*
X174811000Y-72160000D02*
X174811000Y-74241000D01*
X175651000Y-72160000D02*
X175651000Y-73886000D01*
X175291000Y-72160000D02*
X175291000Y-74072000D01*
X174610000Y-72160000D02*
X174610000Y-74287000D01*
X176211000Y-68777000D02*
X176211000Y-70080000D01*
X175731000Y-68404000D02*
X175731000Y-70080000D01*
X174370000Y-67914000D02*
X174370000Y-70080000D01*
X175291000Y-68168000D02*
X175291000Y-70080000D01*
X174570000Y-72160000D02*
X174570000Y-74295000D01*
X174691000Y-72160000D02*
X174691000Y-74270000D01*
X176091000Y-68670000D02*
X176091000Y-70080000D01*
X177211000Y-70718000D02*
X177211000Y-71522000D01*
X170469759Y-69281000D02*
X171099759Y-69281000D01*
X174210000Y-72160000D02*
X174210000Y-74342000D01*
X175411000Y-72160000D02*
X175411000Y-74016000D01*
X175771000Y-68430000D02*
X175771000Y-70080000D01*
X176851000Y-69611000D02*
X176851000Y-72629000D01*
X174370000Y-72160000D02*
X174370000Y-74326000D01*
X176411000Y-68983000D02*
X176411000Y-73257000D01*
X174650000Y-67961000D02*
X174650000Y-70080000D01*
X176011000Y-72160000D02*
X176011000Y-73636000D01*
X174210000Y-67898000D02*
X174210000Y-70080000D01*
X176131000Y-72160000D02*
X176131000Y-73536000D01*
X174851000Y-68010000D02*
X174851000Y-70080000D01*
X175811000Y-72160000D02*
X175811000Y-73784000D01*
X174410000Y-72160000D02*
X174410000Y-74321000D01*
X175371000Y-68204000D02*
X175371000Y-70080000D01*
X175131000Y-72160000D02*
X175131000Y-74138000D01*
X174691000Y-67970000D02*
X174691000Y-70080000D01*
X174731000Y-67979000D02*
X174731000Y-70080000D01*
X175691000Y-68378000D02*
X175691000Y-70080000D01*
X176811000Y-69539000D02*
X176811000Y-72701000D01*
X176611000Y-69230000D02*
X176611000Y-73010000D01*
X174771000Y-67989000D02*
X174771000Y-70080000D01*
X174971000Y-72160000D02*
X174971000Y-74194000D01*
X175811000Y-68456000D02*
X175811000Y-70080000D01*
X176171000Y-68740000D02*
X176171000Y-70080000D01*
X177171000Y-70487000D02*
X177171000Y-71753000D01*
X174330000Y-72160000D02*
X174330000Y-74331000D01*
X176451000Y-69028000D02*
X176451000Y-73212000D01*
X175691000Y-72160000D02*
X175691000Y-73862000D01*
X176931000Y-69770000D02*
X176931000Y-72470000D01*
X175451000Y-68244000D02*
X175451000Y-70080000D01*
X174330000Y-67909000D02*
X174330000Y-70080000D01*
X174170000Y-67896000D02*
X174170000Y-74344000D01*
X176331000Y-68896000D02*
X176331000Y-73344000D01*
X175891000Y-68513000D02*
X175891000Y-70080000D01*
X174851000Y-72160000D02*
X174851000Y-74230000D01*
X174771000Y-72160000D02*
X174771000Y-74251000D01*
X175051000Y-72160000D02*
X175051000Y-74167000D01*
X174891000Y-68022000D02*
X174891000Y-70080000D01*
X176251000Y-72160000D02*
X176251000Y-73425000D01*
X175491000Y-72160000D02*
X175491000Y-73976000D01*
X174010000Y-67890000D02*
X174010000Y-74350000D01*
X175531000Y-72160000D02*
X175531000Y-73954000D01*
X175371000Y-72160000D02*
X175371000Y-74036000D01*
X177091000Y-70180000D02*
X177091000Y-72060000D01*
X174130000Y-67893000D02*
X174130000Y-74347000D01*
X177131000Y-70318000D02*
X177131000Y-71922000D01*
X175731000Y-72160000D02*
X175731000Y-73836000D01*
X174450000Y-72160000D02*
X174450000Y-74315000D01*
X175651000Y-68354000D02*
X175651000Y-70080000D01*
X176891000Y-69688000D02*
X176891000Y-72552000D01*
X175251000Y-68150000D02*
X175251000Y-70080000D01*
X174650000Y-72160000D02*
X174650000Y-74279000D01*
X174450000Y-67925000D02*
X174450000Y-70080000D01*
X175851000Y-68484000D02*
X175851000Y-70080000D01*
X174530000Y-67938000D02*
X174530000Y-70080000D01*
X175971000Y-68572000D02*
X175971000Y-70080000D01*
X175171000Y-68118000D02*
X175171000Y-70080000D01*
X175091000Y-72160000D02*
X175091000Y-74153000D01*
X175251000Y-72160000D02*
X175251000Y-74090000D01*
X176771000Y-69470000D02*
X176771000Y-72770000D01*
X175531000Y-68286000D02*
X175531000Y-70080000D01*
X175491000Y-68264000D02*
X175491000Y-70080000D01*
X175571000Y-68308000D02*
X175571000Y-70080000D01*
X174891000Y-72160000D02*
X174891000Y-74218000D01*
X175611000Y-68330000D02*
X175611000Y-70080000D01*
X176651000Y-69286000D02*
X176651000Y-72954000D01*
X174610000Y-67953000D02*
X174610000Y-70080000D01*
X174290000Y-72160000D02*
X174290000Y-74335000D01*
X176171000Y-72160000D02*
X176171000Y-73500000D01*
X176011000Y-68604000D02*
X176011000Y-70080000D01*
X176251000Y-68815000D02*
X176251000Y-70080000D01*
X176211000Y-72160000D02*
X176211000Y-73463000D01*
X176051000Y-68636000D02*
X176051000Y-70080000D01*
X174050000Y-67890000D02*
X174050000Y-74350000D01*
X175211000Y-72160000D02*
X175211000Y-74106000D01*
X176731000Y-69406000D02*
X176731000Y-72834000D01*
X175931000Y-68542000D02*
X175931000Y-70080000D01*
X174250000Y-67902000D02*
X174250000Y-70080000D01*
X173970000Y-67890000D02*
X173970000Y-74350000D01*
X176291000Y-68855000D02*
X176291000Y-73385000D01*
X174811000Y-67999000D02*
X174811000Y-70080000D01*
X174490000Y-67931000D02*
X174490000Y-70080000D01*
X176371000Y-68938000D02*
X176371000Y-73302000D01*
X175771000Y-72160000D02*
X175771000Y-73810000D01*
X170784759Y-68966000D02*
X170784759Y-69596000D01*
X174731000Y-72160000D02*
X174731000Y-74261000D01*
X174250000Y-72160000D02*
X174250000Y-74338000D01*
X175611000Y-72160000D02*
X175611000Y-73910000D01*
X175091000Y-68087000D02*
X175091000Y-70080000D01*
X174971000Y-68046000D02*
X174971000Y-70080000D01*
X176531000Y-69125000D02*
X176531000Y-73115000D01*
X174290000Y-67905000D02*
X174290000Y-70080000D01*
X174490000Y-72160000D02*
X174490000Y-74309000D01*
X174931000Y-68034000D02*
X174931000Y-70080000D01*
X175331000Y-72160000D02*
X175331000Y-74054000D01*
X175171000Y-72160000D02*
X175171000Y-74122000D01*
X175891000Y-72160000D02*
X175891000Y-73727000D01*
X174570000Y-67945000D02*
X174570000Y-70080000D01*
X174530000Y-72160000D02*
X174530000Y-74302000D01*
X175211000Y-68134000D02*
X175211000Y-70080000D01*
X175331000Y-68186000D02*
X175331000Y-70080000D01*
X174090000Y-67892000D02*
X174090000Y-74348000D01*
X177240000Y-71120000D02*
G75*
G03*
X177240000Y-71120000I-3270000J0D01*
G01*
%TO.C,A1*%
X133220000Y-69720000D02*
X133220000Y-72390000D01*
X133220000Y-74930000D02*
X133220000Y-113160000D01*
X148590000Y-110490000D02*
X151260000Y-110490000D01*
X151260000Y-113160000D02*
X151260000Y-69720000D01*
X148590000Y-72390000D02*
X151260000Y-72390000D01*
X135890000Y-74930000D02*
X135890000Y-72390000D01*
X135890000Y-72390000D02*
X133220000Y-72390000D01*
X135890000Y-74930000D02*
X135890000Y-110490000D01*
X135890000Y-110490000D02*
X133220000Y-110490000D01*
X148590000Y-72390000D02*
X148590000Y-110490000D01*
X151260000Y-69720000D02*
X133220000Y-69720000D01*
X135890000Y-74930000D02*
X133220000Y-74930000D01*
X133220000Y-113160000D02*
X151260000Y-113160000D01*
%TO.C,J1*%
X157430000Y-88925000D02*
X157430000Y-87595000D01*
X157430000Y-87595000D02*
X158760000Y-87595000D01*
X160090000Y-90255000D02*
X160090000Y-87595000D01*
X159970000Y-90255000D02*
X160090000Y-90255000D01*
X159970000Y-87595000D02*
X160090000Y-87595000D01*
%TD*%
M02*
