%TF.GenerationSoftware,KiCad,Pcbnew,(6.0.4)*%
%TF.CreationDate,2022-08-04T20:18:12-07:00*%
%TF.ProjectId,l0ckcr4ck3r,6c30636b-6372-4346-936b-33722e6b6963,rev?*%
%TF.SameCoordinates,Original*%
%TF.FileFunction,Soldermask,Bot*%
%TF.FilePolarity,Negative*%
%FSLAX46Y46*%
G04 Gerber Fmt 4.6, Leading zero omitted, Abs format (unit mm)*
G04 Created by KiCad (PCBNEW (6.0.4)) date 2022-08-04 20:18:12*
%MOMM*%
%LPD*%
G01*
G04 APERTURE LIST*
%ADD10R,1.524000X1.524000*%
%ADD11C,1.524000*%
%ADD12R,1.700000X1.700000*%
%ADD13O,1.700000X1.700000*%
%ADD14O,1.524000X3.048000*%
%ADD15C,3.200000*%
%ADD16R,1.600000X1.600000*%
%ADD17C,1.600000*%
%ADD18R,2.200000X2.200000*%
%ADD19O,2.200000X2.200000*%
%ADD20O,1.600000X1.600000*%
G04 APERTURE END LIST*
D10*
%TO.C,U2*%
X135890000Y-64770000D03*
D11*
X135890000Y-62230000D03*
X135890000Y-59690000D03*
X135890000Y-57150000D03*
X135890000Y-54610000D03*
X135890000Y-52070000D03*
X135890000Y-49530000D03*
X135890000Y-46990000D03*
D10*
X148590000Y-46990000D03*
D11*
X148590000Y-49530000D03*
X148590000Y-52070000D03*
X148590000Y-54610000D03*
X148590000Y-57150000D03*
X148590000Y-59690000D03*
X148590000Y-62230000D03*
X148590000Y-64770000D03*
%TD*%
D12*
%TO.C,M3*%
X161300000Y-88925000D03*
D13*
X163840000Y-88925000D03*
X166380000Y-88925000D03*
%TD*%
D12*
%TO.C,U6*%
X158760000Y-104140000D03*
D13*
X161300000Y-104140000D03*
X163840000Y-104140000D03*
X166380000Y-104140000D03*
%TD*%
D12*
%TO.C,M2*%
X157480000Y-43180000D03*
D13*
X157480000Y-45720000D03*
%TD*%
D12*
%TO.C,U5*%
X158760000Y-111760000D03*
D13*
X161300000Y-111760000D03*
X163840000Y-111760000D03*
X166380000Y-111760000D03*
%TD*%
D14*
%TO.C,U4*%
X165100000Y-63500000D03*
X167640000Y-63500000D03*
X170180000Y-63500000D03*
%TD*%
D12*
%TO.C,M1*%
X162585000Y-47000000D03*
D13*
X162585000Y-49540000D03*
X162585000Y-52080000D03*
X162585000Y-54620000D03*
%TD*%
D15*
%TO.C,REF\u002A\u002A*%
X172720000Y-111785000D03*
%TD*%
D12*
%TO.C,M4*%
X154940000Y-68580000D03*
D13*
X154940000Y-71120000D03*
X154940000Y-73660000D03*
%TD*%
D15*
%TO.C,REF\u002A\u002A*%
X129540000Y-40640000D03*
%TD*%
D16*
%TO.C,C1*%
X162560000Y-71120000D03*
D17*
X165060000Y-71120000D03*
%TD*%
D12*
%TO.C,U3*%
X157510000Y-96520000D03*
D13*
X160050000Y-96520000D03*
X162590000Y-96520000D03*
X165130000Y-96520000D03*
X167670000Y-96520000D03*
%TD*%
D18*
%TO.C,D1*%
X158750000Y-81305000D03*
D19*
X166370000Y-81305000D03*
%TD*%
D16*
%TO.C,C2*%
X172720000Y-71120000D03*
D17*
X175220000Y-71120000D03*
%TD*%
D15*
%TO.C,REF\u002A\u002A*%
X129540000Y-111760000D03*
%TD*%
%TO.C,REF\u002A\u002A*%
X172720000Y-40665000D03*
%TD*%
D16*
%TO.C,A1*%
X134620000Y-73660000D03*
D20*
X134620000Y-76200000D03*
X134620000Y-78740000D03*
X134620000Y-81280000D03*
X134620000Y-83820000D03*
X134620000Y-86360000D03*
X134620000Y-88900000D03*
X134620000Y-91440000D03*
X134620000Y-93980000D03*
X134620000Y-96520000D03*
X134620000Y-99060000D03*
X134620000Y-101600000D03*
X134620000Y-104140000D03*
X134620000Y-106680000D03*
X134620000Y-109220000D03*
X149860000Y-109220000D03*
X149860000Y-106680000D03*
X149860000Y-104140000D03*
X149860000Y-101600000D03*
X149860000Y-99060000D03*
X149860000Y-96520000D03*
X149860000Y-93980000D03*
X149860000Y-91440000D03*
X149860000Y-88900000D03*
X149860000Y-86360000D03*
X149860000Y-83820000D03*
X149860000Y-81280000D03*
X149860000Y-78740000D03*
X149860000Y-76200000D03*
X149860000Y-73660000D03*
%TD*%
D12*
%TO.C,J1*%
X158760000Y-88925000D03*
%TD*%
M02*
