M48
; DRILL file {KiCad (6.0.4)} date Thu Aug  4 20:18:10 2022
; FORMAT={-:-/ absolute / inch / decimal}
; #@! TF.CreationDate,2022-08-04T20:18:10-07:00
; #@! TF.GenerationSoftware,Kicad,Pcbnew,(6.0.4)
; #@! TF.FileFunction,Plated,1,2,PTH
FMAT,2
INCH
; #@! TA.AperFunction,Plated,PTH,ViaDrill
T1C0.0157
; #@! TA.AperFunction,Plated,PTH,ComponentDrill
T2C0.0315
; #@! TA.AperFunction,Plated,PTH,ComponentDrill
T3C0.0394
; #@! TA.AperFunction,Plated,PTH,ComponentDrill
T4C0.0400
; #@! TA.AperFunction,Plated,PTH,ComponentDrill
T5C0.0433
%
G90
G05
T1
X5.4252Y-2.6339
X5.45Y-4.0
X5.55Y-1.7
X5.55Y-1.75
X5.55Y-1.8
X5.6Y-3.5
X5.8189Y-3.5906
X6.0039Y-3.9803
X6.3937Y-3.4291
X6.4213Y-3.8819
X6.5118Y-3.4252
X6.5551Y-3.7205
T2
X6.4Y-2.8
X6.4984Y-2.8
X6.8Y-2.8
X6.8984Y-2.8
T3
X5.3Y-2.9
X5.3Y-3.0
X5.3Y-3.1
X5.3Y-3.2
X5.3Y-3.3
X5.3Y-3.4
X5.3Y-3.5
X5.3Y-3.6
X5.3Y-3.7
X5.3Y-3.8
X5.3Y-3.9
X5.3Y-4.0
X5.3Y-4.1
X5.3Y-4.2
X5.3Y-4.3
X5.9Y-2.9
X5.9Y-3.0
X5.9Y-3.1
X5.9Y-3.2
X5.9Y-3.3
X5.9Y-3.4
X5.9Y-3.5
X5.9Y-3.6
X5.9Y-3.7
X5.9Y-3.8
X5.9Y-3.9
X5.9Y-4.0
X5.9Y-4.1
X5.9Y-4.2
X5.9Y-4.3
X6.1Y-2.7
X6.1Y-2.8
X6.1Y-2.9
X6.2Y-1.7
X6.2Y-1.8
X6.2012Y-3.8
X6.2504Y-3.501
X6.2504Y-4.1
X6.2504Y-4.4
X6.3012Y-3.8
X6.3504Y-3.501
X6.3504Y-4.1
X6.3504Y-4.4
X6.401Y-1.8504
X6.401Y-1.9504
X6.401Y-2.0504
X6.401Y-2.1504
X6.4012Y-3.8
X6.4504Y-3.501
X6.4504Y-4.1
X6.4504Y-4.4
X6.5012Y-3.8
X6.5504Y-3.501
X6.5504Y-4.1
X6.5504Y-4.4
X6.6012Y-3.8
T4
X5.35Y-1.85
X5.35Y-1.95
X5.35Y-2.05
X5.35Y-2.15
X5.35Y-2.25
X5.35Y-2.35
X5.35Y-2.45
X5.35Y-2.55
X5.85Y-1.85
X5.85Y-1.95
X5.85Y-2.05
X5.85Y-2.15
X5.85Y-2.25
X5.85Y-2.35
X5.85Y-2.45
X5.85Y-2.55
X6.5Y-2.5
X6.6Y-2.5
X6.7Y-2.5
T5
X6.25Y-3.201
X6.55Y-3.201
T0
M30
