%TF.GenerationSoftware,KiCad,Pcbnew,(6.0.4)*%
%TF.CreationDate,2022-08-04T20:18:12-07:00*%
%TF.ProjectId,l0ckcr4ck3r,6c30636b-6372-4346-936b-33722e6b6963,rev?*%
%TF.SameCoordinates,Original*%
%TF.FileFunction,Copper,L2,Bot*%
%TF.FilePolarity,Positive*%
%FSLAX46Y46*%
G04 Gerber Fmt 4.6, Leading zero omitted, Abs format (unit mm)*
G04 Created by KiCad (PCBNEW (6.0.4)) date 2022-08-04 20:18:12*
%MOMM*%
%LPD*%
G01*
G04 APERTURE LIST*
%TA.AperFunction,ComponentPad*%
%ADD10R,1.524000X1.524000*%
%TD*%
%TA.AperFunction,ComponentPad*%
%ADD11C,1.524000*%
%TD*%
%TA.AperFunction,ComponentPad*%
%ADD12R,1.700000X1.700000*%
%TD*%
%TA.AperFunction,ComponentPad*%
%ADD13O,1.700000X1.700000*%
%TD*%
%TA.AperFunction,ComponentPad*%
%ADD14O,1.524000X3.048000*%
%TD*%
%TA.AperFunction,ComponentPad*%
%ADD15R,1.600000X1.600000*%
%TD*%
%TA.AperFunction,ComponentPad*%
%ADD16C,1.600000*%
%TD*%
%TA.AperFunction,ComponentPad*%
%ADD17R,2.200000X2.200000*%
%TD*%
%TA.AperFunction,ComponentPad*%
%ADD18O,2.200000X2.200000*%
%TD*%
%TA.AperFunction,ComponentPad*%
%ADD19O,1.600000X1.600000*%
%TD*%
%TA.AperFunction,ViaPad*%
%ADD20C,0.800000*%
%TD*%
%TA.AperFunction,Conductor*%
%ADD21C,0.250000*%
%TD*%
%TA.AperFunction,Conductor*%
%ADD22C,0.500000*%
%TD*%
G04 APERTURE END LIST*
D10*
%TO.P,U2,JP1_1,DIR*%
%TO.N,Net-(A1-Pad7)*%
X135890000Y-64770000D03*
D11*
%TO.P,U2,JP1_2,STEP*%
%TO.N,Net-(A1-Pad6)*%
X135890000Y-62230000D03*
%TO.P,U2,JP1_3*%
%TO.N,N/C*%
X135890000Y-59690000D03*
%TO.P,U2,JP1_4,PDN/UART1*%
%TO.N,unconnected-(U2-PadJP1_4)*%
X135890000Y-57150000D03*
%TO.P,U2,JP1_5,PDN/UART2*%
%TO.N,unconnected-(U2-PadJP1_5)*%
X135890000Y-54610000D03*
%TO.P,U2,JP1_6,MS2*%
%TO.N,unconnected-(U2-PadJP1_6)*%
X135890000Y-52070000D03*
%TO.P,U2,JP1_7,MS1*%
%TO.N,unconnected-(U2-PadJP1_7)*%
X135890000Y-49530000D03*
%TO.P,U2,JP1_8,EN*%
%TO.N,Net-(A1-Pad5)*%
X135890000Y-46990000D03*
D10*
%TO.P,U2,JP2_1,VM*%
%TO.N,+12V*%
X148590000Y-46990000D03*
D11*
%TO.P,U2,JP2_2,GND*%
%TO.N,GND*%
X148590000Y-49530000D03*
%TO.P,U2,JP2_3,OA2*%
%TO.N,Net-(M1-Pad1)*%
X148590000Y-52070000D03*
%TO.P,U2,JP2_4,OA1*%
%TO.N,Net-(M1-Pad2)*%
X148590000Y-54610000D03*
%TO.P,U2,JP2_5,OB1*%
%TO.N,Net-(M1-Pad3)*%
X148590000Y-57150000D03*
%TO.P,U2,JP2_6,OB2*%
%TO.N,Net-(M1-Pad4)*%
X148590000Y-59690000D03*
%TO.P,U2,JP2_7,VIO*%
%TO.N,Net-(A1-Pad30)*%
X148590000Y-62230000D03*
%TO.P,U2,JP2_8,GND*%
%TO.N,GND*%
X148590000Y-64770000D03*
%TD*%
D12*
%TO.P,M3,1,PWM*%
%TO.N,D5*%
X161300000Y-88925000D03*
D13*
%TO.P,M3,2,+*%
%TO.N,Net-(C1-Pad1)*%
X163840000Y-88925000D03*
%TO.P,M3,3,-*%
%TO.N,GND*%
X166380000Y-88925000D03*
%TD*%
D12*
%TO.P,U6,1,VCC*%
%TO.N,+5V*%
X158760000Y-104140000D03*
D13*
%TO.P,U6,2,GND*%
%TO.N,GND*%
X161300000Y-104140000D03*
%TO.P,U6,3,SCL*%
%TO.N,SCL*%
X163840000Y-104140000D03*
%TO.P,U6,4,SDA*%
%TO.N,SDA*%
X166380000Y-104140000D03*
%TD*%
D12*
%TO.P,M2,1,+*%
%TO.N,+12V*%
X157480000Y-43180000D03*
D13*
%TO.P,M2,2,-*%
%TO.N,GND*%
X157480000Y-45720000D03*
%TD*%
D12*
%TO.P,U5,1,VCC*%
%TO.N,+5V*%
X158760000Y-111760000D03*
D13*
%TO.P,U5,2,GND*%
%TO.N,GND*%
X161300000Y-111760000D03*
%TO.P,U5,3,SCL*%
%TO.N,SCL*%
X163840000Y-111760000D03*
%TO.P,U5,4,SDA*%
%TO.N,SDA*%
X166380000Y-111760000D03*
%TD*%
D14*
%TO.P,U4,1*%
%TO.N,GND*%
X165100000Y-63500000D03*
%TO.P,U4,2*%
%TO.N,Net-(C1-Pad1)*%
X167640000Y-63500000D03*
%TO.P,U4,3,Input*%
%TO.N,+12V*%
X170180000Y-63500000D03*
%TD*%
D12*
%TO.P,M1,1*%
%TO.N,Net-(M1-Pad1)*%
X162585000Y-47000000D03*
D13*
%TO.P,M1,2,-*%
%TO.N,Net-(M1-Pad2)*%
X162585000Y-49540000D03*
%TO.P,M1,3*%
%TO.N,Net-(M1-Pad3)*%
X162585000Y-52080000D03*
%TO.P,M1,4*%
%TO.N,Net-(M1-Pad4)*%
X162585000Y-54620000D03*
%TD*%
D12*
%TO.P,M4,1,PWM*%
%TO.N,D9*%
X154940000Y-68580000D03*
D13*
%TO.P,M4,2,+*%
%TO.N,Net-(C1-Pad1)*%
X154940000Y-71120000D03*
%TO.P,M4,3,-*%
%TO.N,GND*%
X154940000Y-73660000D03*
%TD*%
D15*
%TO.P,C1,1*%
%TO.N,Net-(C1-Pad1)*%
X162560000Y-71120000D03*
D16*
%TO.P,C1,2*%
%TO.N,GND*%
X165060000Y-71120000D03*
%TD*%
D12*
%TO.P,U3,1,CLK*%
%TO.N,CLK*%
X157510000Y-96520000D03*
D13*
%TO.P,U3,2,DT*%
%TO.N,DT*%
X160050000Y-96520000D03*
%TO.P,U3,3,SW*%
%TO.N,SW*%
X162590000Y-96520000D03*
%TO.P,U3,4,+*%
%TO.N,+5V*%
X165130000Y-96520000D03*
%TO.P,U3,5,GND*%
%TO.N,GND*%
X167670000Y-96520000D03*
%TD*%
D17*
%TO.P,D1,1,K*%
%TO.N,+5V*%
X158750000Y-81305000D03*
D18*
%TO.P,D1,2,A*%
%TO.N,Net-(C1-Pad1)*%
X166370000Y-81305000D03*
%TD*%
D15*
%TO.P,C2,1*%
%TO.N,+12V*%
X172720000Y-71120000D03*
D16*
%TO.P,C2,2*%
%TO.N,GND*%
X175220000Y-71120000D03*
%TD*%
D15*
%TO.P,A1,1,D1/TX*%
%TO.N,unconnected-(A1-Pad1)*%
X134620000Y-73660000D03*
D19*
%TO.P,A1,2,D0/RX*%
%TO.N,unconnected-(A1-Pad2)*%
X134620000Y-76200000D03*
%TO.P,A1,3,~{RESET}*%
%TO.N,unconnected-(A1-Pad3)*%
X134620000Y-78740000D03*
%TO.P,A1,4,GND*%
%TO.N,GND*%
X134620000Y-81280000D03*
%TO.P,A1,5,D2*%
%TO.N,Net-(A1-Pad5)*%
X134620000Y-83820000D03*
%TO.P,A1,6,D3*%
%TO.N,Net-(A1-Pad6)*%
X134620000Y-86360000D03*
%TO.P,A1,7,D4*%
%TO.N,Net-(A1-Pad7)*%
X134620000Y-88900000D03*
%TO.P,A1,8,D5*%
%TO.N,D5*%
X134620000Y-91440000D03*
%TO.P,A1,9,D6*%
%TO.N,CLK*%
X134620000Y-93980000D03*
%TO.P,A1,10,D7*%
%TO.N,DT*%
X134620000Y-96520000D03*
%TO.P,A1,11,D8*%
%TO.N,SW*%
X134620000Y-99060000D03*
%TO.P,A1,12,D9*%
%TO.N,D9*%
X134620000Y-101600000D03*
%TO.P,A1,13,D10*%
%TO.N,unconnected-(A1-Pad13)*%
X134620000Y-104140000D03*
%TO.P,A1,14,D11*%
%TO.N,unconnected-(A1-Pad14)*%
X134620000Y-106680000D03*
%TO.P,A1,15,D12*%
%TO.N,unconnected-(A1-Pad15)*%
X134620000Y-109220000D03*
%TO.P,A1,16,D13*%
%TO.N,unconnected-(A1-Pad16)*%
X149860000Y-109220000D03*
%TO.P,A1,17,3V3*%
%TO.N,unconnected-(A1-Pad17)*%
X149860000Y-106680000D03*
%TO.P,A1,18,AREF*%
%TO.N,unconnected-(A1-Pad18)*%
X149860000Y-104140000D03*
%TO.P,A1,19,A0*%
%TO.N,Net-(A1-Pad19)*%
X149860000Y-101600000D03*
%TO.P,A1,20,A1*%
%TO.N,unconnected-(A1-Pad20)*%
X149860000Y-99060000D03*
%TO.P,A1,21,A2*%
%TO.N,unconnected-(A1-Pad21)*%
X149860000Y-96520000D03*
%TO.P,A1,22,A3*%
%TO.N,unconnected-(A1-Pad22)*%
X149860000Y-93980000D03*
%TO.P,A1,23,A4*%
%TO.N,SDA*%
X149860000Y-91440000D03*
%TO.P,A1,24,A5*%
%TO.N,SCL*%
X149860000Y-88900000D03*
%TO.P,A1,25,A6*%
%TO.N,unconnected-(A1-Pad25)*%
X149860000Y-86360000D03*
%TO.P,A1,26,A7*%
%TO.N,unconnected-(A1-Pad26)*%
X149860000Y-83820000D03*
%TO.P,A1,27,+5V*%
%TO.N,+5V*%
X149860000Y-81280000D03*
%TO.P,A1,28,~{RESET}*%
%TO.N,unconnected-(A1-Pad28)*%
X149860000Y-78740000D03*
%TO.P,A1,29,GND*%
%TO.N,GND*%
X149860000Y-76200000D03*
%TO.P,A1,30,VIN*%
%TO.N,Net-(A1-Pad30)*%
X149860000Y-73660000D03*
%TD*%
D12*
%TO.P,J1,1,Pin_1*%
%TO.N,Net-(A1-Pad19)*%
X158760000Y-88925000D03*
%TD*%
D20*
%TO.N,GND*%
X140970000Y-43180000D03*
X140970000Y-44450000D03*
X140970000Y-45720000D03*
%TO.N,Net-(A1-Pad7)*%
X137800000Y-66900000D03*
%TO.N,Net-(A1-Pad19)*%
X152500000Y-101100000D03*
%TO.N,SCL*%
X147800000Y-91200000D03*
%TO.N,+5V*%
X166500000Y-94500000D03*
X165400000Y-87000000D03*
X162400000Y-87100000D03*
X163100000Y-98600000D03*
%TO.N,D9*%
X138430000Y-101600000D03*
X142240000Y-88900000D03*
%TD*%
D21*
%TO.N,Net-(A1-Pad7)*%
X137800000Y-66900000D02*
X135890000Y-64990000D01*
X135890000Y-64990000D02*
X135890000Y-64770000D01*
%TO.N,Net-(A1-Pad19)*%
X152500000Y-95185000D02*
X158760000Y-88925000D01*
X152500000Y-101100000D02*
X152500000Y-95185000D01*
%TO.N,SCL*%
X147800000Y-90960000D02*
X149860000Y-88900000D01*
X147800000Y-91200000D02*
X147800000Y-90960000D01*
D22*
%TO.N,+5V*%
X165130000Y-96520000D02*
X165130000Y-96570000D01*
X165300000Y-87100000D02*
X165400000Y-87000000D01*
X162400000Y-87100000D02*
X165300000Y-87100000D01*
X166500000Y-95150000D02*
X165130000Y-96520000D01*
X166500000Y-94500000D02*
X166500000Y-95150000D01*
X165130000Y-96570000D02*
X163100000Y-98600000D01*
D21*
%TO.N,D9*%
X138430000Y-101600000D02*
X142240000Y-97790000D01*
X142240000Y-97790000D02*
X142240000Y-88900000D01*
%TD*%
%TA.AperFunction,Conductor*%
%TO.N,GND*%
G36*
X176472121Y-38120002D02*
G01*
X176518614Y-38173658D01*
X176530000Y-38226000D01*
X176530000Y-70314795D01*
X176509998Y-70382916D01*
X176456342Y-70429409D01*
X176386068Y-70439513D01*
X176325330Y-70413217D01*
X176307013Y-70398576D01*
X176293566Y-70405644D01*
X175592022Y-71107188D01*
X175584408Y-71121132D01*
X175584539Y-71122965D01*
X175588790Y-71129580D01*
X176294287Y-71835077D01*
X176306062Y-71841507D01*
X176326900Y-71825386D01*
X176393018Y-71799522D01*
X176462623Y-71813511D01*
X176513616Y-71862911D01*
X176530000Y-71925043D01*
X176530000Y-112904000D01*
X176509998Y-112972121D01*
X176456342Y-113018614D01*
X176404000Y-113030000D01*
X174654998Y-113030000D01*
X174586877Y-113009998D01*
X174540384Y-112956342D01*
X174530280Y-112886068D01*
X174547566Y-112838164D01*
X174590684Y-112767803D01*
X174590687Y-112767798D01*
X174592927Y-112764142D01*
X174639791Y-112657384D01*
X174706757Y-112504830D01*
X174708483Y-112500898D01*
X174715605Y-112475898D01*
X174747863Y-112362652D01*
X174787244Y-112224406D01*
X174827751Y-111939784D01*
X174827845Y-111921951D01*
X174829235Y-111656583D01*
X174829235Y-111656576D01*
X174829257Y-111652297D01*
X174825407Y-111623049D01*
X174792292Y-111371522D01*
X174791732Y-111367266D01*
X174715871Y-111089964D01*
X174648888Y-110932926D01*
X174604763Y-110829476D01*
X174604761Y-110829472D01*
X174603077Y-110825524D01*
X174474110Y-110610036D01*
X174457643Y-110582521D01*
X174457640Y-110582517D01*
X174455439Y-110578839D01*
X174275687Y-110354472D01*
X174067149Y-110156577D01*
X173833683Y-109988814D01*
X173811843Y-109977250D01*
X173782670Y-109961804D01*
X173579608Y-109854288D01*
X173309627Y-109755489D01*
X173028736Y-109694245D01*
X172997685Y-109691801D01*
X172805718Y-109676693D01*
X172805709Y-109676693D01*
X172803261Y-109676500D01*
X172647729Y-109676500D01*
X172645593Y-109676646D01*
X172645582Y-109676646D01*
X172437452Y-109690835D01*
X172437446Y-109690836D01*
X172433175Y-109691127D01*
X172428980Y-109691996D01*
X172428978Y-109691996D01*
X172292416Y-109720277D01*
X172151658Y-109749426D01*
X171880657Y-109845393D01*
X171876848Y-109847359D01*
X171646363Y-109966321D01*
X171625188Y-109977250D01*
X171621687Y-109979711D01*
X171621683Y-109979713D01*
X171611594Y-109986804D01*
X171389977Y-110142559D01*
X171374892Y-110156577D01*
X171185239Y-110332814D01*
X171179378Y-110338260D01*
X170997287Y-110560732D01*
X170847073Y-110805858D01*
X170845347Y-110809791D01*
X170845346Y-110809792D01*
X170733333Y-111064964D01*
X170731517Y-111069102D01*
X170730342Y-111073229D01*
X170730341Y-111073230D01*
X170718944Y-111113240D01*
X170652756Y-111345594D01*
X170622485Y-111558296D01*
X170615155Y-111609800D01*
X170612249Y-111630216D01*
X170612227Y-111634505D01*
X170612226Y-111634512D01*
X170610765Y-111913417D01*
X170610743Y-111917703D01*
X170648268Y-112202734D01*
X170724129Y-112480036D01*
X170725813Y-112483984D01*
X170833837Y-112737240D01*
X170836923Y-112744476D01*
X170848693Y-112764142D01*
X170893670Y-112839294D01*
X170911490Y-112908018D01*
X170889326Y-112975466D01*
X170834215Y-113020225D01*
X170785554Y-113030000D01*
X167332680Y-113030000D01*
X167264559Y-113009998D01*
X167218066Y-112956342D01*
X167207962Y-112886068D01*
X167237456Y-112821488D01*
X167252189Y-112808089D01*
X167251702Y-112807513D01*
X167255657Y-112804171D01*
X167259860Y-112801173D01*
X167300969Y-112760208D01*
X167404152Y-112657384D01*
X167418096Y-112643489D01*
X167548453Y-112462077D01*
X167553979Y-112450897D01*
X167645136Y-112266453D01*
X167645137Y-112266451D01*
X167647430Y-112261811D01*
X167712370Y-112048069D01*
X167741529Y-111826590D01*
X167742611Y-111782301D01*
X167743074Y-111763365D01*
X167743074Y-111763361D01*
X167743156Y-111760000D01*
X167724852Y-111537361D01*
X167670431Y-111320702D01*
X167581354Y-111115840D01*
X167460014Y-110928277D01*
X167309670Y-110763051D01*
X167305619Y-110759852D01*
X167305615Y-110759848D01*
X167138414Y-110627800D01*
X167138410Y-110627798D01*
X167134359Y-110624598D01*
X167098028Y-110604542D01*
X167045403Y-110575492D01*
X166938789Y-110516638D01*
X166933920Y-110514914D01*
X166933916Y-110514912D01*
X166733087Y-110443795D01*
X166733083Y-110443794D01*
X166728212Y-110442069D01*
X166723119Y-110441162D01*
X166723116Y-110441161D01*
X166513373Y-110403800D01*
X166513367Y-110403799D01*
X166508284Y-110402894D01*
X166434452Y-110401992D01*
X166290081Y-110400228D01*
X166290079Y-110400228D01*
X166284911Y-110400165D01*
X166064091Y-110433955D01*
X165851756Y-110503357D01*
X165795938Y-110532414D01*
X165699684Y-110582521D01*
X165653607Y-110606507D01*
X165649474Y-110609610D01*
X165649471Y-110609612D01*
X165479100Y-110737530D01*
X165474965Y-110740635D01*
X165320629Y-110902138D01*
X165213201Y-111059621D01*
X165158293Y-111104621D01*
X165087768Y-111112792D01*
X165024021Y-111081538D01*
X165003324Y-111057054D01*
X164922822Y-110932617D01*
X164922820Y-110932614D01*
X164920014Y-110928277D01*
X164769670Y-110763051D01*
X164765619Y-110759852D01*
X164765615Y-110759848D01*
X164598414Y-110627800D01*
X164598410Y-110627798D01*
X164594359Y-110624598D01*
X164558028Y-110604542D01*
X164505403Y-110575492D01*
X164398789Y-110516638D01*
X164393920Y-110514914D01*
X164393916Y-110514912D01*
X164193087Y-110443795D01*
X164193083Y-110443794D01*
X164188212Y-110442069D01*
X164183119Y-110441162D01*
X164183116Y-110441161D01*
X163973373Y-110403800D01*
X163973367Y-110403799D01*
X163968284Y-110402894D01*
X163894452Y-110401992D01*
X163750081Y-110400228D01*
X163750079Y-110400228D01*
X163744911Y-110400165D01*
X163524091Y-110433955D01*
X163311756Y-110503357D01*
X163255938Y-110532414D01*
X163159684Y-110582521D01*
X163113607Y-110606507D01*
X163109474Y-110609610D01*
X163109471Y-110609612D01*
X162939100Y-110737530D01*
X162934965Y-110740635D01*
X162780629Y-110902138D01*
X162673204Y-111059618D01*
X162672898Y-111060066D01*
X162617987Y-111105069D01*
X162547462Y-111113240D01*
X162483715Y-111081986D01*
X162463018Y-111057502D01*
X162382426Y-110932926D01*
X162376136Y-110924757D01*
X162232806Y-110767240D01*
X162225273Y-110760215D01*
X162058139Y-110628222D01*
X162049552Y-110622517D01*
X161863117Y-110519599D01*
X161853705Y-110515369D01*
X161652959Y-110444280D01*
X161642988Y-110441646D01*
X161571837Y-110428972D01*
X161558540Y-110430432D01*
X161554000Y-110444989D01*
X161554000Y-111888000D01*
X161533998Y-111956121D01*
X161480342Y-112002614D01*
X161428000Y-112014000D01*
X161172000Y-112014000D01*
X161103879Y-111993998D01*
X161057386Y-111940342D01*
X161046000Y-111888000D01*
X161046000Y-110443102D01*
X161042082Y-110429758D01*
X161027806Y-110427771D01*
X160989324Y-110433660D01*
X160979288Y-110436051D01*
X160776868Y-110502212D01*
X160767359Y-110506209D01*
X160578463Y-110604542D01*
X160569738Y-110610036D01*
X160399433Y-110737905D01*
X160391726Y-110744748D01*
X160314478Y-110825584D01*
X160252954Y-110861014D01*
X160182042Y-110857557D01*
X160124255Y-110816311D01*
X160105402Y-110782763D01*
X160063767Y-110671703D01*
X160060615Y-110663295D01*
X159973261Y-110546739D01*
X159856705Y-110459385D01*
X159720316Y-110408255D01*
X159658134Y-110401500D01*
X157861866Y-110401500D01*
X157799684Y-110408255D01*
X157663295Y-110459385D01*
X157546739Y-110546739D01*
X157459385Y-110663295D01*
X157408255Y-110799684D01*
X157401500Y-110861866D01*
X157401500Y-112658134D01*
X157408255Y-112720316D01*
X157423210Y-112760208D01*
X157459385Y-112856705D01*
X157456711Y-112857708D01*
X157468770Y-112912850D01*
X157444032Y-112979398D01*
X157387243Y-113022007D01*
X157343081Y-113030000D01*
X131459678Y-113030000D01*
X131391557Y-113009998D01*
X131345064Y-112956342D01*
X131334960Y-112886068D01*
X131352246Y-112838165D01*
X131410680Y-112742810D01*
X131410684Y-112742802D01*
X131412927Y-112739142D01*
X131416927Y-112730031D01*
X131526757Y-112479830D01*
X131528483Y-112475898D01*
X131533742Y-112457438D01*
X131598947Y-112228534D01*
X131607244Y-112199406D01*
X131644193Y-111939784D01*
X131647146Y-111919036D01*
X131647146Y-111919034D01*
X131647751Y-111914784D01*
X131647845Y-111896951D01*
X131649235Y-111631583D01*
X131649235Y-111631576D01*
X131649257Y-111627297D01*
X131646954Y-111609800D01*
X131615761Y-111372873D01*
X131611732Y-111342266D01*
X131535871Y-111064964D01*
X131468239Y-110906403D01*
X131424763Y-110804476D01*
X131424761Y-110804472D01*
X131423077Y-110800524D01*
X131319704Y-110627800D01*
X131277643Y-110557521D01*
X131277640Y-110557517D01*
X131275439Y-110553839D01*
X131095687Y-110329472D01*
X130887149Y-110131577D01*
X130653683Y-109963814D01*
X130631843Y-109952250D01*
X130497760Y-109881257D01*
X130399608Y-109829288D01*
X130264617Y-109779888D01*
X130133658Y-109731964D01*
X130133656Y-109731963D01*
X130129627Y-109730489D01*
X129848736Y-109669245D01*
X129817685Y-109666801D01*
X129625718Y-109651693D01*
X129625709Y-109651693D01*
X129623261Y-109651500D01*
X129467729Y-109651500D01*
X129465593Y-109651646D01*
X129465582Y-109651646D01*
X129257452Y-109665835D01*
X129257446Y-109665836D01*
X129253175Y-109666127D01*
X129248980Y-109666996D01*
X129248978Y-109666996D01*
X129119020Y-109693909D01*
X128971658Y-109724426D01*
X128700657Y-109820393D01*
X128445188Y-109952250D01*
X128441687Y-109954711D01*
X128441683Y-109954713D01*
X128327583Y-110034904D01*
X128209977Y-110117559D01*
X127999378Y-110313260D01*
X127817287Y-110535732D01*
X127667073Y-110780858D01*
X127665347Y-110784791D01*
X127665346Y-110784792D01*
X127633004Y-110858469D01*
X127551517Y-111044102D01*
X127550342Y-111048229D01*
X127550341Y-111048230D01*
X127543220Y-111073230D01*
X127472756Y-111320594D01*
X127432249Y-111605216D01*
X127432227Y-111609505D01*
X127432226Y-111609512D01*
X127430765Y-111888417D01*
X127430743Y-111892703D01*
X127431302Y-111896947D01*
X127431302Y-111896951D01*
X127436376Y-111935488D01*
X127468268Y-112177734D01*
X127544129Y-112455036D01*
X127545813Y-112458984D01*
X127626068Y-112647137D01*
X127656923Y-112719476D01*
X127727957Y-112838165D01*
X127728633Y-112839294D01*
X127746453Y-112908017D01*
X127724289Y-112975466D01*
X127669178Y-113020224D01*
X127620517Y-113030000D01*
X125856000Y-113030000D01*
X125787879Y-113009998D01*
X125741386Y-112956342D01*
X125730000Y-112904000D01*
X125730000Y-109220000D01*
X133306502Y-109220000D01*
X133326457Y-109448087D01*
X133385716Y-109669243D01*
X133388039Y-109674224D01*
X133388039Y-109674225D01*
X133480151Y-109871762D01*
X133480154Y-109871767D01*
X133482477Y-109876749D01*
X133613802Y-110064300D01*
X133775700Y-110226198D01*
X133780208Y-110229355D01*
X133780211Y-110229357D01*
X133858389Y-110284098D01*
X133963251Y-110357523D01*
X133968233Y-110359846D01*
X133968238Y-110359849D01*
X134165775Y-110451961D01*
X134170757Y-110454284D01*
X134176065Y-110455706D01*
X134176067Y-110455707D01*
X134386598Y-110512119D01*
X134386600Y-110512119D01*
X134391913Y-110513543D01*
X134620000Y-110533498D01*
X134848087Y-110513543D01*
X134853400Y-110512119D01*
X134853402Y-110512119D01*
X135063933Y-110455707D01*
X135063935Y-110455706D01*
X135069243Y-110454284D01*
X135074225Y-110451961D01*
X135271762Y-110359849D01*
X135271767Y-110359846D01*
X135276749Y-110357523D01*
X135381611Y-110284098D01*
X135459789Y-110229357D01*
X135459792Y-110229355D01*
X135464300Y-110226198D01*
X135626198Y-110064300D01*
X135757523Y-109876749D01*
X135759846Y-109871767D01*
X135759849Y-109871762D01*
X135851961Y-109674225D01*
X135851961Y-109674224D01*
X135854284Y-109669243D01*
X135913543Y-109448087D01*
X135933498Y-109220000D01*
X135913543Y-108991913D01*
X135854284Y-108770757D01*
X135851961Y-108765775D01*
X135759849Y-108568238D01*
X135759846Y-108568233D01*
X135757523Y-108563251D01*
X135626198Y-108375700D01*
X135464300Y-108213802D01*
X135459792Y-108210645D01*
X135459789Y-108210643D01*
X135381611Y-108155902D01*
X135276749Y-108082477D01*
X135271767Y-108080154D01*
X135271762Y-108080151D01*
X135237543Y-108064195D01*
X135184258Y-108017278D01*
X135164797Y-107949001D01*
X135185339Y-107881041D01*
X135237543Y-107835805D01*
X135271762Y-107819849D01*
X135271767Y-107819846D01*
X135276749Y-107817523D01*
X135381611Y-107744098D01*
X135459789Y-107689357D01*
X135459792Y-107689355D01*
X135464300Y-107686198D01*
X135626198Y-107524300D01*
X135757523Y-107336749D01*
X135759846Y-107331767D01*
X135759849Y-107331762D01*
X135851961Y-107134225D01*
X135851961Y-107134224D01*
X135854284Y-107129243D01*
X135913543Y-106908087D01*
X135933498Y-106680000D01*
X135913543Y-106451913D01*
X135854284Y-106230757D01*
X135851961Y-106225775D01*
X135759849Y-106028238D01*
X135759846Y-106028233D01*
X135757523Y-106023251D01*
X135626198Y-105835700D01*
X135464300Y-105673802D01*
X135459792Y-105670645D01*
X135459789Y-105670643D01*
X135381611Y-105615902D01*
X135276749Y-105542477D01*
X135271767Y-105540154D01*
X135271762Y-105540151D01*
X135237543Y-105524195D01*
X135184258Y-105477278D01*
X135164797Y-105409001D01*
X135185339Y-105341041D01*
X135237543Y-105295805D01*
X135271762Y-105279849D01*
X135271767Y-105279846D01*
X135276749Y-105277523D01*
X135410069Y-105184171D01*
X135459789Y-105149357D01*
X135459792Y-105149355D01*
X135464300Y-105146198D01*
X135626198Y-104984300D01*
X135650923Y-104948990D01*
X135725784Y-104842077D01*
X135757523Y-104796749D01*
X135759846Y-104791767D01*
X135759849Y-104791762D01*
X135851961Y-104594225D01*
X135851961Y-104594224D01*
X135854284Y-104589243D01*
X135898846Y-104422939D01*
X135912119Y-104373402D01*
X135912119Y-104373400D01*
X135913543Y-104368087D01*
X135933498Y-104140000D01*
X135913543Y-103911913D01*
X135912119Y-103906598D01*
X135855707Y-103696067D01*
X135855706Y-103696065D01*
X135854284Y-103690757D01*
X135844281Y-103669305D01*
X135759849Y-103488238D01*
X135759846Y-103488233D01*
X135757523Y-103483251D01*
X135638260Y-103312926D01*
X135629357Y-103300211D01*
X135629355Y-103300208D01*
X135626198Y-103295700D01*
X135464300Y-103133802D01*
X135459792Y-103130645D01*
X135459789Y-103130643D01*
X135324780Y-103036109D01*
X135276749Y-103002477D01*
X135271767Y-103000154D01*
X135271762Y-103000151D01*
X135237543Y-102984195D01*
X135184258Y-102937278D01*
X135164797Y-102869001D01*
X135185339Y-102801041D01*
X135237543Y-102755805D01*
X135271762Y-102739849D01*
X135271767Y-102739846D01*
X135276749Y-102737523D01*
X135381611Y-102664098D01*
X135459789Y-102609357D01*
X135459792Y-102609355D01*
X135464300Y-102606198D01*
X135626198Y-102444300D01*
X135661557Y-102393803D01*
X135684098Y-102361611D01*
X135757523Y-102256749D01*
X135759846Y-102251767D01*
X135759849Y-102251762D01*
X135851961Y-102054225D01*
X135851961Y-102054224D01*
X135854284Y-102049243D01*
X135875841Y-101968794D01*
X135912119Y-101833402D01*
X135912119Y-101833400D01*
X135913543Y-101828087D01*
X135933498Y-101600000D01*
X137516496Y-101600000D01*
X137536458Y-101789928D01*
X137595473Y-101971556D01*
X137598776Y-101977278D01*
X137598777Y-101977279D01*
X137616803Y-102008500D01*
X137690960Y-102136944D01*
X137818747Y-102278866D01*
X137973248Y-102391118D01*
X137979276Y-102393802D01*
X137979278Y-102393803D01*
X138082565Y-102439789D01*
X138147712Y-102468794D01*
X138241113Y-102488647D01*
X138328056Y-102507128D01*
X138328061Y-102507128D01*
X138334513Y-102508500D01*
X138525487Y-102508500D01*
X138531939Y-102507128D01*
X138531944Y-102507128D01*
X138618888Y-102488647D01*
X138712288Y-102468794D01*
X138777435Y-102439789D01*
X138880722Y-102393803D01*
X138880724Y-102393802D01*
X138886752Y-102391118D01*
X139041253Y-102278866D01*
X139169040Y-102136944D01*
X139243197Y-102008500D01*
X139261223Y-101977279D01*
X139261224Y-101977278D01*
X139264527Y-101971556D01*
X139323542Y-101789928D01*
X139340907Y-101624706D01*
X139367920Y-101559050D01*
X139377122Y-101548782D01*
X142632247Y-98293657D01*
X142640537Y-98286113D01*
X142647018Y-98282000D01*
X142693659Y-98232332D01*
X142696413Y-98229491D01*
X142716135Y-98209769D01*
X142718612Y-98206576D01*
X142726317Y-98197555D01*
X142751159Y-98171100D01*
X142756586Y-98165321D01*
X142760407Y-98158371D01*
X142766346Y-98147568D01*
X142777202Y-98131041D01*
X142784757Y-98121302D01*
X142784758Y-98121300D01*
X142789614Y-98115040D01*
X142807174Y-98074460D01*
X142812391Y-98063812D01*
X142829875Y-98032009D01*
X142829876Y-98032007D01*
X142833695Y-98025060D01*
X142838733Y-98005437D01*
X142845137Y-97986734D01*
X142850033Y-97975420D01*
X142850033Y-97975419D01*
X142853181Y-97968145D01*
X142854420Y-97960322D01*
X142854423Y-97960312D01*
X142860099Y-97924476D01*
X142862505Y-97912856D01*
X142871528Y-97877711D01*
X142871528Y-97877710D01*
X142873500Y-97870030D01*
X142873500Y-97849776D01*
X142875051Y-97830065D01*
X142875052Y-97830062D01*
X142878220Y-97810057D01*
X142874059Y-97766038D01*
X142873500Y-97754181D01*
X142873500Y-91200000D01*
X146886496Y-91200000D01*
X146906458Y-91389928D01*
X146965473Y-91571556D01*
X147060960Y-91736944D01*
X147188747Y-91878866D01*
X147343248Y-91991118D01*
X147349276Y-91993802D01*
X147349278Y-91993803D01*
X147511681Y-92066109D01*
X147517712Y-92068794D01*
X147611112Y-92088647D01*
X147698056Y-92107128D01*
X147698061Y-92107128D01*
X147704513Y-92108500D01*
X147895487Y-92108500D01*
X147901939Y-92107128D01*
X147901944Y-92107128D01*
X147988888Y-92088647D01*
X148082288Y-92068794D01*
X148088319Y-92066109D01*
X148250722Y-91993803D01*
X148250724Y-91993802D01*
X148256752Y-91991118D01*
X148411253Y-91878866D01*
X148421978Y-91866955D01*
X148482422Y-91829717D01*
X148553406Y-91831069D01*
X148612390Y-91870583D01*
X148629807Y-91898017D01*
X148720151Y-92091762D01*
X148720154Y-92091767D01*
X148722477Y-92096749D01*
X148853802Y-92284300D01*
X149015700Y-92446198D01*
X149020208Y-92449355D01*
X149020211Y-92449357D01*
X149098389Y-92504098D01*
X149203251Y-92577523D01*
X149208233Y-92579846D01*
X149208238Y-92579849D01*
X149242457Y-92595805D01*
X149295742Y-92642722D01*
X149315203Y-92710999D01*
X149294661Y-92778959D01*
X149242457Y-92824195D01*
X149208238Y-92840151D01*
X149208233Y-92840154D01*
X149203251Y-92842477D01*
X149098389Y-92915902D01*
X149020211Y-92970643D01*
X149020208Y-92970645D01*
X149015700Y-92973802D01*
X148853802Y-93135700D01*
X148722477Y-93323251D01*
X148720154Y-93328233D01*
X148720151Y-93328238D01*
X148628039Y-93525775D01*
X148625716Y-93530757D01*
X148624294Y-93536065D01*
X148624293Y-93536067D01*
X148577987Y-93708882D01*
X148566457Y-93751913D01*
X148546502Y-93980000D01*
X148566457Y-94208087D01*
X148567881Y-94213400D01*
X148567881Y-94213402D01*
X148595543Y-94316635D01*
X148625716Y-94429243D01*
X148628039Y-94434224D01*
X148628039Y-94434225D01*
X148720151Y-94631762D01*
X148720154Y-94631767D01*
X148722477Y-94636749D01*
X148765910Y-94698777D01*
X148839518Y-94803900D01*
X148853802Y-94824300D01*
X149015700Y-94986198D01*
X149020208Y-94989355D01*
X149020211Y-94989357D01*
X149045201Y-95006855D01*
X149203251Y-95117523D01*
X149208233Y-95119846D01*
X149208238Y-95119849D01*
X149242457Y-95135805D01*
X149295742Y-95182722D01*
X149315203Y-95250999D01*
X149294661Y-95318959D01*
X149242457Y-95364195D01*
X149208238Y-95380151D01*
X149208233Y-95380154D01*
X149203251Y-95382477D01*
X149163232Y-95410499D01*
X149020211Y-95510643D01*
X149020208Y-95510645D01*
X149015700Y-95513802D01*
X148853802Y-95675700D01*
X148850645Y-95680208D01*
X148850643Y-95680211D01*
X148817863Y-95727026D01*
X148722477Y-95863251D01*
X148720154Y-95868233D01*
X148720151Y-95868238D01*
X148628039Y-96065775D01*
X148625716Y-96070757D01*
X148566457Y-96291913D01*
X148546502Y-96520000D01*
X148566457Y-96748087D01*
X148567881Y-96753400D01*
X148567881Y-96753402D01*
X148577031Y-96787548D01*
X148625716Y-96969243D01*
X148628039Y-96974224D01*
X148628039Y-96974225D01*
X148720151Y-97171762D01*
X148720154Y-97171767D01*
X148722477Y-97176749D01*
X148754882Y-97223028D01*
X148829078Y-97328990D01*
X148853802Y-97364300D01*
X149015700Y-97526198D01*
X149020208Y-97529355D01*
X149020211Y-97529357D01*
X149069931Y-97564171D01*
X149203251Y-97657523D01*
X149208233Y-97659846D01*
X149208238Y-97659849D01*
X149242457Y-97675805D01*
X149295742Y-97722722D01*
X149315203Y-97790999D01*
X149294661Y-97858959D01*
X149242457Y-97904195D01*
X149208238Y-97920151D01*
X149208233Y-97920154D01*
X149203251Y-97922477D01*
X149138031Y-97968145D01*
X149020211Y-98050643D01*
X149020208Y-98050645D01*
X149015700Y-98053802D01*
X148853802Y-98215700D01*
X148850645Y-98220208D01*
X148850643Y-98220211D01*
X148811423Y-98276223D01*
X148722477Y-98403251D01*
X148720154Y-98408233D01*
X148720151Y-98408238D01*
X148633793Y-98593435D01*
X148625716Y-98610757D01*
X148624294Y-98616065D01*
X148624293Y-98616067D01*
X148567881Y-98826598D01*
X148566457Y-98831913D01*
X148546502Y-99060000D01*
X148566457Y-99288087D01*
X148567881Y-99293400D01*
X148567881Y-99293402D01*
X148614878Y-99468794D01*
X148625716Y-99509243D01*
X148628039Y-99514224D01*
X148628039Y-99514225D01*
X148720151Y-99711762D01*
X148720154Y-99711767D01*
X148722477Y-99716749D01*
X148853802Y-99904300D01*
X149015700Y-100066198D01*
X149020208Y-100069355D01*
X149020211Y-100069357D01*
X149098389Y-100124098D01*
X149203251Y-100197523D01*
X149208233Y-100199846D01*
X149208238Y-100199849D01*
X149242457Y-100215805D01*
X149295742Y-100262722D01*
X149315203Y-100330999D01*
X149294661Y-100398959D01*
X149242457Y-100444195D01*
X149208238Y-100460151D01*
X149208233Y-100460154D01*
X149203251Y-100462477D01*
X149175674Y-100481787D01*
X149020211Y-100590643D01*
X149020208Y-100590645D01*
X149015700Y-100593802D01*
X148853802Y-100755700D01*
X148850645Y-100760208D01*
X148850643Y-100760211D01*
X148816563Y-100808882D01*
X148722477Y-100943251D01*
X148720154Y-100948233D01*
X148720151Y-100948238D01*
X148649384Y-101100000D01*
X148625716Y-101150757D01*
X148624294Y-101156065D01*
X148624293Y-101156067D01*
X148588425Y-101289928D01*
X148566457Y-101371913D01*
X148546502Y-101600000D01*
X148566457Y-101828087D01*
X148567881Y-101833400D01*
X148567881Y-101833402D01*
X148604160Y-101968794D01*
X148625716Y-102049243D01*
X148628039Y-102054224D01*
X148628039Y-102054225D01*
X148720151Y-102251762D01*
X148720154Y-102251767D01*
X148722477Y-102256749D01*
X148795902Y-102361611D01*
X148818444Y-102393803D01*
X148853802Y-102444300D01*
X149015700Y-102606198D01*
X149020208Y-102609355D01*
X149020211Y-102609357D01*
X149098389Y-102664098D01*
X149203251Y-102737523D01*
X149208233Y-102739846D01*
X149208238Y-102739849D01*
X149242457Y-102755805D01*
X149295742Y-102802722D01*
X149315203Y-102870999D01*
X149294661Y-102938959D01*
X149242457Y-102984195D01*
X149208238Y-103000151D01*
X149208233Y-103000154D01*
X149203251Y-103002477D01*
X149155220Y-103036109D01*
X149020211Y-103130643D01*
X149020208Y-103130645D01*
X149015700Y-103133802D01*
X148853802Y-103295700D01*
X148850645Y-103300208D01*
X148850643Y-103300211D01*
X148841740Y-103312926D01*
X148722477Y-103483251D01*
X148720154Y-103488233D01*
X148720151Y-103488238D01*
X148635719Y-103669305D01*
X148625716Y-103690757D01*
X148624294Y-103696065D01*
X148624293Y-103696067D01*
X148567881Y-103906598D01*
X148566457Y-103911913D01*
X148546502Y-104140000D01*
X148566457Y-104368087D01*
X148567881Y-104373400D01*
X148567881Y-104373402D01*
X148581155Y-104422939D01*
X148625716Y-104589243D01*
X148628039Y-104594224D01*
X148628039Y-104594225D01*
X148720151Y-104791762D01*
X148720154Y-104791767D01*
X148722477Y-104796749D01*
X148754216Y-104842077D01*
X148829078Y-104948990D01*
X148853802Y-104984300D01*
X149015700Y-105146198D01*
X149020208Y-105149355D01*
X149020211Y-105149357D01*
X149069931Y-105184171D01*
X149203251Y-105277523D01*
X149208233Y-105279846D01*
X149208238Y-105279849D01*
X149242457Y-105295805D01*
X149295742Y-105342722D01*
X149315203Y-105410999D01*
X149294661Y-105478959D01*
X149242457Y-105524195D01*
X149208238Y-105540151D01*
X149208233Y-105540154D01*
X149203251Y-105542477D01*
X149098389Y-105615902D01*
X149020211Y-105670643D01*
X149020208Y-105670645D01*
X149015700Y-105673802D01*
X148853802Y-105835700D01*
X148722477Y-106023251D01*
X148720154Y-106028233D01*
X148720151Y-106028238D01*
X148628039Y-106225775D01*
X148625716Y-106230757D01*
X148566457Y-106451913D01*
X148546502Y-106680000D01*
X148566457Y-106908087D01*
X148625716Y-107129243D01*
X148628039Y-107134224D01*
X148628039Y-107134225D01*
X148720151Y-107331762D01*
X148720154Y-107331767D01*
X148722477Y-107336749D01*
X148853802Y-107524300D01*
X149015700Y-107686198D01*
X149020208Y-107689355D01*
X149020211Y-107689357D01*
X149098389Y-107744098D01*
X149203251Y-107817523D01*
X149208233Y-107819846D01*
X149208238Y-107819849D01*
X149242457Y-107835805D01*
X149295742Y-107882722D01*
X149315203Y-107950999D01*
X149294661Y-108018959D01*
X149242457Y-108064195D01*
X149208238Y-108080151D01*
X149208233Y-108080154D01*
X149203251Y-108082477D01*
X149098389Y-108155902D01*
X149020211Y-108210643D01*
X149020208Y-108210645D01*
X149015700Y-108213802D01*
X148853802Y-108375700D01*
X148722477Y-108563251D01*
X148720154Y-108568233D01*
X148720151Y-108568238D01*
X148628039Y-108765775D01*
X148625716Y-108770757D01*
X148566457Y-108991913D01*
X148546502Y-109220000D01*
X148566457Y-109448087D01*
X148625716Y-109669243D01*
X148628039Y-109674224D01*
X148628039Y-109674225D01*
X148720151Y-109871762D01*
X148720154Y-109871767D01*
X148722477Y-109876749D01*
X148853802Y-110064300D01*
X149015700Y-110226198D01*
X149020208Y-110229355D01*
X149020211Y-110229357D01*
X149098389Y-110284098D01*
X149203251Y-110357523D01*
X149208233Y-110359846D01*
X149208238Y-110359849D01*
X149405775Y-110451961D01*
X149410757Y-110454284D01*
X149416065Y-110455706D01*
X149416067Y-110455707D01*
X149626598Y-110512119D01*
X149626600Y-110512119D01*
X149631913Y-110513543D01*
X149860000Y-110533498D01*
X150088087Y-110513543D01*
X150093400Y-110512119D01*
X150093402Y-110512119D01*
X150303933Y-110455707D01*
X150303935Y-110455706D01*
X150309243Y-110454284D01*
X150314225Y-110451961D01*
X150511762Y-110359849D01*
X150511767Y-110359846D01*
X150516749Y-110357523D01*
X150621611Y-110284098D01*
X150699789Y-110229357D01*
X150699792Y-110229355D01*
X150704300Y-110226198D01*
X150866198Y-110064300D01*
X150997523Y-109876749D01*
X150999846Y-109871767D01*
X150999849Y-109871762D01*
X151091961Y-109674225D01*
X151091961Y-109674224D01*
X151094284Y-109669243D01*
X151153543Y-109448087D01*
X151173498Y-109220000D01*
X151153543Y-108991913D01*
X151094284Y-108770757D01*
X151091961Y-108765775D01*
X150999849Y-108568238D01*
X150999846Y-108568233D01*
X150997523Y-108563251D01*
X150866198Y-108375700D01*
X150704300Y-108213802D01*
X150699792Y-108210645D01*
X150699789Y-108210643D01*
X150621611Y-108155902D01*
X150516749Y-108082477D01*
X150511767Y-108080154D01*
X150511762Y-108080151D01*
X150477543Y-108064195D01*
X150424258Y-108017278D01*
X150404797Y-107949001D01*
X150425339Y-107881041D01*
X150477543Y-107835805D01*
X150511762Y-107819849D01*
X150511767Y-107819846D01*
X150516749Y-107817523D01*
X150621611Y-107744098D01*
X150699789Y-107689357D01*
X150699792Y-107689355D01*
X150704300Y-107686198D01*
X150866198Y-107524300D01*
X150997523Y-107336749D01*
X150999846Y-107331767D01*
X150999849Y-107331762D01*
X151091961Y-107134225D01*
X151091961Y-107134224D01*
X151094284Y-107129243D01*
X151153543Y-106908087D01*
X151173498Y-106680000D01*
X151153543Y-106451913D01*
X151094284Y-106230757D01*
X151091961Y-106225775D01*
X150999849Y-106028238D01*
X150999846Y-106028233D01*
X150997523Y-106023251D01*
X150866198Y-105835700D01*
X150704300Y-105673802D01*
X150699792Y-105670645D01*
X150699789Y-105670643D01*
X150621611Y-105615902D01*
X150516749Y-105542477D01*
X150511767Y-105540154D01*
X150511762Y-105540151D01*
X150477543Y-105524195D01*
X150424258Y-105477278D01*
X150404797Y-105409001D01*
X150425339Y-105341041D01*
X150477543Y-105295805D01*
X150511762Y-105279849D01*
X150511767Y-105279846D01*
X150516749Y-105277523D01*
X150650069Y-105184171D01*
X150699789Y-105149357D01*
X150699792Y-105149355D01*
X150704300Y-105146198D01*
X150812364Y-105038134D01*
X157401500Y-105038134D01*
X157408255Y-105100316D01*
X157459385Y-105236705D01*
X157546739Y-105353261D01*
X157663295Y-105440615D01*
X157799684Y-105491745D01*
X157861866Y-105498500D01*
X159658134Y-105498500D01*
X159720316Y-105491745D01*
X159856705Y-105440615D01*
X159973261Y-105353261D01*
X160060615Y-105236705D01*
X160082945Y-105177139D01*
X160104798Y-105118848D01*
X160147440Y-105062084D01*
X160214001Y-105037384D01*
X160283350Y-105052592D01*
X160318017Y-105080580D01*
X160343218Y-105109673D01*
X160350580Y-105116883D01*
X160514434Y-105252916D01*
X160522881Y-105258831D01*
X160706756Y-105366279D01*
X160716042Y-105370729D01*
X160915001Y-105446703D01*
X160924899Y-105449579D01*
X161028250Y-105470606D01*
X161042299Y-105469410D01*
X161046000Y-105459065D01*
X161046000Y-105458517D01*
X161554000Y-105458517D01*
X161558064Y-105472359D01*
X161571478Y-105474393D01*
X161578184Y-105473534D01*
X161588262Y-105471392D01*
X161792255Y-105410191D01*
X161801842Y-105406433D01*
X161993095Y-105312739D01*
X162001945Y-105307464D01*
X162175328Y-105183792D01*
X162183200Y-105177139D01*
X162334052Y-105026812D01*
X162340730Y-105018965D01*
X162468022Y-104841819D01*
X162469279Y-104842722D01*
X162516373Y-104799362D01*
X162586311Y-104787145D01*
X162651751Y-104814678D01*
X162679579Y-104846511D01*
X162739987Y-104945088D01*
X162886250Y-105113938D01*
X163058126Y-105256632D01*
X163251000Y-105369338D01*
X163459692Y-105449030D01*
X163464760Y-105450061D01*
X163464763Y-105450062D01*
X163559862Y-105469410D01*
X163678597Y-105493567D01*
X163683772Y-105493757D01*
X163683774Y-105493757D01*
X163896673Y-105501564D01*
X163896677Y-105501564D01*
X163901837Y-105501753D01*
X163906957Y-105501097D01*
X163906959Y-105501097D01*
X164118288Y-105474025D01*
X164118289Y-105474025D01*
X164123416Y-105473368D01*
X164128366Y-105471883D01*
X164332429Y-105410661D01*
X164332434Y-105410659D01*
X164337384Y-105409174D01*
X164537994Y-105310896D01*
X164719860Y-105181173D01*
X164751788Y-105149357D01*
X164864152Y-105037384D01*
X164878096Y-105023489D01*
X164909498Y-104979789D01*
X165008453Y-104842077D01*
X165009776Y-104843028D01*
X165056645Y-104799857D01*
X165126580Y-104787625D01*
X165192026Y-104815144D01*
X165219875Y-104846994D01*
X165279987Y-104945088D01*
X165426250Y-105113938D01*
X165598126Y-105256632D01*
X165791000Y-105369338D01*
X165999692Y-105449030D01*
X166004760Y-105450061D01*
X166004763Y-105450062D01*
X166099862Y-105469410D01*
X166218597Y-105493567D01*
X166223772Y-105493757D01*
X166223774Y-105493757D01*
X166436673Y-105501564D01*
X166436677Y-105501564D01*
X166441837Y-105501753D01*
X166446957Y-105501097D01*
X166446959Y-105501097D01*
X166658288Y-105474025D01*
X166658289Y-105474025D01*
X166663416Y-105473368D01*
X166668366Y-105471883D01*
X166872429Y-105410661D01*
X166872434Y-105410659D01*
X166877384Y-105409174D01*
X167077994Y-105310896D01*
X167259860Y-105181173D01*
X167291788Y-105149357D01*
X167404152Y-105037384D01*
X167418096Y-105023489D01*
X167449498Y-104979789D01*
X167545435Y-104846277D01*
X167548453Y-104842077D01*
X167561995Y-104814678D01*
X167645136Y-104646453D01*
X167645137Y-104646451D01*
X167647430Y-104641811D01*
X167712370Y-104428069D01*
X167741529Y-104206590D01*
X167743156Y-104140000D01*
X167724852Y-103917361D01*
X167670431Y-103700702D01*
X167581354Y-103495840D01*
X167460014Y-103308277D01*
X167309670Y-103143051D01*
X167305619Y-103139852D01*
X167305615Y-103139848D01*
X167138414Y-103007800D01*
X167138410Y-103007798D01*
X167134359Y-103004598D01*
X167126304Y-103000151D01*
X167082136Y-102975769D01*
X166938789Y-102896638D01*
X166933920Y-102894914D01*
X166933916Y-102894912D01*
X166733087Y-102823795D01*
X166733083Y-102823794D01*
X166728212Y-102822069D01*
X166723119Y-102821162D01*
X166723116Y-102821161D01*
X166513373Y-102783800D01*
X166513367Y-102783799D01*
X166508284Y-102782894D01*
X166434452Y-102781992D01*
X166290081Y-102780228D01*
X166290079Y-102780228D01*
X166284911Y-102780165D01*
X166064091Y-102813955D01*
X165851756Y-102883357D01*
X165653607Y-102986507D01*
X165649474Y-102989610D01*
X165649471Y-102989612D01*
X165479100Y-103117530D01*
X165474965Y-103120635D01*
X165320629Y-103282138D01*
X165213201Y-103439621D01*
X165158293Y-103484621D01*
X165087768Y-103492792D01*
X165024021Y-103461538D01*
X165003324Y-103437054D01*
X164922822Y-103312617D01*
X164922820Y-103312614D01*
X164920014Y-103308277D01*
X164769670Y-103143051D01*
X164765619Y-103139852D01*
X164765615Y-103139848D01*
X164598414Y-103007800D01*
X164598410Y-103007798D01*
X164594359Y-103004598D01*
X164586304Y-103000151D01*
X164542136Y-102975769D01*
X164398789Y-102896638D01*
X164393920Y-102894914D01*
X164393916Y-102894912D01*
X164193087Y-102823795D01*
X164193083Y-102823794D01*
X164188212Y-102822069D01*
X164183119Y-102821162D01*
X164183116Y-102821161D01*
X163973373Y-102783800D01*
X163973367Y-102783799D01*
X163968284Y-102782894D01*
X163894452Y-102781992D01*
X163750081Y-102780228D01*
X163750079Y-102780228D01*
X163744911Y-102780165D01*
X163524091Y-102813955D01*
X163311756Y-102883357D01*
X163113607Y-102986507D01*
X163109474Y-102989610D01*
X163109471Y-102989612D01*
X162939100Y-103117530D01*
X162934965Y-103120635D01*
X162780629Y-103282138D01*
X162777720Y-103286403D01*
X162777714Y-103286411D01*
X162768300Y-103300211D01*
X162673204Y-103439618D01*
X162672898Y-103440066D01*
X162617987Y-103485069D01*
X162547462Y-103493240D01*
X162483715Y-103461986D01*
X162463018Y-103437502D01*
X162382426Y-103312926D01*
X162376136Y-103304757D01*
X162232806Y-103147240D01*
X162225273Y-103140215D01*
X162058139Y-103008222D01*
X162049552Y-103002517D01*
X161863117Y-102899599D01*
X161853705Y-102895369D01*
X161652959Y-102824280D01*
X161642988Y-102821646D01*
X161571837Y-102808972D01*
X161558540Y-102810432D01*
X161554000Y-102824989D01*
X161554000Y-105458517D01*
X161046000Y-105458517D01*
X161046000Y-102823102D01*
X161042082Y-102809758D01*
X161027806Y-102807771D01*
X160989324Y-102813660D01*
X160979288Y-102816051D01*
X160776868Y-102882212D01*
X160767359Y-102886209D01*
X160578463Y-102984542D01*
X160569738Y-102990036D01*
X160399433Y-103117905D01*
X160391726Y-103124748D01*
X160314478Y-103205584D01*
X160252954Y-103241014D01*
X160182042Y-103237557D01*
X160124255Y-103196311D01*
X160105402Y-103162763D01*
X160063767Y-103051703D01*
X160060615Y-103043295D01*
X159973261Y-102926739D01*
X159856705Y-102839385D01*
X159720316Y-102788255D01*
X159658134Y-102781500D01*
X157861866Y-102781500D01*
X157799684Y-102788255D01*
X157663295Y-102839385D01*
X157546739Y-102926739D01*
X157459385Y-103043295D01*
X157408255Y-103179684D01*
X157401500Y-103241866D01*
X157401500Y-105038134D01*
X150812364Y-105038134D01*
X150866198Y-104984300D01*
X150890923Y-104948990D01*
X150965784Y-104842077D01*
X150997523Y-104796749D01*
X150999846Y-104791767D01*
X150999849Y-104791762D01*
X151091961Y-104594225D01*
X151091961Y-104594224D01*
X151094284Y-104589243D01*
X151138846Y-104422939D01*
X151152119Y-104373402D01*
X151152119Y-104373400D01*
X151153543Y-104368087D01*
X151173498Y-104140000D01*
X151153543Y-103911913D01*
X151152119Y-103906598D01*
X151095707Y-103696067D01*
X151095706Y-103696065D01*
X151094284Y-103690757D01*
X151084281Y-103669305D01*
X150999849Y-103488238D01*
X150999846Y-103488233D01*
X150997523Y-103483251D01*
X150878260Y-103312926D01*
X150869357Y-103300211D01*
X150869355Y-103300208D01*
X150866198Y-103295700D01*
X150704300Y-103133802D01*
X150699792Y-103130645D01*
X150699789Y-103130643D01*
X150564780Y-103036109D01*
X150516749Y-103002477D01*
X150511767Y-103000154D01*
X150511762Y-103000151D01*
X150477543Y-102984195D01*
X150424258Y-102937278D01*
X150404797Y-102869001D01*
X150425339Y-102801041D01*
X150477543Y-102755805D01*
X150511762Y-102739849D01*
X150511767Y-102739846D01*
X150516749Y-102737523D01*
X150621611Y-102664098D01*
X150699789Y-102609357D01*
X150699792Y-102609355D01*
X150704300Y-102606198D01*
X150866198Y-102444300D01*
X150901557Y-102393803D01*
X150924098Y-102361611D01*
X150997523Y-102256749D01*
X150999846Y-102251767D01*
X150999849Y-102251762D01*
X151091961Y-102054225D01*
X151091961Y-102054224D01*
X151094284Y-102049243D01*
X151115841Y-101968794D01*
X151152119Y-101833402D01*
X151152119Y-101833400D01*
X151153543Y-101828087D01*
X151173498Y-101600000D01*
X151153543Y-101371913D01*
X151131575Y-101289928D01*
X151095707Y-101156067D01*
X151095706Y-101156065D01*
X151094284Y-101150757D01*
X151070616Y-101100000D01*
X151586496Y-101100000D01*
X151606458Y-101289928D01*
X151665473Y-101471556D01*
X151760960Y-101636944D01*
X151888747Y-101778866D01*
X152043248Y-101891118D01*
X152049276Y-101893802D01*
X152049278Y-101893803D01*
X152209799Y-101965271D01*
X152217712Y-101968794D01*
X152311113Y-101988647D01*
X152398056Y-102007128D01*
X152398061Y-102007128D01*
X152404513Y-102008500D01*
X152595487Y-102008500D01*
X152601939Y-102007128D01*
X152601944Y-102007128D01*
X152688887Y-101988647D01*
X152782288Y-101968794D01*
X152790201Y-101965271D01*
X152950722Y-101893803D01*
X152950724Y-101893802D01*
X152956752Y-101891118D01*
X153111253Y-101778866D01*
X153239040Y-101636944D01*
X153334527Y-101471556D01*
X153393542Y-101289928D01*
X153413504Y-101100000D01*
X153409105Y-101058148D01*
X153394232Y-100916635D01*
X153394232Y-100916633D01*
X153393542Y-100910072D01*
X153334527Y-100728444D01*
X153313990Y-100692872D01*
X153242341Y-100568774D01*
X153239040Y-100563056D01*
X153165863Y-100481785D01*
X153135147Y-100417779D01*
X153133500Y-100397476D01*
X153133500Y-97418134D01*
X156151500Y-97418134D01*
X156158255Y-97480316D01*
X156209385Y-97616705D01*
X156296739Y-97733261D01*
X156413295Y-97820615D01*
X156549684Y-97871745D01*
X156611866Y-97878500D01*
X158408134Y-97878500D01*
X158470316Y-97871745D01*
X158606705Y-97820615D01*
X158723261Y-97733261D01*
X158810615Y-97616705D01*
X158815346Y-97604086D01*
X158854598Y-97499382D01*
X158897240Y-97442618D01*
X158963802Y-97417918D01*
X159033150Y-97433126D01*
X159067817Y-97461114D01*
X159096250Y-97493938D01*
X159268126Y-97636632D01*
X159461000Y-97749338D01*
X159465825Y-97751180D01*
X159465826Y-97751181D01*
X159473952Y-97754284D01*
X159669692Y-97829030D01*
X159674760Y-97830061D01*
X159674763Y-97830062D01*
X159759599Y-97847322D01*
X159888597Y-97873567D01*
X159893772Y-97873757D01*
X159893774Y-97873757D01*
X160106673Y-97881564D01*
X160106677Y-97881564D01*
X160111837Y-97881753D01*
X160116957Y-97881097D01*
X160116959Y-97881097D01*
X160328288Y-97854025D01*
X160328289Y-97854025D01*
X160333416Y-97853368D01*
X160338366Y-97851883D01*
X160542429Y-97790661D01*
X160542434Y-97790659D01*
X160547384Y-97789174D01*
X160747994Y-97690896D01*
X160929860Y-97561173D01*
X160961788Y-97529357D01*
X161073616Y-97417918D01*
X161088096Y-97403489D01*
X161119498Y-97359789D01*
X161218453Y-97222077D01*
X161219776Y-97223028D01*
X161266645Y-97179857D01*
X161336580Y-97167625D01*
X161402026Y-97195144D01*
X161429875Y-97226994D01*
X161489987Y-97325088D01*
X161636250Y-97493938D01*
X161808126Y-97636632D01*
X162001000Y-97749338D01*
X162005825Y-97751180D01*
X162005826Y-97751181D01*
X162013952Y-97754284D01*
X162209692Y-97829030D01*
X162299608Y-97847324D01*
X162362371Y-97880504D01*
X162397233Y-97942352D01*
X162393124Y-98013229D01*
X162368123Y-98055101D01*
X162360960Y-98063056D01*
X162312167Y-98147568D01*
X162278099Y-98206576D01*
X162265473Y-98228444D01*
X162206458Y-98410072D01*
X162186496Y-98600000D01*
X162206458Y-98789928D01*
X162265473Y-98971556D01*
X162360960Y-99136944D01*
X162488747Y-99278866D01*
X162643248Y-99391118D01*
X162649276Y-99393802D01*
X162649278Y-99393803D01*
X162811681Y-99466109D01*
X162817712Y-99468794D01*
X162911112Y-99488647D01*
X162998056Y-99507128D01*
X162998061Y-99507128D01*
X163004513Y-99508500D01*
X163195487Y-99508500D01*
X163201939Y-99507128D01*
X163201944Y-99507128D01*
X163288888Y-99488647D01*
X163382288Y-99468794D01*
X163388319Y-99466109D01*
X163550722Y-99393803D01*
X163550724Y-99393802D01*
X163556752Y-99391118D01*
X163711253Y-99278866D01*
X163839040Y-99136944D01*
X163934527Y-98971556D01*
X163989387Y-98802714D01*
X164020125Y-98752556D01*
X164863635Y-97909046D01*
X164925947Y-97875020D01*
X164966267Y-97873093D01*
X164968597Y-97873567D01*
X165093062Y-97878131D01*
X165186673Y-97881564D01*
X165186677Y-97881564D01*
X165191837Y-97881753D01*
X165196957Y-97881097D01*
X165196959Y-97881097D01*
X165408288Y-97854025D01*
X165408289Y-97854025D01*
X165413416Y-97853368D01*
X165418366Y-97851883D01*
X165622429Y-97790661D01*
X165622434Y-97790659D01*
X165627384Y-97789174D01*
X165827994Y-97690896D01*
X166009860Y-97561173D01*
X166041788Y-97529357D01*
X166153616Y-97417918D01*
X166168096Y-97403489D01*
X166199498Y-97359789D01*
X166298453Y-97222077D01*
X166299640Y-97222930D01*
X166346960Y-97179362D01*
X166416897Y-97167145D01*
X166482338Y-97194678D01*
X166510166Y-97226511D01*
X166567694Y-97320388D01*
X166573777Y-97328699D01*
X166713213Y-97489667D01*
X166720580Y-97496883D01*
X166884434Y-97632916D01*
X166892881Y-97638831D01*
X167076756Y-97746279D01*
X167086042Y-97750729D01*
X167285001Y-97826703D01*
X167294899Y-97829579D01*
X167398250Y-97850606D01*
X167412299Y-97849410D01*
X167416000Y-97839065D01*
X167416000Y-97838517D01*
X167924000Y-97838517D01*
X167928064Y-97852359D01*
X167941478Y-97854393D01*
X167948184Y-97853534D01*
X167958262Y-97851392D01*
X168162255Y-97790191D01*
X168171842Y-97786433D01*
X168363095Y-97692739D01*
X168371945Y-97687464D01*
X168545328Y-97563792D01*
X168553200Y-97557139D01*
X168704052Y-97406812D01*
X168710730Y-97398965D01*
X168835003Y-97226020D01*
X168840313Y-97217183D01*
X168934670Y-97026267D01*
X168938469Y-97016672D01*
X169000377Y-96812910D01*
X169002555Y-96802837D01*
X169003986Y-96791962D01*
X169001775Y-96777778D01*
X168988617Y-96774000D01*
X167942115Y-96774000D01*
X167926876Y-96778475D01*
X167925671Y-96779865D01*
X167924000Y-96787548D01*
X167924000Y-97838517D01*
X167416000Y-97838517D01*
X167416000Y-96247885D01*
X167924000Y-96247885D01*
X167928475Y-96263124D01*
X167929865Y-96264329D01*
X167937548Y-96266000D01*
X168988344Y-96266000D01*
X169001875Y-96262027D01*
X169003180Y-96252947D01*
X168961214Y-96085875D01*
X168957894Y-96076124D01*
X168872972Y-95880814D01*
X168868105Y-95871739D01*
X168752426Y-95692926D01*
X168746136Y-95684757D01*
X168602806Y-95527240D01*
X168595273Y-95520215D01*
X168428139Y-95388222D01*
X168419552Y-95382517D01*
X168233117Y-95279599D01*
X168223705Y-95275369D01*
X168022959Y-95204280D01*
X168012988Y-95201646D01*
X167941837Y-95188972D01*
X167928540Y-95190432D01*
X167924000Y-95204989D01*
X167924000Y-96247885D01*
X167416000Y-96247885D01*
X167416000Y-95203102D01*
X167412082Y-95189758D01*
X167379574Y-95185234D01*
X167379788Y-95183693D01*
X167333200Y-95177425D01*
X167279125Y-95131421D01*
X167258500Y-95062341D01*
X167258500Y-95036999D01*
X167275381Y-94973999D01*
X167331223Y-94877279D01*
X167331224Y-94877278D01*
X167334527Y-94871556D01*
X167393542Y-94689928D01*
X167398658Y-94641257D01*
X167412814Y-94506565D01*
X167413504Y-94500000D01*
X167393542Y-94310072D01*
X167334527Y-94128444D01*
X167239040Y-93963056D01*
X167111253Y-93821134D01*
X166956752Y-93708882D01*
X166950724Y-93706198D01*
X166950722Y-93706197D01*
X166788319Y-93633891D01*
X166788318Y-93633891D01*
X166782288Y-93631206D01*
X166688887Y-93611353D01*
X166601944Y-93592872D01*
X166601939Y-93592872D01*
X166595487Y-93591500D01*
X166404513Y-93591500D01*
X166398061Y-93592872D01*
X166398056Y-93592872D01*
X166311113Y-93611353D01*
X166217712Y-93631206D01*
X166211682Y-93633891D01*
X166211681Y-93633891D01*
X166049278Y-93706197D01*
X166049276Y-93706198D01*
X166043248Y-93708882D01*
X165888747Y-93821134D01*
X165760960Y-93963056D01*
X165665473Y-94128444D01*
X165606458Y-94310072D01*
X165586496Y-94500000D01*
X165587186Y-94506565D01*
X165601343Y-94641257D01*
X165606458Y-94689928D01*
X165651494Y-94828534D01*
X165653522Y-94899499D01*
X165620756Y-94956563D01*
X165437296Y-95140023D01*
X165374984Y-95174049D01*
X165326105Y-95174975D01*
X165258284Y-95162894D01*
X165184452Y-95161992D01*
X165040081Y-95160228D01*
X165040079Y-95160228D01*
X165034911Y-95160165D01*
X164814091Y-95193955D01*
X164601756Y-95263357D01*
X164403607Y-95366507D01*
X164399474Y-95369610D01*
X164399471Y-95369612D01*
X164295862Y-95447404D01*
X164224965Y-95500635D01*
X164221393Y-95504373D01*
X164113729Y-95617037D01*
X164070629Y-95662138D01*
X163963201Y-95819621D01*
X163908293Y-95864621D01*
X163837768Y-95872792D01*
X163774021Y-95841538D01*
X163753324Y-95817054D01*
X163672822Y-95692617D01*
X163672820Y-95692614D01*
X163670014Y-95688277D01*
X163519670Y-95523051D01*
X163515619Y-95519852D01*
X163515615Y-95519848D01*
X163348414Y-95387800D01*
X163348410Y-95387798D01*
X163344359Y-95384598D01*
X163336304Y-95380151D01*
X163292136Y-95355769D01*
X163148789Y-95276638D01*
X163143920Y-95274914D01*
X163143916Y-95274912D01*
X162943087Y-95203795D01*
X162943083Y-95203794D01*
X162938212Y-95202069D01*
X162933119Y-95201162D01*
X162933116Y-95201161D01*
X162723373Y-95163800D01*
X162723367Y-95163799D01*
X162718284Y-95162894D01*
X162644452Y-95161992D01*
X162500081Y-95160228D01*
X162500079Y-95160228D01*
X162494911Y-95160165D01*
X162274091Y-95193955D01*
X162061756Y-95263357D01*
X161863607Y-95366507D01*
X161859474Y-95369610D01*
X161859471Y-95369612D01*
X161755862Y-95447404D01*
X161684965Y-95500635D01*
X161681393Y-95504373D01*
X161573729Y-95617037D01*
X161530629Y-95662138D01*
X161423201Y-95819621D01*
X161368293Y-95864621D01*
X161297768Y-95872792D01*
X161234021Y-95841538D01*
X161213324Y-95817054D01*
X161132822Y-95692617D01*
X161132820Y-95692614D01*
X161130014Y-95688277D01*
X160979670Y-95523051D01*
X160975619Y-95519852D01*
X160975615Y-95519848D01*
X160808414Y-95387800D01*
X160808410Y-95387798D01*
X160804359Y-95384598D01*
X160796304Y-95380151D01*
X160752136Y-95355769D01*
X160608789Y-95276638D01*
X160603920Y-95274914D01*
X160603916Y-95274912D01*
X160403087Y-95203795D01*
X160403083Y-95203794D01*
X160398212Y-95202069D01*
X160393119Y-95201162D01*
X160393116Y-95201161D01*
X160183373Y-95163800D01*
X160183367Y-95163799D01*
X160178284Y-95162894D01*
X160104452Y-95161992D01*
X159960081Y-95160228D01*
X159960079Y-95160228D01*
X159954911Y-95160165D01*
X159734091Y-95193955D01*
X159521756Y-95263357D01*
X159323607Y-95366507D01*
X159319474Y-95369610D01*
X159319471Y-95369612D01*
X159215862Y-95447404D01*
X159144965Y-95500635D01*
X159088537Y-95559684D01*
X159064283Y-95585064D01*
X159002759Y-95620494D01*
X158931846Y-95617037D01*
X158874060Y-95575791D01*
X158855207Y-95542243D01*
X158813767Y-95431703D01*
X158810615Y-95423295D01*
X158723261Y-95306739D01*
X158606705Y-95219385D01*
X158470316Y-95168255D01*
X158408134Y-95161500D01*
X156611866Y-95161500D01*
X156549684Y-95168255D01*
X156413295Y-95219385D01*
X156296739Y-95306739D01*
X156209385Y-95423295D01*
X156158255Y-95559684D01*
X156151500Y-95621866D01*
X156151500Y-97418134D01*
X153133500Y-97418134D01*
X153133500Y-95499594D01*
X153153502Y-95431473D01*
X153170405Y-95410499D01*
X158260500Y-90320405D01*
X158322812Y-90286379D01*
X158349595Y-90283500D01*
X159658134Y-90283500D01*
X159720316Y-90276745D01*
X159856705Y-90225615D01*
X159954436Y-90152370D01*
X160020941Y-90127522D01*
X160090324Y-90142575D01*
X160105562Y-90152368D01*
X160203295Y-90225615D01*
X160339684Y-90276745D01*
X160401866Y-90283500D01*
X162198134Y-90283500D01*
X162260316Y-90276745D01*
X162396705Y-90225615D01*
X162513261Y-90138261D01*
X162600615Y-90021705D01*
X162622799Y-89962529D01*
X162644598Y-89904382D01*
X162687240Y-89847618D01*
X162753802Y-89822918D01*
X162823150Y-89838126D01*
X162857817Y-89866114D01*
X162886250Y-89898938D01*
X163058126Y-90041632D01*
X163251000Y-90154338D01*
X163255825Y-90156180D01*
X163255826Y-90156181D01*
X163294631Y-90170999D01*
X163459692Y-90234030D01*
X163464760Y-90235061D01*
X163464763Y-90235062D01*
X163559862Y-90254410D01*
X163678597Y-90278567D01*
X163683772Y-90278757D01*
X163683774Y-90278757D01*
X163896673Y-90286564D01*
X163896677Y-90286564D01*
X163901837Y-90286753D01*
X163906957Y-90286097D01*
X163906959Y-90286097D01*
X164118288Y-90259025D01*
X164118289Y-90259025D01*
X164123416Y-90258368D01*
X164128366Y-90256883D01*
X164332429Y-90195661D01*
X164332434Y-90195659D01*
X164337384Y-90194174D01*
X164537994Y-90095896D01*
X164719860Y-89966173D01*
X164878096Y-89808489D01*
X165008453Y-89627077D01*
X165009640Y-89627930D01*
X165056960Y-89584362D01*
X165126897Y-89572145D01*
X165192338Y-89599678D01*
X165220166Y-89631511D01*
X165277694Y-89725388D01*
X165283777Y-89733699D01*
X165423213Y-89894667D01*
X165430580Y-89901883D01*
X165594434Y-90037916D01*
X165602881Y-90043831D01*
X165786756Y-90151279D01*
X165796042Y-90155729D01*
X165995001Y-90231703D01*
X166004899Y-90234579D01*
X166108250Y-90255606D01*
X166122299Y-90254410D01*
X166126000Y-90244065D01*
X166126000Y-90243517D01*
X166634000Y-90243517D01*
X166638064Y-90257359D01*
X166651478Y-90259393D01*
X166658184Y-90258534D01*
X166668262Y-90256392D01*
X166872255Y-90195191D01*
X166881842Y-90191433D01*
X167073095Y-90097739D01*
X167081945Y-90092464D01*
X167255328Y-89968792D01*
X167263200Y-89962139D01*
X167414052Y-89811812D01*
X167420730Y-89803965D01*
X167545003Y-89631020D01*
X167550313Y-89622183D01*
X167644670Y-89431267D01*
X167648469Y-89421672D01*
X167710377Y-89217910D01*
X167712555Y-89207837D01*
X167713986Y-89196962D01*
X167711775Y-89182778D01*
X167698617Y-89179000D01*
X166652115Y-89179000D01*
X166636876Y-89183475D01*
X166635671Y-89184865D01*
X166634000Y-89192548D01*
X166634000Y-90243517D01*
X166126000Y-90243517D01*
X166126000Y-88652885D01*
X166634000Y-88652885D01*
X166638475Y-88668124D01*
X166639865Y-88669329D01*
X166647548Y-88671000D01*
X167698344Y-88671000D01*
X167711875Y-88667027D01*
X167713180Y-88657947D01*
X167671214Y-88490875D01*
X167667894Y-88481124D01*
X167582972Y-88285814D01*
X167578105Y-88276739D01*
X167462426Y-88097926D01*
X167456136Y-88089757D01*
X167312806Y-87932240D01*
X167305273Y-87925215D01*
X167138139Y-87793222D01*
X167129552Y-87787517D01*
X166943117Y-87684599D01*
X166933705Y-87680369D01*
X166732959Y-87609280D01*
X166722988Y-87606646D01*
X166651837Y-87593972D01*
X166638540Y-87595432D01*
X166634000Y-87609989D01*
X166634000Y-88652885D01*
X166126000Y-88652885D01*
X166126000Y-87593291D01*
X166142881Y-87530291D01*
X166231223Y-87377279D01*
X166231224Y-87377278D01*
X166234527Y-87371556D01*
X166293542Y-87189928D01*
X166313504Y-87000000D01*
X166304052Y-86910072D01*
X166294232Y-86816635D01*
X166294232Y-86816633D01*
X166293542Y-86810072D01*
X166234527Y-86628444D01*
X166214296Y-86593402D01*
X166196775Y-86563056D01*
X166139040Y-86463056D01*
X166011253Y-86321134D01*
X165856752Y-86208882D01*
X165850724Y-86206198D01*
X165850722Y-86206197D01*
X165688319Y-86133891D01*
X165688318Y-86133891D01*
X165682288Y-86131206D01*
X165588888Y-86111353D01*
X165501944Y-86092872D01*
X165501939Y-86092872D01*
X165495487Y-86091500D01*
X165304513Y-86091500D01*
X165298061Y-86092872D01*
X165298056Y-86092872D01*
X165211112Y-86111353D01*
X165117712Y-86131206D01*
X165111682Y-86133891D01*
X165111681Y-86133891D01*
X164949278Y-86206197D01*
X164949276Y-86206198D01*
X164943248Y-86208882D01*
X164794092Y-86317251D01*
X164793837Y-86317436D01*
X164726969Y-86341294D01*
X164719776Y-86341500D01*
X162942587Y-86341500D01*
X162868528Y-86317437D01*
X162862098Y-86312765D01*
X162862091Y-86312761D01*
X162856752Y-86308882D01*
X162850724Y-86306198D01*
X162850722Y-86306197D01*
X162688319Y-86233891D01*
X162688318Y-86233891D01*
X162682288Y-86231206D01*
X162588888Y-86211353D01*
X162501944Y-86192872D01*
X162501939Y-86192872D01*
X162495487Y-86191500D01*
X162304513Y-86191500D01*
X162298061Y-86192872D01*
X162298056Y-86192872D01*
X162211113Y-86211353D01*
X162117712Y-86231206D01*
X162111682Y-86233891D01*
X162111681Y-86233891D01*
X161949278Y-86306197D01*
X161949276Y-86306198D01*
X161943248Y-86308882D01*
X161937907Y-86312762D01*
X161937906Y-86312763D01*
X161919625Y-86326045D01*
X161788747Y-86421134D01*
X161660960Y-86563056D01*
X161565473Y-86728444D01*
X161506458Y-86910072D01*
X161486496Y-87100000D01*
X161487186Y-87106565D01*
X161496608Y-87196206D01*
X161506458Y-87289928D01*
X161508498Y-87296206D01*
X161542731Y-87401564D01*
X161544759Y-87472531D01*
X161508096Y-87533329D01*
X161444384Y-87564655D01*
X161422898Y-87566500D01*
X160401866Y-87566500D01*
X160339684Y-87573255D01*
X160203295Y-87624385D01*
X160105565Y-87697630D01*
X160039059Y-87722478D01*
X159969676Y-87707425D01*
X159954435Y-87697630D01*
X159856705Y-87624385D01*
X159720316Y-87573255D01*
X159658134Y-87566500D01*
X157861866Y-87566500D01*
X157799684Y-87573255D01*
X157663295Y-87624385D01*
X157546739Y-87711739D01*
X157459385Y-87828295D01*
X157408255Y-87964684D01*
X157401500Y-88026866D01*
X157401500Y-89335406D01*
X157381498Y-89403527D01*
X157364595Y-89424501D01*
X152107747Y-94681348D01*
X152099461Y-94688888D01*
X152092982Y-94693000D01*
X152087557Y-94698777D01*
X152046357Y-94742651D01*
X152043602Y-94745493D01*
X152023865Y-94765230D01*
X152021385Y-94768427D01*
X152013682Y-94777447D01*
X151983414Y-94809679D01*
X151979595Y-94816625D01*
X151979593Y-94816628D01*
X151973652Y-94827434D01*
X151962801Y-94843953D01*
X151950386Y-94859959D01*
X151947241Y-94867228D01*
X151947238Y-94867232D01*
X151932826Y-94900537D01*
X151927609Y-94911187D01*
X151906305Y-94949940D01*
X151904334Y-94957615D01*
X151904334Y-94957616D01*
X151901267Y-94969562D01*
X151894863Y-94988266D01*
X151886819Y-95006855D01*
X151885580Y-95014678D01*
X151885577Y-95014688D01*
X151879901Y-95050524D01*
X151877495Y-95062144D01*
X151868472Y-95097289D01*
X151866500Y-95104970D01*
X151866500Y-95125224D01*
X151864949Y-95144934D01*
X151861780Y-95164943D01*
X151865566Y-95204989D01*
X151865941Y-95208961D01*
X151866500Y-95220819D01*
X151866500Y-100397476D01*
X151846498Y-100465597D01*
X151834142Y-100481779D01*
X151760960Y-100563056D01*
X151757659Y-100568774D01*
X151686011Y-100692872D01*
X151665473Y-100728444D01*
X151606458Y-100910072D01*
X151605768Y-100916633D01*
X151605768Y-100916635D01*
X151590895Y-101058148D01*
X151586496Y-101100000D01*
X151070616Y-101100000D01*
X150999849Y-100948238D01*
X150999846Y-100948233D01*
X150997523Y-100943251D01*
X150903437Y-100808882D01*
X150869357Y-100760211D01*
X150869355Y-100760208D01*
X150866198Y-100755700D01*
X150704300Y-100593802D01*
X150699792Y-100590645D01*
X150699789Y-100590643D01*
X150544326Y-100481787D01*
X150516749Y-100462477D01*
X150511767Y-100460154D01*
X150511762Y-100460151D01*
X150477543Y-100444195D01*
X150424258Y-100397278D01*
X150404797Y-100329001D01*
X150425339Y-100261041D01*
X150477543Y-100215805D01*
X150511762Y-100199849D01*
X150511767Y-100199846D01*
X150516749Y-100197523D01*
X150621611Y-100124098D01*
X150699789Y-100069357D01*
X150699792Y-100069355D01*
X150704300Y-100066198D01*
X150866198Y-99904300D01*
X150997523Y-99716749D01*
X150999846Y-99711767D01*
X150999849Y-99711762D01*
X151091961Y-99514225D01*
X151091961Y-99514224D01*
X151094284Y-99509243D01*
X151105123Y-99468794D01*
X151152119Y-99293402D01*
X151152119Y-99293400D01*
X151153543Y-99288087D01*
X151173498Y-99060000D01*
X151153543Y-98831913D01*
X151152119Y-98826598D01*
X151095707Y-98616067D01*
X151095706Y-98616065D01*
X151094284Y-98610757D01*
X151086207Y-98593435D01*
X150999849Y-98408238D01*
X150999846Y-98408233D01*
X150997523Y-98403251D01*
X150908577Y-98276223D01*
X150869357Y-98220211D01*
X150869355Y-98220208D01*
X150866198Y-98215700D01*
X150704300Y-98053802D01*
X150699792Y-98050645D01*
X150699789Y-98050643D01*
X150581969Y-97968145D01*
X150516749Y-97922477D01*
X150511767Y-97920154D01*
X150511762Y-97920151D01*
X150477543Y-97904195D01*
X150424258Y-97857278D01*
X150404797Y-97789001D01*
X150425339Y-97721041D01*
X150477543Y-97675805D01*
X150511762Y-97659849D01*
X150511767Y-97659846D01*
X150516749Y-97657523D01*
X150650069Y-97564171D01*
X150699789Y-97529357D01*
X150699792Y-97529355D01*
X150704300Y-97526198D01*
X150866198Y-97364300D01*
X150890923Y-97328990D01*
X150965118Y-97223028D01*
X150997523Y-97176749D01*
X150999846Y-97171767D01*
X150999849Y-97171762D01*
X151091961Y-96974225D01*
X151091961Y-96974224D01*
X151094284Y-96969243D01*
X151142970Y-96787548D01*
X151152119Y-96753402D01*
X151152119Y-96753400D01*
X151153543Y-96748087D01*
X151173498Y-96520000D01*
X151153543Y-96291913D01*
X151094284Y-96070757D01*
X151091961Y-96065775D01*
X150999849Y-95868238D01*
X150999846Y-95868233D01*
X150997523Y-95863251D01*
X150902137Y-95727026D01*
X150869357Y-95680211D01*
X150869355Y-95680208D01*
X150866198Y-95675700D01*
X150704300Y-95513802D01*
X150699792Y-95510645D01*
X150699789Y-95510643D01*
X150556768Y-95410499D01*
X150516749Y-95382477D01*
X150511767Y-95380154D01*
X150511762Y-95380151D01*
X150477543Y-95364195D01*
X150424258Y-95317278D01*
X150404797Y-95249001D01*
X150425339Y-95181041D01*
X150477543Y-95135805D01*
X150511762Y-95119849D01*
X150511767Y-95119846D01*
X150516749Y-95117523D01*
X150674799Y-95006855D01*
X150699789Y-94989357D01*
X150699792Y-94989355D01*
X150704300Y-94986198D01*
X150866198Y-94824300D01*
X150880483Y-94803900D01*
X150954090Y-94698777D01*
X150997523Y-94636749D01*
X150999846Y-94631767D01*
X150999849Y-94631762D01*
X151091961Y-94434225D01*
X151091961Y-94434224D01*
X151094284Y-94429243D01*
X151124458Y-94316635D01*
X151152119Y-94213402D01*
X151152119Y-94213400D01*
X151153543Y-94208087D01*
X151173498Y-93980000D01*
X151153543Y-93751913D01*
X151142013Y-93708882D01*
X151095707Y-93536067D01*
X151095706Y-93536065D01*
X151094284Y-93530757D01*
X151091961Y-93525775D01*
X150999849Y-93328238D01*
X150999846Y-93328233D01*
X150997523Y-93323251D01*
X150866198Y-93135700D01*
X150704300Y-92973802D01*
X150699792Y-92970645D01*
X150699789Y-92970643D01*
X150621611Y-92915902D01*
X150516749Y-92842477D01*
X150511767Y-92840154D01*
X150511762Y-92840151D01*
X150477543Y-92824195D01*
X150424258Y-92777278D01*
X150404797Y-92709001D01*
X150425339Y-92641041D01*
X150477543Y-92595805D01*
X150511762Y-92579849D01*
X150511767Y-92579846D01*
X150516749Y-92577523D01*
X150621611Y-92504098D01*
X150699789Y-92449357D01*
X150699792Y-92449355D01*
X150704300Y-92446198D01*
X150866198Y-92284300D01*
X150997523Y-92096749D01*
X150999846Y-92091767D01*
X150999849Y-92091762D01*
X151091961Y-91894225D01*
X151091961Y-91894224D01*
X151094284Y-91889243D01*
X151098380Y-91873959D01*
X151152119Y-91673402D01*
X151152119Y-91673400D01*
X151153543Y-91668087D01*
X151173498Y-91440000D01*
X151153543Y-91211913D01*
X151101218Y-91016635D01*
X151095707Y-90996067D01*
X151095706Y-90996065D01*
X151094284Y-90990757D01*
X151091961Y-90985775D01*
X150999849Y-90788238D01*
X150999846Y-90788233D01*
X150997523Y-90783251D01*
X150866198Y-90595700D01*
X150704300Y-90433802D01*
X150699792Y-90430645D01*
X150699789Y-90430643D01*
X150551927Y-90327109D01*
X150516749Y-90302477D01*
X150511767Y-90300154D01*
X150511762Y-90300151D01*
X150477543Y-90284195D01*
X150424258Y-90237278D01*
X150404797Y-90169001D01*
X150425339Y-90101041D01*
X150477543Y-90055805D01*
X150511762Y-90039849D01*
X150511767Y-90039846D01*
X150516749Y-90037523D01*
X150624408Y-89962139D01*
X150699789Y-89909357D01*
X150699792Y-89909355D01*
X150704300Y-89906198D01*
X150866198Y-89744300D01*
X150876150Y-89730088D01*
X150965471Y-89602524D01*
X150997523Y-89556749D01*
X150999846Y-89551767D01*
X150999849Y-89551762D01*
X151091961Y-89354225D01*
X151091961Y-89354224D01*
X151094284Y-89349243D01*
X151116785Y-89265271D01*
X151152119Y-89133402D01*
X151152119Y-89133400D01*
X151153543Y-89128087D01*
X151173498Y-88900000D01*
X151153543Y-88671913D01*
X151149801Y-88657947D01*
X151095707Y-88456067D01*
X151095706Y-88456065D01*
X151094284Y-88450757D01*
X151051100Y-88358148D01*
X150999849Y-88248238D01*
X150999846Y-88248233D01*
X150997523Y-88243251D01*
X150903437Y-88108882D01*
X150869357Y-88060211D01*
X150869355Y-88060208D01*
X150866198Y-88055700D01*
X150704300Y-87893802D01*
X150699792Y-87890645D01*
X150699789Y-87890643D01*
X150557652Y-87791118D01*
X150516749Y-87762477D01*
X150511767Y-87760154D01*
X150511762Y-87760151D01*
X150477543Y-87744195D01*
X150424258Y-87697278D01*
X150404797Y-87629001D01*
X150425339Y-87561041D01*
X150477543Y-87515805D01*
X150511762Y-87499849D01*
X150511767Y-87499846D01*
X150516749Y-87497523D01*
X150696648Y-87371556D01*
X150699789Y-87369357D01*
X150699792Y-87369355D01*
X150704300Y-87366198D01*
X150866198Y-87204300D01*
X150871866Y-87196206D01*
X150994366Y-87021257D01*
X150997523Y-87016749D01*
X150999846Y-87011767D01*
X150999849Y-87011762D01*
X151091961Y-86814225D01*
X151091961Y-86814224D01*
X151094284Y-86809243D01*
X151153543Y-86588087D01*
X151173498Y-86360000D01*
X151153543Y-86131913D01*
X151094284Y-85910757D01*
X151091961Y-85905775D01*
X150999849Y-85708238D01*
X150999846Y-85708233D01*
X150997523Y-85703251D01*
X150866198Y-85515700D01*
X150704300Y-85353802D01*
X150699792Y-85350645D01*
X150699789Y-85350643D01*
X150621611Y-85295902D01*
X150516749Y-85222477D01*
X150511767Y-85220154D01*
X150511762Y-85220151D01*
X150477543Y-85204195D01*
X150424258Y-85157278D01*
X150404797Y-85089001D01*
X150425339Y-85021041D01*
X150477543Y-84975805D01*
X150511762Y-84959849D01*
X150511767Y-84959846D01*
X150516749Y-84957523D01*
X150621611Y-84884098D01*
X150699789Y-84829357D01*
X150699792Y-84829355D01*
X150704300Y-84826198D01*
X150866198Y-84664300D01*
X150997523Y-84476749D01*
X150999846Y-84471767D01*
X150999849Y-84471762D01*
X151091961Y-84274225D01*
X151091961Y-84274224D01*
X151094284Y-84269243D01*
X151153543Y-84048087D01*
X151173498Y-83820000D01*
X151153543Y-83591913D01*
X151094284Y-83370757D01*
X151091961Y-83365775D01*
X150999849Y-83168238D01*
X150999846Y-83168233D01*
X150997523Y-83163251D01*
X150866198Y-82975700D01*
X150704300Y-82813802D01*
X150699792Y-82810645D01*
X150699789Y-82810643D01*
X150598943Y-82740030D01*
X150516749Y-82682477D01*
X150511767Y-82680154D01*
X150511762Y-82680151D01*
X150477543Y-82664195D01*
X150424258Y-82617278D01*
X150404797Y-82549001D01*
X150425339Y-82481041D01*
X150457545Y-82453134D01*
X157141500Y-82453134D01*
X157148255Y-82515316D01*
X157199385Y-82651705D01*
X157286739Y-82768261D01*
X157403295Y-82855615D01*
X157539684Y-82906745D01*
X157601866Y-82913500D01*
X159898134Y-82913500D01*
X159960316Y-82906745D01*
X160096705Y-82855615D01*
X160213261Y-82768261D01*
X160300615Y-82651705D01*
X160351745Y-82515316D01*
X160358500Y-82453134D01*
X160358500Y-81305000D01*
X164756526Y-81305000D01*
X164776391Y-81557403D01*
X164835495Y-81803591D01*
X164837388Y-81808162D01*
X164837389Y-81808164D01*
X164892415Y-81941007D01*
X164932384Y-82037502D01*
X165064672Y-82253376D01*
X165229102Y-82445898D01*
X165421624Y-82610328D01*
X165637498Y-82742616D01*
X165642068Y-82744509D01*
X165642072Y-82744511D01*
X165866836Y-82837611D01*
X165871409Y-82839505D01*
X165938513Y-82855615D01*
X166112784Y-82897454D01*
X166112790Y-82897455D01*
X166117597Y-82898609D01*
X166370000Y-82918474D01*
X166622403Y-82898609D01*
X166627210Y-82897455D01*
X166627216Y-82897454D01*
X166801487Y-82855615D01*
X166868591Y-82839505D01*
X166873164Y-82837611D01*
X167097928Y-82744511D01*
X167097932Y-82744509D01*
X167102502Y-82742616D01*
X167318376Y-82610328D01*
X167510898Y-82445898D01*
X167675328Y-82253376D01*
X167807616Y-82037502D01*
X167847586Y-81941007D01*
X167902611Y-81808164D01*
X167902612Y-81808162D01*
X167904505Y-81803591D01*
X167963609Y-81557403D01*
X167983474Y-81305000D01*
X167963609Y-81052597D01*
X167956408Y-81022599D01*
X167910350Y-80830757D01*
X167904505Y-80806409D01*
X167902611Y-80801836D01*
X167809511Y-80577072D01*
X167809509Y-80577068D01*
X167807616Y-80572498D01*
X167675328Y-80356624D01*
X167510898Y-80164102D01*
X167318376Y-79999672D01*
X167102502Y-79867384D01*
X167097932Y-79865491D01*
X167097928Y-79865489D01*
X166873164Y-79772389D01*
X166873162Y-79772388D01*
X166868591Y-79770495D01*
X166751154Y-79742301D01*
X166627216Y-79712546D01*
X166627210Y-79712545D01*
X166622403Y-79711391D01*
X166370000Y-79691526D01*
X166117597Y-79711391D01*
X166112790Y-79712545D01*
X166112784Y-79712546D01*
X165988846Y-79742301D01*
X165871409Y-79770495D01*
X165866838Y-79772388D01*
X165866836Y-79772389D01*
X165642072Y-79865489D01*
X165642068Y-79865491D01*
X165637498Y-79867384D01*
X165421624Y-79999672D01*
X165229102Y-80164102D01*
X165064672Y-80356624D01*
X164932384Y-80572498D01*
X164930491Y-80577068D01*
X164930489Y-80577072D01*
X164837389Y-80801836D01*
X164835495Y-80806409D01*
X164829650Y-80830757D01*
X164783593Y-81022599D01*
X164776391Y-81052597D01*
X164756526Y-81305000D01*
X160358500Y-81305000D01*
X160358500Y-80156866D01*
X160351745Y-80094684D01*
X160300615Y-79958295D01*
X160213261Y-79841739D01*
X160096705Y-79754385D01*
X159960316Y-79703255D01*
X159898134Y-79696500D01*
X157601866Y-79696500D01*
X157539684Y-79703255D01*
X157403295Y-79754385D01*
X157286739Y-79841739D01*
X157199385Y-79958295D01*
X157148255Y-80094684D01*
X157141500Y-80156866D01*
X157141500Y-82453134D01*
X150457545Y-82453134D01*
X150477543Y-82435805D01*
X150511762Y-82419849D01*
X150511767Y-82419846D01*
X150516749Y-82417523D01*
X150621611Y-82344098D01*
X150699789Y-82289357D01*
X150699792Y-82289355D01*
X150704300Y-82286198D01*
X150866198Y-82124300D01*
X150997523Y-81936749D01*
X150999846Y-81931767D01*
X150999849Y-81931762D01*
X151091961Y-81734225D01*
X151091961Y-81734224D01*
X151094284Y-81729243D01*
X151153543Y-81508087D01*
X151173498Y-81280000D01*
X151153543Y-81051913D01*
X151094284Y-80830757D01*
X151085174Y-80811221D01*
X150999849Y-80628238D01*
X150999846Y-80628233D01*
X150997523Y-80623251D01*
X150866198Y-80435700D01*
X150704300Y-80273802D01*
X150699792Y-80270645D01*
X150699789Y-80270643D01*
X150621611Y-80215902D01*
X150516749Y-80142477D01*
X150511767Y-80140154D01*
X150511762Y-80140151D01*
X150477543Y-80124195D01*
X150424258Y-80077278D01*
X150404797Y-80009001D01*
X150425339Y-79941041D01*
X150477543Y-79895805D01*
X150511762Y-79879849D01*
X150511767Y-79879846D01*
X150516749Y-79877523D01*
X150621611Y-79804098D01*
X150699789Y-79749357D01*
X150699792Y-79749355D01*
X150704300Y-79746198D01*
X150866198Y-79584300D01*
X150997523Y-79396749D01*
X150999846Y-79391767D01*
X150999849Y-79391762D01*
X151091961Y-79194225D01*
X151091961Y-79194224D01*
X151094284Y-79189243D01*
X151153543Y-78968087D01*
X151173498Y-78740000D01*
X151153543Y-78511913D01*
X151094284Y-78290757D01*
X151091961Y-78285775D01*
X150999849Y-78088238D01*
X150999846Y-78088233D01*
X150997523Y-78083251D01*
X150866198Y-77895700D01*
X150704300Y-77733802D01*
X150699792Y-77730645D01*
X150699789Y-77730643D01*
X150621611Y-77675902D01*
X150516749Y-77602477D01*
X150511767Y-77600154D01*
X150511762Y-77600151D01*
X150476951Y-77583919D01*
X150423666Y-77537002D01*
X150404205Y-77468725D01*
X150424747Y-77400765D01*
X150476951Y-77355529D01*
X150511511Y-77339414D01*
X150521007Y-77333931D01*
X150699467Y-77208972D01*
X150707875Y-77201916D01*
X150861916Y-77047875D01*
X150868972Y-77039467D01*
X150993931Y-76861007D01*
X150999414Y-76851511D01*
X151091490Y-76654053D01*
X151095236Y-76643761D01*
X151141394Y-76471497D01*
X151141058Y-76457401D01*
X151133116Y-76454000D01*
X148592033Y-76454000D01*
X148578502Y-76457973D01*
X148577273Y-76466522D01*
X148624764Y-76643761D01*
X148628510Y-76654053D01*
X148720586Y-76851511D01*
X148726069Y-76861007D01*
X148851028Y-77039467D01*
X148858084Y-77047875D01*
X149012125Y-77201916D01*
X149020533Y-77208972D01*
X149198993Y-77333931D01*
X149208489Y-77339414D01*
X149243049Y-77355529D01*
X149296334Y-77402446D01*
X149315795Y-77470723D01*
X149295253Y-77538683D01*
X149243049Y-77583919D01*
X149208238Y-77600151D01*
X149208233Y-77600154D01*
X149203251Y-77602477D01*
X149098389Y-77675902D01*
X149020211Y-77730643D01*
X149020208Y-77730645D01*
X149015700Y-77733802D01*
X148853802Y-77895700D01*
X148722477Y-78083251D01*
X148720154Y-78088233D01*
X148720151Y-78088238D01*
X148628039Y-78285775D01*
X148625716Y-78290757D01*
X148566457Y-78511913D01*
X148546502Y-78740000D01*
X148566457Y-78968087D01*
X148625716Y-79189243D01*
X148628039Y-79194224D01*
X148628039Y-79194225D01*
X148720151Y-79391762D01*
X148720154Y-79391767D01*
X148722477Y-79396749D01*
X148853802Y-79584300D01*
X149015700Y-79746198D01*
X149020208Y-79749355D01*
X149020211Y-79749357D01*
X149098389Y-79804098D01*
X149203251Y-79877523D01*
X149208233Y-79879846D01*
X149208238Y-79879849D01*
X149242457Y-79895805D01*
X149295742Y-79942722D01*
X149315203Y-80010999D01*
X149294661Y-80078959D01*
X149242457Y-80124195D01*
X149208238Y-80140151D01*
X149208233Y-80140154D01*
X149203251Y-80142477D01*
X149098389Y-80215902D01*
X149020211Y-80270643D01*
X149020208Y-80270645D01*
X149015700Y-80273802D01*
X148853802Y-80435700D01*
X148722477Y-80623251D01*
X148720154Y-80628233D01*
X148720151Y-80628238D01*
X148634826Y-80811221D01*
X148625716Y-80830757D01*
X148566457Y-81051913D01*
X148546502Y-81280000D01*
X148566457Y-81508087D01*
X148625716Y-81729243D01*
X148628039Y-81734224D01*
X148628039Y-81734225D01*
X148720151Y-81931762D01*
X148720154Y-81931767D01*
X148722477Y-81936749D01*
X148853802Y-82124300D01*
X149015700Y-82286198D01*
X149020208Y-82289355D01*
X149020211Y-82289357D01*
X149098389Y-82344098D01*
X149203251Y-82417523D01*
X149208233Y-82419846D01*
X149208238Y-82419849D01*
X149242457Y-82435805D01*
X149295742Y-82482722D01*
X149315203Y-82550999D01*
X149294661Y-82618959D01*
X149242457Y-82664195D01*
X149208238Y-82680151D01*
X149208233Y-82680154D01*
X149203251Y-82682477D01*
X149121057Y-82740030D01*
X149020211Y-82810643D01*
X149020208Y-82810645D01*
X149015700Y-82813802D01*
X148853802Y-82975700D01*
X148722477Y-83163251D01*
X148720154Y-83168233D01*
X148720151Y-83168238D01*
X148628039Y-83365775D01*
X148625716Y-83370757D01*
X148566457Y-83591913D01*
X148546502Y-83820000D01*
X148566457Y-84048087D01*
X148625716Y-84269243D01*
X148628039Y-84274224D01*
X148628039Y-84274225D01*
X148720151Y-84471762D01*
X148720154Y-84471767D01*
X148722477Y-84476749D01*
X148853802Y-84664300D01*
X149015700Y-84826198D01*
X149020208Y-84829355D01*
X149020211Y-84829357D01*
X149098389Y-84884098D01*
X149203251Y-84957523D01*
X149208233Y-84959846D01*
X149208238Y-84959849D01*
X149242457Y-84975805D01*
X149295742Y-85022722D01*
X149315203Y-85090999D01*
X149294661Y-85158959D01*
X149242457Y-85204195D01*
X149208238Y-85220151D01*
X149208233Y-85220154D01*
X149203251Y-85222477D01*
X149098389Y-85295902D01*
X149020211Y-85350643D01*
X149020208Y-85350645D01*
X149015700Y-85353802D01*
X148853802Y-85515700D01*
X148722477Y-85703251D01*
X148720154Y-85708233D01*
X148720151Y-85708238D01*
X148628039Y-85905775D01*
X148625716Y-85910757D01*
X148566457Y-86131913D01*
X148546502Y-86360000D01*
X148566457Y-86588087D01*
X148625716Y-86809243D01*
X148628039Y-86814224D01*
X148628039Y-86814225D01*
X148720151Y-87011762D01*
X148720154Y-87011767D01*
X148722477Y-87016749D01*
X148725634Y-87021257D01*
X148848135Y-87196206D01*
X148853802Y-87204300D01*
X149015700Y-87366198D01*
X149020208Y-87369355D01*
X149020211Y-87369357D01*
X149023352Y-87371556D01*
X149203251Y-87497523D01*
X149208233Y-87499846D01*
X149208238Y-87499849D01*
X149242457Y-87515805D01*
X149295742Y-87562722D01*
X149315203Y-87630999D01*
X149294661Y-87698959D01*
X149242457Y-87744195D01*
X149208238Y-87760151D01*
X149208233Y-87760154D01*
X149203251Y-87762477D01*
X149162348Y-87791118D01*
X149020211Y-87890643D01*
X149020208Y-87890645D01*
X149015700Y-87893802D01*
X148853802Y-88055700D01*
X148850645Y-88060208D01*
X148850643Y-88060211D01*
X148816563Y-88108882D01*
X148722477Y-88243251D01*
X148720154Y-88248233D01*
X148720151Y-88248238D01*
X148668900Y-88358148D01*
X148625716Y-88450757D01*
X148624294Y-88456065D01*
X148624293Y-88456067D01*
X148570199Y-88657947D01*
X148566457Y-88671913D01*
X148546502Y-88900000D01*
X148566457Y-89128087D01*
X148567880Y-89133398D01*
X148567882Y-89133409D01*
X148583459Y-89191541D01*
X148581770Y-89262517D01*
X148550848Y-89313248D01*
X148055606Y-89808489D01*
X147560510Y-90303585D01*
X147517224Y-90330111D01*
X147517712Y-90331206D01*
X147349278Y-90406197D01*
X147349276Y-90406198D01*
X147343248Y-90408882D01*
X147188747Y-90521134D01*
X147184326Y-90526044D01*
X147184325Y-90526045D01*
X147121608Y-90595700D01*
X147060960Y-90663056D01*
X146965473Y-90828444D01*
X146906458Y-91010072D01*
X146886496Y-91200000D01*
X142873500Y-91200000D01*
X142873500Y-89602524D01*
X142893502Y-89534403D01*
X142905858Y-89518221D01*
X142979040Y-89436944D01*
X143074527Y-89271556D01*
X143133542Y-89089928D01*
X143153504Y-88900000D01*
X143133542Y-88710072D01*
X143074527Y-88528444D01*
X143052837Y-88490875D01*
X142982341Y-88368774D01*
X142979040Y-88363056D01*
X142905013Y-88280840D01*
X142855675Y-88226045D01*
X142855674Y-88226044D01*
X142851253Y-88221134D01*
X142696752Y-88108882D01*
X142690724Y-88106198D01*
X142690722Y-88106197D01*
X142528319Y-88033891D01*
X142528318Y-88033891D01*
X142522288Y-88031206D01*
X142428887Y-88011353D01*
X142341944Y-87992872D01*
X142341939Y-87992872D01*
X142335487Y-87991500D01*
X142144513Y-87991500D01*
X142138061Y-87992872D01*
X142138056Y-87992872D01*
X142051112Y-88011353D01*
X141957712Y-88031206D01*
X141951682Y-88033891D01*
X141951681Y-88033891D01*
X141789278Y-88106197D01*
X141789276Y-88106198D01*
X141783248Y-88108882D01*
X141628747Y-88221134D01*
X141624326Y-88226044D01*
X141624325Y-88226045D01*
X141574988Y-88280840D01*
X141500960Y-88363056D01*
X141497659Y-88368774D01*
X141427164Y-88490875D01*
X141405473Y-88528444D01*
X141346458Y-88710072D01*
X141326496Y-88900000D01*
X141346458Y-89089928D01*
X141405473Y-89271556D01*
X141500960Y-89436944D01*
X141574137Y-89518215D01*
X141604853Y-89582221D01*
X141606500Y-89602524D01*
X141606500Y-97475406D01*
X141586498Y-97543527D01*
X141569595Y-97564501D01*
X138479500Y-100654595D01*
X138417188Y-100688621D01*
X138390405Y-100691500D01*
X138334513Y-100691500D01*
X138328061Y-100692872D01*
X138328056Y-100692872D01*
X138241112Y-100711353D01*
X138147712Y-100731206D01*
X138141682Y-100733891D01*
X138141681Y-100733891D01*
X137979278Y-100806197D01*
X137979276Y-100806198D01*
X137973248Y-100808882D01*
X137818747Y-100921134D01*
X137690960Y-101063056D01*
X137595473Y-101228444D01*
X137536458Y-101410072D01*
X137516496Y-101600000D01*
X135933498Y-101600000D01*
X135913543Y-101371913D01*
X135891575Y-101289928D01*
X135855707Y-101156067D01*
X135855706Y-101156065D01*
X135854284Y-101150757D01*
X135830616Y-101100000D01*
X135759849Y-100948238D01*
X135759846Y-100948233D01*
X135757523Y-100943251D01*
X135663437Y-100808882D01*
X135629357Y-100760211D01*
X135629355Y-100760208D01*
X135626198Y-100755700D01*
X135464300Y-100593802D01*
X135459792Y-100590645D01*
X135459789Y-100590643D01*
X135304326Y-100481787D01*
X135276749Y-100462477D01*
X135271767Y-100460154D01*
X135271762Y-100460151D01*
X135237543Y-100444195D01*
X135184258Y-100397278D01*
X135164797Y-100329001D01*
X135185339Y-100261041D01*
X135237543Y-100215805D01*
X135271762Y-100199849D01*
X135271767Y-100199846D01*
X135276749Y-100197523D01*
X135381611Y-100124098D01*
X135459789Y-100069357D01*
X135459792Y-100069355D01*
X135464300Y-100066198D01*
X135626198Y-99904300D01*
X135757523Y-99716749D01*
X135759846Y-99711767D01*
X135759849Y-99711762D01*
X135851961Y-99514225D01*
X135851961Y-99514224D01*
X135854284Y-99509243D01*
X135865123Y-99468794D01*
X135912119Y-99293402D01*
X135912119Y-99293400D01*
X135913543Y-99288087D01*
X135933498Y-99060000D01*
X135913543Y-98831913D01*
X135912119Y-98826598D01*
X135855707Y-98616067D01*
X135855706Y-98616065D01*
X135854284Y-98610757D01*
X135846207Y-98593435D01*
X135759849Y-98408238D01*
X135759846Y-98408233D01*
X135757523Y-98403251D01*
X135668577Y-98276223D01*
X135629357Y-98220211D01*
X135629355Y-98220208D01*
X135626198Y-98215700D01*
X135464300Y-98053802D01*
X135459792Y-98050645D01*
X135459789Y-98050643D01*
X135341969Y-97968145D01*
X135276749Y-97922477D01*
X135271767Y-97920154D01*
X135271762Y-97920151D01*
X135237543Y-97904195D01*
X135184258Y-97857278D01*
X135164797Y-97789001D01*
X135185339Y-97721041D01*
X135237543Y-97675805D01*
X135271762Y-97659849D01*
X135271767Y-97659846D01*
X135276749Y-97657523D01*
X135410069Y-97564171D01*
X135459789Y-97529357D01*
X135459792Y-97529355D01*
X135464300Y-97526198D01*
X135626198Y-97364300D01*
X135650923Y-97328990D01*
X135725118Y-97223028D01*
X135757523Y-97176749D01*
X135759846Y-97171767D01*
X135759849Y-97171762D01*
X135851961Y-96974225D01*
X135851961Y-96974224D01*
X135854284Y-96969243D01*
X135902970Y-96787548D01*
X135912119Y-96753402D01*
X135912119Y-96753400D01*
X135913543Y-96748087D01*
X135933498Y-96520000D01*
X135913543Y-96291913D01*
X135854284Y-96070757D01*
X135851961Y-96065775D01*
X135759849Y-95868238D01*
X135759846Y-95868233D01*
X135757523Y-95863251D01*
X135662137Y-95727026D01*
X135629357Y-95680211D01*
X135629355Y-95680208D01*
X135626198Y-95675700D01*
X135464300Y-95513802D01*
X135459792Y-95510645D01*
X135459789Y-95510643D01*
X135316768Y-95410499D01*
X135276749Y-95382477D01*
X135271767Y-95380154D01*
X135271762Y-95380151D01*
X135237543Y-95364195D01*
X135184258Y-95317278D01*
X135164797Y-95249001D01*
X135185339Y-95181041D01*
X135237543Y-95135805D01*
X135271762Y-95119849D01*
X135271767Y-95119846D01*
X135276749Y-95117523D01*
X135434799Y-95006855D01*
X135459789Y-94989357D01*
X135459792Y-94989355D01*
X135464300Y-94986198D01*
X135626198Y-94824300D01*
X135640483Y-94803900D01*
X135714090Y-94698777D01*
X135757523Y-94636749D01*
X135759846Y-94631767D01*
X135759849Y-94631762D01*
X135851961Y-94434225D01*
X135851961Y-94434224D01*
X135854284Y-94429243D01*
X135884458Y-94316635D01*
X135912119Y-94213402D01*
X135912119Y-94213400D01*
X135913543Y-94208087D01*
X135933498Y-93980000D01*
X135913543Y-93751913D01*
X135902013Y-93708882D01*
X135855707Y-93536067D01*
X135855706Y-93536065D01*
X135854284Y-93530757D01*
X135851961Y-93525775D01*
X135759849Y-93328238D01*
X135759846Y-93328233D01*
X135757523Y-93323251D01*
X135626198Y-93135700D01*
X135464300Y-92973802D01*
X135459792Y-92970645D01*
X135459789Y-92970643D01*
X135381611Y-92915902D01*
X135276749Y-92842477D01*
X135271767Y-92840154D01*
X135271762Y-92840151D01*
X135237543Y-92824195D01*
X135184258Y-92777278D01*
X135164797Y-92709001D01*
X135185339Y-92641041D01*
X135237543Y-92595805D01*
X135271762Y-92579849D01*
X135271767Y-92579846D01*
X135276749Y-92577523D01*
X135381611Y-92504098D01*
X135459789Y-92449357D01*
X135459792Y-92449355D01*
X135464300Y-92446198D01*
X135626198Y-92284300D01*
X135757523Y-92096749D01*
X135759846Y-92091767D01*
X135759849Y-92091762D01*
X135851961Y-91894225D01*
X135851961Y-91894224D01*
X135854284Y-91889243D01*
X135858380Y-91873959D01*
X135912119Y-91673402D01*
X135912119Y-91673400D01*
X135913543Y-91668087D01*
X135933498Y-91440000D01*
X135913543Y-91211913D01*
X135861218Y-91016635D01*
X135855707Y-90996067D01*
X135855706Y-90996065D01*
X135854284Y-90990757D01*
X135851961Y-90985775D01*
X135759849Y-90788238D01*
X135759846Y-90788233D01*
X135757523Y-90783251D01*
X135626198Y-90595700D01*
X135464300Y-90433802D01*
X135459792Y-90430645D01*
X135459789Y-90430643D01*
X135311927Y-90327109D01*
X135276749Y-90302477D01*
X135271767Y-90300154D01*
X135271762Y-90300151D01*
X135237543Y-90284195D01*
X135184258Y-90237278D01*
X135164797Y-90169001D01*
X135185339Y-90101041D01*
X135237543Y-90055805D01*
X135271762Y-90039849D01*
X135271767Y-90039846D01*
X135276749Y-90037523D01*
X135384408Y-89962139D01*
X135459789Y-89909357D01*
X135459792Y-89909355D01*
X135464300Y-89906198D01*
X135626198Y-89744300D01*
X135636150Y-89730088D01*
X135725471Y-89602524D01*
X135757523Y-89556749D01*
X135759846Y-89551767D01*
X135759849Y-89551762D01*
X135851961Y-89354225D01*
X135851961Y-89354224D01*
X135854284Y-89349243D01*
X135876785Y-89265271D01*
X135912119Y-89133402D01*
X135912119Y-89133400D01*
X135913543Y-89128087D01*
X135933498Y-88900000D01*
X135913543Y-88671913D01*
X135909801Y-88657947D01*
X135855707Y-88456067D01*
X135855706Y-88456065D01*
X135854284Y-88450757D01*
X135811100Y-88358148D01*
X135759849Y-88248238D01*
X135759846Y-88248233D01*
X135757523Y-88243251D01*
X135663437Y-88108882D01*
X135629357Y-88060211D01*
X135629355Y-88060208D01*
X135626198Y-88055700D01*
X135464300Y-87893802D01*
X135459792Y-87890645D01*
X135459789Y-87890643D01*
X135317652Y-87791118D01*
X135276749Y-87762477D01*
X135271767Y-87760154D01*
X135271762Y-87760151D01*
X135237543Y-87744195D01*
X135184258Y-87697278D01*
X135164797Y-87629001D01*
X135185339Y-87561041D01*
X135237543Y-87515805D01*
X135271762Y-87499849D01*
X135271767Y-87499846D01*
X135276749Y-87497523D01*
X135456648Y-87371556D01*
X135459789Y-87369357D01*
X135459792Y-87369355D01*
X135464300Y-87366198D01*
X135626198Y-87204300D01*
X135631866Y-87196206D01*
X135754366Y-87021257D01*
X135757523Y-87016749D01*
X135759846Y-87011767D01*
X135759849Y-87011762D01*
X135851961Y-86814225D01*
X135851961Y-86814224D01*
X135854284Y-86809243D01*
X135913543Y-86588087D01*
X135933498Y-86360000D01*
X135913543Y-86131913D01*
X135854284Y-85910757D01*
X135851961Y-85905775D01*
X135759849Y-85708238D01*
X135759846Y-85708233D01*
X135757523Y-85703251D01*
X135626198Y-85515700D01*
X135464300Y-85353802D01*
X135459792Y-85350645D01*
X135459789Y-85350643D01*
X135381611Y-85295902D01*
X135276749Y-85222477D01*
X135271767Y-85220154D01*
X135271762Y-85220151D01*
X135237543Y-85204195D01*
X135184258Y-85157278D01*
X135164797Y-85089001D01*
X135185339Y-85021041D01*
X135237543Y-84975805D01*
X135271762Y-84959849D01*
X135271767Y-84959846D01*
X135276749Y-84957523D01*
X135381611Y-84884098D01*
X135459789Y-84829357D01*
X135459792Y-84829355D01*
X135464300Y-84826198D01*
X135626198Y-84664300D01*
X135757523Y-84476749D01*
X135759846Y-84471767D01*
X135759849Y-84471762D01*
X135851961Y-84274225D01*
X135851961Y-84274224D01*
X135854284Y-84269243D01*
X135913543Y-84048087D01*
X135933498Y-83820000D01*
X135913543Y-83591913D01*
X135854284Y-83370757D01*
X135851961Y-83365775D01*
X135759849Y-83168238D01*
X135759846Y-83168233D01*
X135757523Y-83163251D01*
X135626198Y-82975700D01*
X135464300Y-82813802D01*
X135459792Y-82810645D01*
X135459789Y-82810643D01*
X135358943Y-82740030D01*
X135276749Y-82682477D01*
X135271767Y-82680154D01*
X135271762Y-82680151D01*
X135236951Y-82663919D01*
X135183666Y-82617002D01*
X135164205Y-82548725D01*
X135184747Y-82480765D01*
X135236951Y-82435529D01*
X135271511Y-82419414D01*
X135281007Y-82413931D01*
X135459467Y-82288972D01*
X135467875Y-82281916D01*
X135621916Y-82127875D01*
X135628972Y-82119467D01*
X135753931Y-81941007D01*
X135759414Y-81931511D01*
X135851490Y-81734053D01*
X135855236Y-81723761D01*
X135901394Y-81551497D01*
X135901058Y-81537401D01*
X135893116Y-81534000D01*
X133352033Y-81534000D01*
X133338502Y-81537973D01*
X133337273Y-81546522D01*
X133384764Y-81723761D01*
X133388510Y-81734053D01*
X133480586Y-81931511D01*
X133486069Y-81941007D01*
X133611028Y-82119467D01*
X133618084Y-82127875D01*
X133772125Y-82281916D01*
X133780533Y-82288972D01*
X133958993Y-82413931D01*
X133968489Y-82419414D01*
X134003049Y-82435529D01*
X134056334Y-82482446D01*
X134075795Y-82550723D01*
X134055253Y-82618683D01*
X134003049Y-82663919D01*
X133968238Y-82680151D01*
X133968233Y-82680154D01*
X133963251Y-82682477D01*
X133881057Y-82740030D01*
X133780211Y-82810643D01*
X133780208Y-82810645D01*
X133775700Y-82813802D01*
X133613802Y-82975700D01*
X133482477Y-83163251D01*
X133480154Y-83168233D01*
X133480151Y-83168238D01*
X133388039Y-83365775D01*
X133385716Y-83370757D01*
X133326457Y-83591913D01*
X133306502Y-83820000D01*
X133326457Y-84048087D01*
X133385716Y-84269243D01*
X133388039Y-84274224D01*
X133388039Y-84274225D01*
X133480151Y-84471762D01*
X133480154Y-84471767D01*
X133482477Y-84476749D01*
X133613802Y-84664300D01*
X133775700Y-84826198D01*
X133780208Y-84829355D01*
X133780211Y-84829357D01*
X133858389Y-84884098D01*
X133963251Y-84957523D01*
X133968233Y-84959846D01*
X133968238Y-84959849D01*
X134002457Y-84975805D01*
X134055742Y-85022722D01*
X134075203Y-85090999D01*
X134054661Y-85158959D01*
X134002457Y-85204195D01*
X133968238Y-85220151D01*
X133968233Y-85220154D01*
X133963251Y-85222477D01*
X133858389Y-85295902D01*
X133780211Y-85350643D01*
X133780208Y-85350645D01*
X133775700Y-85353802D01*
X133613802Y-85515700D01*
X133482477Y-85703251D01*
X133480154Y-85708233D01*
X133480151Y-85708238D01*
X133388039Y-85905775D01*
X133385716Y-85910757D01*
X133326457Y-86131913D01*
X133306502Y-86360000D01*
X133326457Y-86588087D01*
X133385716Y-86809243D01*
X133388039Y-86814224D01*
X133388039Y-86814225D01*
X133480151Y-87011762D01*
X133480154Y-87011767D01*
X133482477Y-87016749D01*
X133485634Y-87021257D01*
X133608135Y-87196206D01*
X133613802Y-87204300D01*
X133775700Y-87366198D01*
X133780208Y-87369355D01*
X133780211Y-87369357D01*
X133783352Y-87371556D01*
X133963251Y-87497523D01*
X133968233Y-87499846D01*
X133968238Y-87499849D01*
X134002457Y-87515805D01*
X134055742Y-87562722D01*
X134075203Y-87630999D01*
X134054661Y-87698959D01*
X134002457Y-87744195D01*
X133968238Y-87760151D01*
X133968233Y-87760154D01*
X133963251Y-87762477D01*
X133922348Y-87791118D01*
X133780211Y-87890643D01*
X133780208Y-87890645D01*
X133775700Y-87893802D01*
X133613802Y-88055700D01*
X133610645Y-88060208D01*
X133610643Y-88060211D01*
X133576563Y-88108882D01*
X133482477Y-88243251D01*
X133480154Y-88248233D01*
X133480151Y-88248238D01*
X133428900Y-88358148D01*
X133385716Y-88450757D01*
X133384294Y-88456065D01*
X133384293Y-88456067D01*
X133330199Y-88657947D01*
X133326457Y-88671913D01*
X133306502Y-88900000D01*
X133326457Y-89128087D01*
X133327881Y-89133400D01*
X133327881Y-89133402D01*
X133363216Y-89265271D01*
X133385716Y-89349243D01*
X133388039Y-89354224D01*
X133388039Y-89354225D01*
X133480151Y-89551762D01*
X133480154Y-89551767D01*
X133482477Y-89556749D01*
X133514529Y-89602524D01*
X133603851Y-89730088D01*
X133613802Y-89744300D01*
X133775700Y-89906198D01*
X133780208Y-89909355D01*
X133780211Y-89909357D01*
X133855592Y-89962139D01*
X133963251Y-90037523D01*
X133968233Y-90039846D01*
X133968238Y-90039849D01*
X134002457Y-90055805D01*
X134055742Y-90102722D01*
X134075203Y-90170999D01*
X134054661Y-90238959D01*
X134002457Y-90284195D01*
X133968238Y-90300151D01*
X133968233Y-90300154D01*
X133963251Y-90302477D01*
X133928073Y-90327109D01*
X133780211Y-90430643D01*
X133780208Y-90430645D01*
X133775700Y-90433802D01*
X133613802Y-90595700D01*
X133482477Y-90783251D01*
X133480154Y-90788233D01*
X133480151Y-90788238D01*
X133388039Y-90985775D01*
X133385716Y-90990757D01*
X133384294Y-90996065D01*
X133384293Y-90996067D01*
X133378782Y-91016635D01*
X133326457Y-91211913D01*
X133306502Y-91440000D01*
X133326457Y-91668087D01*
X133327881Y-91673400D01*
X133327881Y-91673402D01*
X133381621Y-91873959D01*
X133385716Y-91889243D01*
X133388039Y-91894224D01*
X133388039Y-91894225D01*
X133480151Y-92091762D01*
X133480154Y-92091767D01*
X133482477Y-92096749D01*
X133613802Y-92284300D01*
X133775700Y-92446198D01*
X133780208Y-92449355D01*
X133780211Y-92449357D01*
X133858389Y-92504098D01*
X133963251Y-92577523D01*
X133968233Y-92579846D01*
X133968238Y-92579849D01*
X134002457Y-92595805D01*
X134055742Y-92642722D01*
X134075203Y-92710999D01*
X134054661Y-92778959D01*
X134002457Y-92824195D01*
X133968238Y-92840151D01*
X133968233Y-92840154D01*
X133963251Y-92842477D01*
X133858389Y-92915902D01*
X133780211Y-92970643D01*
X133780208Y-92970645D01*
X133775700Y-92973802D01*
X133613802Y-93135700D01*
X133482477Y-93323251D01*
X133480154Y-93328233D01*
X133480151Y-93328238D01*
X133388039Y-93525775D01*
X133385716Y-93530757D01*
X133384294Y-93536065D01*
X133384293Y-93536067D01*
X133337987Y-93708882D01*
X133326457Y-93751913D01*
X133306502Y-93980000D01*
X133326457Y-94208087D01*
X133327881Y-94213400D01*
X133327881Y-94213402D01*
X133355543Y-94316635D01*
X133385716Y-94429243D01*
X133388039Y-94434224D01*
X133388039Y-94434225D01*
X133480151Y-94631762D01*
X133480154Y-94631767D01*
X133482477Y-94636749D01*
X133525910Y-94698777D01*
X133599518Y-94803900D01*
X133613802Y-94824300D01*
X133775700Y-94986198D01*
X133780208Y-94989355D01*
X133780211Y-94989357D01*
X133805201Y-95006855D01*
X133963251Y-95117523D01*
X133968233Y-95119846D01*
X133968238Y-95119849D01*
X134002457Y-95135805D01*
X134055742Y-95182722D01*
X134075203Y-95250999D01*
X134054661Y-95318959D01*
X134002457Y-95364195D01*
X133968238Y-95380151D01*
X133968233Y-95380154D01*
X133963251Y-95382477D01*
X133923232Y-95410499D01*
X133780211Y-95510643D01*
X133780208Y-95510645D01*
X133775700Y-95513802D01*
X133613802Y-95675700D01*
X133610645Y-95680208D01*
X133610643Y-95680211D01*
X133577863Y-95727026D01*
X133482477Y-95863251D01*
X133480154Y-95868233D01*
X133480151Y-95868238D01*
X133388039Y-96065775D01*
X133385716Y-96070757D01*
X133326457Y-96291913D01*
X133306502Y-96520000D01*
X133326457Y-96748087D01*
X133327881Y-96753400D01*
X133327881Y-96753402D01*
X133337031Y-96787548D01*
X133385716Y-96969243D01*
X133388039Y-96974224D01*
X133388039Y-96974225D01*
X133480151Y-97171762D01*
X133480154Y-97171767D01*
X133482477Y-97176749D01*
X133514882Y-97223028D01*
X133589078Y-97328990D01*
X133613802Y-97364300D01*
X133775700Y-97526198D01*
X133780208Y-97529355D01*
X133780211Y-97529357D01*
X133829931Y-97564171D01*
X133963251Y-97657523D01*
X133968233Y-97659846D01*
X133968238Y-97659849D01*
X134002457Y-97675805D01*
X134055742Y-97722722D01*
X134075203Y-97790999D01*
X134054661Y-97858959D01*
X134002457Y-97904195D01*
X133968238Y-97920151D01*
X133968233Y-97920154D01*
X133963251Y-97922477D01*
X133898031Y-97968145D01*
X133780211Y-98050643D01*
X133780208Y-98050645D01*
X133775700Y-98053802D01*
X133613802Y-98215700D01*
X133610645Y-98220208D01*
X133610643Y-98220211D01*
X133571423Y-98276223D01*
X133482477Y-98403251D01*
X133480154Y-98408233D01*
X133480151Y-98408238D01*
X133393793Y-98593435D01*
X133385716Y-98610757D01*
X133384294Y-98616065D01*
X133384293Y-98616067D01*
X133327881Y-98826598D01*
X133326457Y-98831913D01*
X133306502Y-99060000D01*
X133326457Y-99288087D01*
X133327881Y-99293400D01*
X133327881Y-99293402D01*
X133374878Y-99468794D01*
X133385716Y-99509243D01*
X133388039Y-99514224D01*
X133388039Y-99514225D01*
X133480151Y-99711762D01*
X133480154Y-99711767D01*
X133482477Y-99716749D01*
X133613802Y-99904300D01*
X133775700Y-100066198D01*
X133780208Y-100069355D01*
X133780211Y-100069357D01*
X133858389Y-100124098D01*
X133963251Y-100197523D01*
X133968233Y-100199846D01*
X133968238Y-100199849D01*
X134002457Y-100215805D01*
X134055742Y-100262722D01*
X134075203Y-100330999D01*
X134054661Y-100398959D01*
X134002457Y-100444195D01*
X133968238Y-100460151D01*
X133968233Y-100460154D01*
X133963251Y-100462477D01*
X133935674Y-100481787D01*
X133780211Y-100590643D01*
X133780208Y-100590645D01*
X133775700Y-100593802D01*
X133613802Y-100755700D01*
X133610645Y-100760208D01*
X133610643Y-100760211D01*
X133576563Y-100808882D01*
X133482477Y-100943251D01*
X133480154Y-100948233D01*
X133480151Y-100948238D01*
X133409384Y-101100000D01*
X133385716Y-101150757D01*
X133384294Y-101156065D01*
X133384293Y-101156067D01*
X133348425Y-101289928D01*
X133326457Y-101371913D01*
X133306502Y-101600000D01*
X133326457Y-101828087D01*
X133327881Y-101833400D01*
X133327881Y-101833402D01*
X133364160Y-101968794D01*
X133385716Y-102049243D01*
X133388039Y-102054224D01*
X133388039Y-102054225D01*
X133480151Y-102251762D01*
X133480154Y-102251767D01*
X133482477Y-102256749D01*
X133555902Y-102361611D01*
X133578444Y-102393803D01*
X133613802Y-102444300D01*
X133775700Y-102606198D01*
X133780208Y-102609355D01*
X133780211Y-102609357D01*
X133858389Y-102664098D01*
X133963251Y-102737523D01*
X133968233Y-102739846D01*
X133968238Y-102739849D01*
X134002457Y-102755805D01*
X134055742Y-102802722D01*
X134075203Y-102870999D01*
X134054661Y-102938959D01*
X134002457Y-102984195D01*
X133968238Y-103000151D01*
X133968233Y-103000154D01*
X133963251Y-103002477D01*
X133915220Y-103036109D01*
X133780211Y-103130643D01*
X133780208Y-103130645D01*
X133775700Y-103133802D01*
X133613802Y-103295700D01*
X133610645Y-103300208D01*
X133610643Y-103300211D01*
X133601740Y-103312926D01*
X133482477Y-103483251D01*
X133480154Y-103488233D01*
X133480151Y-103488238D01*
X133395719Y-103669305D01*
X133385716Y-103690757D01*
X133384294Y-103696065D01*
X133384293Y-103696067D01*
X133327881Y-103906598D01*
X133326457Y-103911913D01*
X133306502Y-104140000D01*
X133326457Y-104368087D01*
X133327881Y-104373400D01*
X133327881Y-104373402D01*
X133341155Y-104422939D01*
X133385716Y-104589243D01*
X133388039Y-104594224D01*
X133388039Y-104594225D01*
X133480151Y-104791762D01*
X133480154Y-104791767D01*
X133482477Y-104796749D01*
X133514216Y-104842077D01*
X133589078Y-104948990D01*
X133613802Y-104984300D01*
X133775700Y-105146198D01*
X133780208Y-105149355D01*
X133780211Y-105149357D01*
X133829931Y-105184171D01*
X133963251Y-105277523D01*
X133968233Y-105279846D01*
X133968238Y-105279849D01*
X134002457Y-105295805D01*
X134055742Y-105342722D01*
X134075203Y-105410999D01*
X134054661Y-105478959D01*
X134002457Y-105524195D01*
X133968238Y-105540151D01*
X133968233Y-105540154D01*
X133963251Y-105542477D01*
X133858389Y-105615902D01*
X133780211Y-105670643D01*
X133780208Y-105670645D01*
X133775700Y-105673802D01*
X133613802Y-105835700D01*
X133482477Y-106023251D01*
X133480154Y-106028233D01*
X133480151Y-106028238D01*
X133388039Y-106225775D01*
X133385716Y-106230757D01*
X133326457Y-106451913D01*
X133306502Y-106680000D01*
X133326457Y-106908087D01*
X133385716Y-107129243D01*
X133388039Y-107134224D01*
X133388039Y-107134225D01*
X133480151Y-107331762D01*
X133480154Y-107331767D01*
X133482477Y-107336749D01*
X133613802Y-107524300D01*
X133775700Y-107686198D01*
X133780208Y-107689355D01*
X133780211Y-107689357D01*
X133858389Y-107744098D01*
X133963251Y-107817523D01*
X133968233Y-107819846D01*
X133968238Y-107819849D01*
X134002457Y-107835805D01*
X134055742Y-107882722D01*
X134075203Y-107950999D01*
X134054661Y-108018959D01*
X134002457Y-108064195D01*
X133968238Y-108080151D01*
X133968233Y-108080154D01*
X133963251Y-108082477D01*
X133858389Y-108155902D01*
X133780211Y-108210643D01*
X133780208Y-108210645D01*
X133775700Y-108213802D01*
X133613802Y-108375700D01*
X133482477Y-108563251D01*
X133480154Y-108568233D01*
X133480151Y-108568238D01*
X133388039Y-108765775D01*
X133385716Y-108770757D01*
X133326457Y-108991913D01*
X133306502Y-109220000D01*
X125730000Y-109220000D01*
X125730000Y-78740000D01*
X133306502Y-78740000D01*
X133326457Y-78968087D01*
X133385716Y-79189243D01*
X133388039Y-79194224D01*
X133388039Y-79194225D01*
X133480151Y-79391762D01*
X133480154Y-79391767D01*
X133482477Y-79396749D01*
X133613802Y-79584300D01*
X133775700Y-79746198D01*
X133780208Y-79749355D01*
X133780211Y-79749357D01*
X133858389Y-79804098D01*
X133963251Y-79877523D01*
X133968233Y-79879846D01*
X133968238Y-79879849D01*
X134003049Y-79896081D01*
X134056334Y-79942998D01*
X134075795Y-80011275D01*
X134055253Y-80079235D01*
X134003049Y-80124471D01*
X133968489Y-80140586D01*
X133958993Y-80146069D01*
X133780533Y-80271028D01*
X133772125Y-80278084D01*
X133618084Y-80432125D01*
X133611028Y-80440533D01*
X133486069Y-80618993D01*
X133480586Y-80628489D01*
X133388510Y-80825947D01*
X133384764Y-80836239D01*
X133338606Y-81008503D01*
X133338942Y-81022599D01*
X133346884Y-81026000D01*
X135887967Y-81026000D01*
X135901498Y-81022027D01*
X135902727Y-81013478D01*
X135855236Y-80836239D01*
X135851490Y-80825947D01*
X135759414Y-80628489D01*
X135753931Y-80618993D01*
X135628972Y-80440533D01*
X135621916Y-80432125D01*
X135467875Y-80278084D01*
X135459467Y-80271028D01*
X135281007Y-80146069D01*
X135271511Y-80140586D01*
X135236951Y-80124471D01*
X135183666Y-80077554D01*
X135164205Y-80009277D01*
X135184747Y-79941317D01*
X135236951Y-79896081D01*
X135271762Y-79879849D01*
X135271767Y-79879846D01*
X135276749Y-79877523D01*
X135381611Y-79804098D01*
X135459789Y-79749357D01*
X135459792Y-79749355D01*
X135464300Y-79746198D01*
X135626198Y-79584300D01*
X135757523Y-79396749D01*
X135759846Y-79391767D01*
X135759849Y-79391762D01*
X135851961Y-79194225D01*
X135851961Y-79194224D01*
X135854284Y-79189243D01*
X135913543Y-78968087D01*
X135933498Y-78740000D01*
X135913543Y-78511913D01*
X135854284Y-78290757D01*
X135851961Y-78285775D01*
X135759849Y-78088238D01*
X135759846Y-78088233D01*
X135757523Y-78083251D01*
X135626198Y-77895700D01*
X135464300Y-77733802D01*
X135459792Y-77730645D01*
X135459789Y-77730643D01*
X135381611Y-77675902D01*
X135276749Y-77602477D01*
X135271767Y-77600154D01*
X135271762Y-77600151D01*
X135237543Y-77584195D01*
X135184258Y-77537278D01*
X135164797Y-77469001D01*
X135185339Y-77401041D01*
X135237543Y-77355805D01*
X135271762Y-77339849D01*
X135271767Y-77339846D01*
X135276749Y-77337523D01*
X135381611Y-77264098D01*
X135459789Y-77209357D01*
X135459792Y-77209355D01*
X135464300Y-77206198D01*
X135626198Y-77044300D01*
X135757523Y-76856749D01*
X135759846Y-76851767D01*
X135759849Y-76851762D01*
X135851961Y-76654225D01*
X135851961Y-76654224D01*
X135854284Y-76649243D01*
X135913543Y-76428087D01*
X135933498Y-76200000D01*
X135913543Y-75971913D01*
X135854284Y-75750757D01*
X135759966Y-75548489D01*
X135759849Y-75548238D01*
X135759846Y-75548233D01*
X135757523Y-75543251D01*
X135626198Y-75355700D01*
X135464300Y-75193802D01*
X135459789Y-75190643D01*
X135455576Y-75187108D01*
X135456527Y-75185974D01*
X135416529Y-75135929D01*
X135409224Y-75065310D01*
X135441258Y-75001951D01*
X135502462Y-74965970D01*
X135519517Y-74962918D01*
X135530316Y-74961745D01*
X135666705Y-74910615D01*
X135783261Y-74823261D01*
X135870615Y-74706705D01*
X135921745Y-74570316D01*
X135928500Y-74508134D01*
X135928500Y-73660000D01*
X148546502Y-73660000D01*
X148566457Y-73888087D01*
X148567881Y-73893400D01*
X148567881Y-73893402D01*
X148577143Y-73927966D01*
X148625716Y-74109243D01*
X148628039Y-74114224D01*
X148628039Y-74114225D01*
X148720151Y-74311762D01*
X148720154Y-74311767D01*
X148722477Y-74316749D01*
X148853802Y-74504300D01*
X149015700Y-74666198D01*
X149020208Y-74669355D01*
X149020211Y-74669357D01*
X149073550Y-74706705D01*
X149203251Y-74797523D01*
X149208233Y-74799846D01*
X149208238Y-74799849D01*
X149243049Y-74816081D01*
X149296334Y-74862998D01*
X149315795Y-74931275D01*
X149295253Y-74999235D01*
X149243049Y-75044471D01*
X149208489Y-75060586D01*
X149198993Y-75066069D01*
X149020533Y-75191028D01*
X149012125Y-75198084D01*
X148858084Y-75352125D01*
X148851028Y-75360533D01*
X148726069Y-75538993D01*
X148720586Y-75548489D01*
X148628510Y-75745947D01*
X148624764Y-75756239D01*
X148578606Y-75928503D01*
X148578942Y-75942599D01*
X148586884Y-75946000D01*
X151127967Y-75946000D01*
X151141498Y-75942027D01*
X151142727Y-75933478D01*
X151095236Y-75756239D01*
X151091490Y-75745947D01*
X150999414Y-75548489D01*
X150993931Y-75538993D01*
X150868972Y-75360533D01*
X150861916Y-75352125D01*
X150707875Y-75198084D01*
X150699467Y-75191028D01*
X150521007Y-75066069D01*
X150511511Y-75060586D01*
X150476951Y-75044471D01*
X150423666Y-74997554D01*
X150404205Y-74929277D01*
X150424747Y-74861317D01*
X150476951Y-74816081D01*
X150511762Y-74799849D01*
X150511767Y-74799846D01*
X150516749Y-74797523D01*
X150646450Y-74706705D01*
X150699789Y-74669357D01*
X150699792Y-74669355D01*
X150704300Y-74666198D01*
X150866198Y-74504300D01*
X150997523Y-74316749D01*
X150999846Y-74311767D01*
X150999849Y-74311762D01*
X151091961Y-74114225D01*
X151091961Y-74114224D01*
X151094284Y-74109243D01*
X151142858Y-73927966D01*
X153608257Y-73927966D01*
X153638565Y-74062446D01*
X153641645Y-74072275D01*
X153721770Y-74269603D01*
X153726413Y-74278794D01*
X153837694Y-74460388D01*
X153843777Y-74468699D01*
X153983213Y-74629667D01*
X153990580Y-74636883D01*
X154154434Y-74772916D01*
X154162881Y-74778831D01*
X154346756Y-74886279D01*
X154356042Y-74890729D01*
X154555001Y-74966703D01*
X154564899Y-74969579D01*
X154668250Y-74990606D01*
X154682299Y-74989410D01*
X154686000Y-74979065D01*
X154686000Y-74978517D01*
X155194000Y-74978517D01*
X155198064Y-74992359D01*
X155211478Y-74994393D01*
X155218184Y-74993534D01*
X155228262Y-74991392D01*
X155432255Y-74930191D01*
X155441842Y-74926433D01*
X155633095Y-74832739D01*
X155641945Y-74827464D01*
X155815328Y-74703792D01*
X155823200Y-74697139D01*
X155974052Y-74546812D01*
X155980730Y-74538965D01*
X156105003Y-74366020D01*
X156110313Y-74357183D01*
X156204670Y-74166267D01*
X156208469Y-74156672D01*
X156270377Y-73952910D01*
X156272555Y-73942837D01*
X156273986Y-73931962D01*
X156271775Y-73917778D01*
X156258617Y-73914000D01*
X155212115Y-73914000D01*
X155196876Y-73918475D01*
X155195671Y-73919865D01*
X155194000Y-73927548D01*
X155194000Y-74978517D01*
X154686000Y-74978517D01*
X154686000Y-73932115D01*
X154681525Y-73916876D01*
X154680135Y-73915671D01*
X154672452Y-73914000D01*
X153623225Y-73914000D01*
X153609694Y-73917973D01*
X153608257Y-73927966D01*
X151142858Y-73927966D01*
X151152119Y-73893402D01*
X151152119Y-73893400D01*
X151153543Y-73888087D01*
X151173498Y-73660000D01*
X151153543Y-73431913D01*
X151146600Y-73406000D01*
X151095707Y-73216067D01*
X151095706Y-73216065D01*
X151094284Y-73210757D01*
X151005713Y-73020814D01*
X150999849Y-73008238D01*
X150999846Y-73008233D01*
X150997523Y-73003251D01*
X150866198Y-72815700D01*
X150704300Y-72653802D01*
X150699792Y-72650645D01*
X150699789Y-72650643D01*
X150621611Y-72595902D01*
X150516749Y-72522477D01*
X150511767Y-72520154D01*
X150511762Y-72520151D01*
X150314225Y-72428039D01*
X150314224Y-72428039D01*
X150309243Y-72425716D01*
X150303935Y-72424294D01*
X150303933Y-72424293D01*
X150093402Y-72367881D01*
X150093400Y-72367881D01*
X150088087Y-72366457D01*
X149860000Y-72346502D01*
X149631913Y-72366457D01*
X149626600Y-72367881D01*
X149626598Y-72367881D01*
X149416067Y-72424293D01*
X149416065Y-72424294D01*
X149410757Y-72425716D01*
X149405776Y-72428039D01*
X149405775Y-72428039D01*
X149208238Y-72520151D01*
X149208233Y-72520154D01*
X149203251Y-72522477D01*
X149098389Y-72595902D01*
X149020211Y-72650643D01*
X149020208Y-72650645D01*
X149015700Y-72653802D01*
X148853802Y-72815700D01*
X148722477Y-73003251D01*
X148720154Y-73008233D01*
X148720151Y-73008238D01*
X148714287Y-73020814D01*
X148625716Y-73210757D01*
X148624294Y-73216065D01*
X148624293Y-73216067D01*
X148573400Y-73406000D01*
X148566457Y-73431913D01*
X148546502Y-73660000D01*
X135928500Y-73660000D01*
X135928500Y-72811866D01*
X135921745Y-72749684D01*
X135870615Y-72613295D01*
X135783261Y-72496739D01*
X135666705Y-72409385D01*
X135530316Y-72358255D01*
X135468134Y-72351500D01*
X133771866Y-72351500D01*
X133709684Y-72358255D01*
X133573295Y-72409385D01*
X133456739Y-72496739D01*
X133369385Y-72613295D01*
X133318255Y-72749684D01*
X133311500Y-72811866D01*
X133311500Y-74508134D01*
X133318255Y-74570316D01*
X133369385Y-74706705D01*
X133456739Y-74823261D01*
X133573295Y-74910615D01*
X133709684Y-74961745D01*
X133720474Y-74962917D01*
X133722606Y-74963803D01*
X133725222Y-74964425D01*
X133725121Y-74964848D01*
X133786035Y-74990155D01*
X133826463Y-75048517D01*
X133828922Y-75119471D01*
X133792629Y-75180490D01*
X133783969Y-75187489D01*
X133780207Y-75190646D01*
X133775700Y-75193802D01*
X133613802Y-75355700D01*
X133482477Y-75543251D01*
X133480154Y-75548233D01*
X133480151Y-75548238D01*
X133480034Y-75548489D01*
X133385716Y-75750757D01*
X133326457Y-75971913D01*
X133306502Y-76200000D01*
X133326457Y-76428087D01*
X133385716Y-76649243D01*
X133388039Y-76654224D01*
X133388039Y-76654225D01*
X133480151Y-76851762D01*
X133480154Y-76851767D01*
X133482477Y-76856749D01*
X133613802Y-77044300D01*
X133775700Y-77206198D01*
X133780208Y-77209355D01*
X133780211Y-77209357D01*
X133858389Y-77264098D01*
X133963251Y-77337523D01*
X133968233Y-77339846D01*
X133968238Y-77339849D01*
X134002457Y-77355805D01*
X134055742Y-77402722D01*
X134075203Y-77470999D01*
X134054661Y-77538959D01*
X134002457Y-77584195D01*
X133968238Y-77600151D01*
X133968233Y-77600154D01*
X133963251Y-77602477D01*
X133858389Y-77675902D01*
X133780211Y-77730643D01*
X133780208Y-77730645D01*
X133775700Y-77733802D01*
X133613802Y-77895700D01*
X133482477Y-78083251D01*
X133480154Y-78088233D01*
X133480151Y-78088238D01*
X133388039Y-78285775D01*
X133385716Y-78290757D01*
X133326457Y-78511913D01*
X133306502Y-78740000D01*
X125730000Y-78740000D01*
X125730000Y-71086695D01*
X153577251Y-71086695D01*
X153577548Y-71091848D01*
X153577548Y-71091851D01*
X153583011Y-71186590D01*
X153590110Y-71309715D01*
X153591247Y-71314761D01*
X153591248Y-71314767D01*
X153599935Y-71353312D01*
X153639222Y-71527639D01*
X153723266Y-71734616D01*
X153839987Y-71925088D01*
X153986250Y-72093938D01*
X154158126Y-72236632D01*
X154187730Y-72253931D01*
X154231955Y-72279774D01*
X154280679Y-72331412D01*
X154293750Y-72401195D01*
X154267019Y-72466967D01*
X154226562Y-72500327D01*
X154218457Y-72504546D01*
X154209738Y-72510036D01*
X154039433Y-72637905D01*
X154031726Y-72644748D01*
X153884590Y-72798717D01*
X153878104Y-72806727D01*
X153758098Y-72982649D01*
X153753000Y-72991623D01*
X153663338Y-73184783D01*
X153659775Y-73194470D01*
X153604389Y-73394183D01*
X153605912Y-73402607D01*
X153618292Y-73406000D01*
X156258344Y-73406000D01*
X156271875Y-73402027D01*
X156273180Y-73392947D01*
X156231214Y-73225875D01*
X156227894Y-73216124D01*
X156142972Y-73020814D01*
X156138105Y-73011739D01*
X156022426Y-72832926D01*
X156016136Y-72824757D01*
X155872806Y-72667240D01*
X155865273Y-72660215D01*
X155698139Y-72528222D01*
X155689556Y-72522520D01*
X155652602Y-72502120D01*
X155602631Y-72451687D01*
X155587859Y-72382245D01*
X155612975Y-72315839D01*
X155640327Y-72289232D01*
X155689817Y-72253931D01*
X155819860Y-72161173D01*
X155978096Y-72003489D01*
X156003501Y-71968134D01*
X161251500Y-71968134D01*
X161258255Y-72030316D01*
X161309385Y-72166705D01*
X161396739Y-72283261D01*
X161513295Y-72370615D01*
X161649684Y-72421745D01*
X161711866Y-72428500D01*
X163408134Y-72428500D01*
X163470316Y-72421745D01*
X163606705Y-72370615D01*
X163723261Y-72283261D01*
X163781119Y-72206062D01*
X164338493Y-72206062D01*
X164347789Y-72218077D01*
X164398994Y-72253931D01*
X164408489Y-72259414D01*
X164605947Y-72351490D01*
X164616239Y-72355236D01*
X164826688Y-72411625D01*
X164837481Y-72413528D01*
X165054525Y-72432517D01*
X165065475Y-72432517D01*
X165282519Y-72413528D01*
X165293312Y-72411625D01*
X165503761Y-72355236D01*
X165514053Y-72351490D01*
X165711511Y-72259414D01*
X165721006Y-72253931D01*
X165773048Y-72217491D01*
X165781424Y-72207012D01*
X165774356Y-72193566D01*
X165548924Y-71968134D01*
X171411500Y-71968134D01*
X171418255Y-72030316D01*
X171469385Y-72166705D01*
X171556739Y-72283261D01*
X171673295Y-72370615D01*
X171809684Y-72421745D01*
X171871866Y-72428500D01*
X173568134Y-72428500D01*
X173630316Y-72421745D01*
X173766705Y-72370615D01*
X173883261Y-72283261D01*
X173941119Y-72206062D01*
X174498493Y-72206062D01*
X174507789Y-72218077D01*
X174558994Y-72253931D01*
X174568489Y-72259414D01*
X174765947Y-72351490D01*
X174776239Y-72355236D01*
X174986688Y-72411625D01*
X174997481Y-72413528D01*
X175214525Y-72432517D01*
X175225475Y-72432517D01*
X175442519Y-72413528D01*
X175453312Y-72411625D01*
X175663761Y-72355236D01*
X175674053Y-72351490D01*
X175871511Y-72259414D01*
X175881006Y-72253931D01*
X175933048Y-72217491D01*
X175941424Y-72207012D01*
X175934356Y-72193566D01*
X175232812Y-71492022D01*
X175218868Y-71484408D01*
X175217035Y-71484539D01*
X175210420Y-71488790D01*
X174504923Y-72194287D01*
X174498493Y-72206062D01*
X173941119Y-72206062D01*
X173970615Y-72166705D01*
X174021745Y-72030316D01*
X174028500Y-71968134D01*
X174028500Y-71964815D01*
X174052153Y-71897890D01*
X174098156Y-71862196D01*
X174097141Y-71860266D01*
X174108000Y-71854558D01*
X174108245Y-71854368D01*
X174108403Y-71854347D01*
X174146434Y-71834356D01*
X174847978Y-71132812D01*
X174855592Y-71118868D01*
X174855461Y-71117035D01*
X174851210Y-71110420D01*
X174145713Y-70404923D01*
X174103971Y-70382129D01*
X174093971Y-70379953D01*
X174043773Y-70329747D01*
X174028549Y-70276186D01*
X174028500Y-70275281D01*
X174028500Y-70271866D01*
X174027908Y-70266411D01*
X174022598Y-70217540D01*
X174021745Y-70209684D01*
X173970615Y-70073295D01*
X173940407Y-70032988D01*
X174498576Y-70032988D01*
X174505644Y-70046434D01*
X175207188Y-70747978D01*
X175221132Y-70755592D01*
X175222965Y-70755461D01*
X175229580Y-70751210D01*
X175935077Y-70045713D01*
X175941507Y-70033938D01*
X175932211Y-70021923D01*
X175881006Y-69986069D01*
X175871511Y-69980586D01*
X175674053Y-69888510D01*
X175663761Y-69884764D01*
X175453312Y-69828375D01*
X175442519Y-69826472D01*
X175225475Y-69807483D01*
X175214525Y-69807483D01*
X174997481Y-69826472D01*
X174986688Y-69828375D01*
X174776239Y-69884764D01*
X174765947Y-69888510D01*
X174568489Y-69980586D01*
X174558994Y-69986069D01*
X174506952Y-70022509D01*
X174498576Y-70032988D01*
X173940407Y-70032988D01*
X173883261Y-69956739D01*
X173766705Y-69869385D01*
X173630316Y-69818255D01*
X173568134Y-69811500D01*
X171871866Y-69811500D01*
X171809684Y-69818255D01*
X171673295Y-69869385D01*
X171556739Y-69956739D01*
X171469385Y-70073295D01*
X171418255Y-70209684D01*
X171411500Y-70271866D01*
X171411500Y-71968134D01*
X165548924Y-71968134D01*
X165072812Y-71492022D01*
X165058868Y-71484408D01*
X165057035Y-71484539D01*
X165050420Y-71488790D01*
X164344923Y-72194287D01*
X164338493Y-72206062D01*
X163781119Y-72206062D01*
X163810615Y-72166705D01*
X163861745Y-72030316D01*
X163868500Y-71968134D01*
X163868500Y-71964815D01*
X163892153Y-71897890D01*
X163938156Y-71862196D01*
X163937141Y-71860266D01*
X163948000Y-71854558D01*
X163948245Y-71854368D01*
X163948403Y-71854347D01*
X163986434Y-71834356D01*
X164687978Y-71132812D01*
X164694356Y-71121132D01*
X165424408Y-71121132D01*
X165424539Y-71122965D01*
X165428790Y-71129580D01*
X166134287Y-71835077D01*
X166146062Y-71841507D01*
X166158077Y-71832211D01*
X166193931Y-71781006D01*
X166199414Y-71771511D01*
X166291490Y-71574053D01*
X166295236Y-71563761D01*
X166351625Y-71353312D01*
X166353528Y-71342519D01*
X166372517Y-71125475D01*
X166372517Y-71114525D01*
X166353528Y-70897481D01*
X166351625Y-70886688D01*
X166295236Y-70676239D01*
X166291490Y-70665947D01*
X166199414Y-70468489D01*
X166193931Y-70458994D01*
X166157491Y-70406952D01*
X166147012Y-70398576D01*
X166133566Y-70405644D01*
X165432022Y-71107188D01*
X165424408Y-71121132D01*
X164694356Y-71121132D01*
X164695592Y-71118868D01*
X164695461Y-71117035D01*
X164691210Y-71110420D01*
X163985713Y-70404923D01*
X163943971Y-70382129D01*
X163933971Y-70379953D01*
X163883773Y-70329747D01*
X163868549Y-70276186D01*
X163868500Y-70275281D01*
X163868500Y-70271866D01*
X163867908Y-70266411D01*
X163862598Y-70217540D01*
X163861745Y-70209684D01*
X163810615Y-70073295D01*
X163780407Y-70032988D01*
X164338576Y-70032988D01*
X164345644Y-70046434D01*
X165047188Y-70747978D01*
X165061132Y-70755592D01*
X165062965Y-70755461D01*
X165069580Y-70751210D01*
X165775077Y-70045713D01*
X165781507Y-70033938D01*
X165772211Y-70021923D01*
X165721006Y-69986069D01*
X165711511Y-69980586D01*
X165514053Y-69888510D01*
X165503761Y-69884764D01*
X165293312Y-69828375D01*
X165282519Y-69826472D01*
X165065475Y-69807483D01*
X165054525Y-69807483D01*
X164837481Y-69826472D01*
X164826688Y-69828375D01*
X164616239Y-69884764D01*
X164605947Y-69888510D01*
X164408489Y-69980586D01*
X164398994Y-69986069D01*
X164346952Y-70022509D01*
X164338576Y-70032988D01*
X163780407Y-70032988D01*
X163723261Y-69956739D01*
X163606705Y-69869385D01*
X163470316Y-69818255D01*
X163408134Y-69811500D01*
X161711866Y-69811500D01*
X161649684Y-69818255D01*
X161513295Y-69869385D01*
X161396739Y-69956739D01*
X161309385Y-70073295D01*
X161258255Y-70209684D01*
X161251500Y-70271866D01*
X161251500Y-71968134D01*
X156003501Y-71968134D01*
X156037594Y-71920689D01*
X156105435Y-71826277D01*
X156108453Y-71822077D01*
X156119601Y-71799522D01*
X156205136Y-71626453D01*
X156205137Y-71626451D01*
X156207430Y-71621811D01*
X156272370Y-71408069D01*
X156301529Y-71186590D01*
X156303156Y-71120000D01*
X156284852Y-70897361D01*
X156230431Y-70680702D01*
X156141354Y-70475840D01*
X156046842Y-70329747D01*
X156022822Y-70292617D01*
X156022820Y-70292614D01*
X156020014Y-70288277D01*
X156009012Y-70276186D01*
X155872798Y-70126488D01*
X155841746Y-70062642D01*
X155850141Y-69992143D01*
X155895317Y-69937375D01*
X155921761Y-69923706D01*
X156028297Y-69883767D01*
X156036705Y-69880615D01*
X156153261Y-69793261D01*
X156240615Y-69676705D01*
X156291745Y-69540316D01*
X156298500Y-69478134D01*
X156298500Y-67681866D01*
X156291745Y-67619684D01*
X156240615Y-67483295D01*
X156153261Y-67366739D01*
X156036705Y-67279385D01*
X155900316Y-67228255D01*
X155838134Y-67221500D01*
X154041866Y-67221500D01*
X153979684Y-67228255D01*
X153843295Y-67279385D01*
X153726739Y-67366739D01*
X153639385Y-67483295D01*
X153588255Y-67619684D01*
X153581500Y-67681866D01*
X153581500Y-69478134D01*
X153588255Y-69540316D01*
X153639385Y-69676705D01*
X153726739Y-69793261D01*
X153843295Y-69880615D01*
X153851704Y-69883767D01*
X153851705Y-69883768D01*
X153960451Y-69924535D01*
X154017216Y-69967176D01*
X154041916Y-70033738D01*
X154026709Y-70103087D01*
X154007316Y-70129568D01*
X153880629Y-70262138D01*
X153754743Y-70446680D01*
X153660688Y-70649305D01*
X153600989Y-70864570D01*
X153577251Y-71086695D01*
X125730000Y-71086695D01*
X125730000Y-62230000D01*
X134614647Y-62230000D01*
X134634022Y-62451463D01*
X134691560Y-62666196D01*
X134693882Y-62671177D01*
X134693883Y-62671178D01*
X134783186Y-62862689D01*
X134783189Y-62862694D01*
X134785512Y-62867676D01*
X134913023Y-63049781D01*
X135070219Y-63206977D01*
X135074727Y-63210134D01*
X135074730Y-63210136D01*
X135160635Y-63270287D01*
X135204963Y-63325744D01*
X135212272Y-63396363D01*
X135180241Y-63459724D01*
X135119040Y-63495709D01*
X135088364Y-63499500D01*
X135079866Y-63499500D01*
X135017684Y-63506255D01*
X134881295Y-63557385D01*
X134764739Y-63644739D01*
X134677385Y-63761295D01*
X134626255Y-63897684D01*
X134619500Y-63959866D01*
X134619500Y-65580134D01*
X134626255Y-65642316D01*
X134677385Y-65778705D01*
X134764739Y-65895261D01*
X134881295Y-65982615D01*
X135017684Y-66033745D01*
X135079866Y-66040500D01*
X135992405Y-66040500D01*
X136060526Y-66060502D01*
X136081501Y-66077405D01*
X136852879Y-66848784D01*
X136886904Y-66911096D01*
X136889093Y-66924709D01*
X136906458Y-67089928D01*
X136965473Y-67271556D01*
X137060960Y-67436944D01*
X137065378Y-67441851D01*
X137065379Y-67441852D01*
X137110265Y-67491703D01*
X137188747Y-67578866D01*
X137343248Y-67691118D01*
X137349276Y-67693802D01*
X137349278Y-67693803D01*
X137511681Y-67766109D01*
X137517712Y-67768794D01*
X137611113Y-67788647D01*
X137698056Y-67807128D01*
X137698061Y-67807128D01*
X137704513Y-67808500D01*
X137895487Y-67808500D01*
X137901939Y-67807128D01*
X137901944Y-67807128D01*
X137988887Y-67788647D01*
X138082288Y-67768794D01*
X138088319Y-67766109D01*
X138250722Y-67693803D01*
X138250724Y-67693802D01*
X138256752Y-67691118D01*
X138411253Y-67578866D01*
X138489735Y-67491703D01*
X138534621Y-67441852D01*
X138534622Y-67441851D01*
X138539040Y-67436944D01*
X138634527Y-67271556D01*
X138693542Y-67089928D01*
X138713504Y-66900000D01*
X138693542Y-66710072D01*
X138634527Y-66528444D01*
X138539040Y-66363056D01*
X138411253Y-66221134D01*
X138256752Y-66108882D01*
X138250724Y-66106198D01*
X138250722Y-66106197D01*
X138088319Y-66033891D01*
X138088318Y-66033891D01*
X138082288Y-66031206D01*
X137988888Y-66011353D01*
X137901944Y-65992872D01*
X137901939Y-65992872D01*
X137895487Y-65991500D01*
X137839595Y-65991500D01*
X137771474Y-65971498D01*
X137750499Y-65954595D01*
X137624681Y-65828777D01*
X147895777Y-65828777D01*
X147905074Y-65840793D01*
X147948069Y-65870898D01*
X147957555Y-65876376D01*
X148148993Y-65965645D01*
X148159285Y-65969391D01*
X148363309Y-66024059D01*
X148374104Y-66025962D01*
X148584525Y-66044372D01*
X148595475Y-66044372D01*
X148805896Y-66025962D01*
X148816691Y-66024059D01*
X149020715Y-65969391D01*
X149031007Y-65965645D01*
X149222445Y-65876376D01*
X149231931Y-65870898D01*
X149275764Y-65840207D01*
X149284139Y-65829729D01*
X149277071Y-65816281D01*
X148602812Y-65142022D01*
X148588868Y-65134408D01*
X148587035Y-65134539D01*
X148580420Y-65138790D01*
X147902207Y-65817003D01*
X147895777Y-65828777D01*
X137624681Y-65828777D01*
X137197404Y-65401499D01*
X137163379Y-65339187D01*
X137160500Y-65312404D01*
X137160500Y-64775475D01*
X147315628Y-64775475D01*
X147334038Y-64985896D01*
X147335941Y-64996691D01*
X147390609Y-65200715D01*
X147394355Y-65211007D01*
X147483623Y-65402441D01*
X147489103Y-65411932D01*
X147519794Y-65455765D01*
X147530271Y-65464140D01*
X147543718Y-65457072D01*
X148217978Y-64782812D01*
X148224356Y-64771132D01*
X148954408Y-64771132D01*
X148954539Y-64772965D01*
X148958790Y-64779580D01*
X149637003Y-65457793D01*
X149648777Y-65464223D01*
X149660793Y-65454926D01*
X149690897Y-65411932D01*
X149696377Y-65402441D01*
X149785645Y-65211007D01*
X149789391Y-65200715D01*
X149844059Y-64996691D01*
X149845962Y-64985896D01*
X149864372Y-64775475D01*
X149864372Y-64764525D01*
X149845962Y-64554104D01*
X149844059Y-64543309D01*
X149789391Y-64339285D01*
X149785645Y-64328993D01*
X149779918Y-64316711D01*
X163830000Y-64316711D01*
X163830249Y-64322306D01*
X163844521Y-64482212D01*
X163846503Y-64493226D01*
X163903361Y-64701065D01*
X163907255Y-64711538D01*
X164000026Y-64906037D01*
X164005710Y-64915648D01*
X164131459Y-65090644D01*
X164138758Y-65099100D01*
X164293500Y-65249056D01*
X164302197Y-65256098D01*
X164481040Y-65376276D01*
X164490843Y-65381665D01*
X164688143Y-65468274D01*
X164698738Y-65471840D01*
X164828385Y-65502966D01*
X164842470Y-65502261D01*
X164846000Y-65493382D01*
X164846000Y-65492498D01*
X165354000Y-65492498D01*
X165358106Y-65506480D01*
X165368352Y-65508070D01*
X165370475Y-65507619D01*
X165576435Y-65444257D01*
X165586780Y-65440036D01*
X165778267Y-65341202D01*
X165787698Y-65335217D01*
X165958663Y-65204032D01*
X165966876Y-65196479D01*
X166111909Y-65037090D01*
X166118664Y-65028190D01*
X166233166Y-64845657D01*
X166238247Y-64835687D01*
X166253605Y-64797483D01*
X166297572Y-64741739D01*
X166364697Y-64718614D01*
X166433668Y-64735451D01*
X166484238Y-64790236D01*
X166510673Y-64845657D01*
X166542007Y-64911351D01*
X166674351Y-65095526D01*
X166678381Y-65099431D01*
X166832781Y-65249056D01*
X166837217Y-65253355D01*
X166902273Y-65297070D01*
X167020805Y-65376721D01*
X167020810Y-65376724D01*
X167025458Y-65379847D01*
X167030590Y-65382100D01*
X167030594Y-65382102D01*
X167158299Y-65438161D01*
X167233124Y-65471007D01*
X167238582Y-65472317D01*
X167238581Y-65472317D01*
X167448192Y-65522640D01*
X167448198Y-65522641D01*
X167453651Y-65523950D01*
X167566860Y-65530478D01*
X167674463Y-65536683D01*
X167674466Y-65536683D01*
X167680069Y-65537006D01*
X167905219Y-65509759D01*
X167910581Y-65508109D01*
X167910583Y-65508109D01*
X168026927Y-65472317D01*
X168121987Y-65443073D01*
X168222753Y-65391063D01*
X168318536Y-65341626D01*
X168318537Y-65341626D01*
X168323519Y-65339054D01*
X168328520Y-65335217D01*
X168431129Y-65256482D01*
X168503447Y-65200991D01*
X168595859Y-65099431D01*
X168652308Y-65037395D01*
X168652310Y-65037392D01*
X168656081Y-65033248D01*
X168729685Y-64915913D01*
X168773616Y-64845882D01*
X168773618Y-64845878D01*
X168776599Y-64841126D01*
X168793898Y-64798094D01*
X168837864Y-64742351D01*
X168904989Y-64719226D01*
X168973960Y-64736063D01*
X169024530Y-64790848D01*
X169050673Y-64845657D01*
X169082007Y-64911351D01*
X169214351Y-65095526D01*
X169218381Y-65099431D01*
X169372781Y-65249056D01*
X169377217Y-65253355D01*
X169442273Y-65297070D01*
X169560805Y-65376721D01*
X169560810Y-65376724D01*
X169565458Y-65379847D01*
X169570590Y-65382100D01*
X169570594Y-65382102D01*
X169698299Y-65438161D01*
X169773124Y-65471007D01*
X169778582Y-65472317D01*
X169778581Y-65472317D01*
X169988192Y-65522640D01*
X169988198Y-65522641D01*
X169993651Y-65523950D01*
X170106860Y-65530478D01*
X170214463Y-65536683D01*
X170214466Y-65536683D01*
X170220069Y-65537006D01*
X170445219Y-65509759D01*
X170450581Y-65508109D01*
X170450583Y-65508109D01*
X170566927Y-65472317D01*
X170661987Y-65443073D01*
X170762753Y-65391063D01*
X170858536Y-65341626D01*
X170858537Y-65341626D01*
X170863519Y-65339054D01*
X170868520Y-65335217D01*
X170971129Y-65256482D01*
X171043447Y-65200991D01*
X171135859Y-65099431D01*
X171192308Y-65037395D01*
X171192310Y-65037392D01*
X171196081Y-65033248D01*
X171269685Y-64915913D01*
X171313616Y-64845882D01*
X171313618Y-64845878D01*
X171316599Y-64841126D01*
X171401190Y-64630699D01*
X171447181Y-64408618D01*
X171447608Y-64401210D01*
X171450395Y-64352879D01*
X171450395Y-64352875D01*
X171450500Y-64351056D01*
X171450500Y-62680465D01*
X171435474Y-62512105D01*
X171375630Y-62293349D01*
X171361602Y-62263937D01*
X171280410Y-62093716D01*
X171280409Y-62093715D01*
X171277993Y-62088649D01*
X171274715Y-62084087D01*
X171148926Y-61909034D01*
X171148924Y-61909032D01*
X171145649Y-61904474D01*
X171041474Y-61803521D01*
X170986811Y-61750548D01*
X170986808Y-61750546D01*
X170982783Y-61746645D01*
X170855249Y-61660946D01*
X170799195Y-61623279D01*
X170799190Y-61623276D01*
X170794542Y-61620153D01*
X170789410Y-61617900D01*
X170789406Y-61617898D01*
X170650511Y-61556927D01*
X170586876Y-61528993D01*
X170553122Y-61520890D01*
X170371808Y-61477360D01*
X170371802Y-61477359D01*
X170366349Y-61476050D01*
X170253140Y-61469522D01*
X170145537Y-61463317D01*
X170145534Y-61463317D01*
X170139931Y-61462994D01*
X169914781Y-61490241D01*
X169909419Y-61491891D01*
X169909417Y-61491891D01*
X169890408Y-61497739D01*
X169698013Y-61556927D01*
X169693029Y-61559499D01*
X169693030Y-61559499D01*
X169579885Y-61617898D01*
X169496481Y-61660946D01*
X169492033Y-61664359D01*
X169480326Y-61673342D01*
X169316553Y-61799009D01*
X169233894Y-61889850D01*
X169223840Y-61900900D01*
X169163919Y-61966752D01*
X169160938Y-61971503D01*
X169160938Y-61971504D01*
X169084275Y-62093716D01*
X169043401Y-62158874D01*
X169041215Y-62164313D01*
X169026103Y-62201905D01*
X168982136Y-62257649D01*
X168915011Y-62280774D01*
X168846040Y-62263937D01*
X168795470Y-62209152D01*
X168740410Y-62093716D01*
X168740409Y-62093715D01*
X168737993Y-62088649D01*
X168734715Y-62084087D01*
X168608926Y-61909034D01*
X168608924Y-61909032D01*
X168605649Y-61904474D01*
X168501474Y-61803521D01*
X168446811Y-61750548D01*
X168446808Y-61750546D01*
X168442783Y-61746645D01*
X168315249Y-61660946D01*
X168259195Y-61623279D01*
X168259190Y-61623276D01*
X168254542Y-61620153D01*
X168249410Y-61617900D01*
X168249406Y-61617898D01*
X168110511Y-61556927D01*
X168046876Y-61528993D01*
X168013122Y-61520890D01*
X167831808Y-61477360D01*
X167831802Y-61477359D01*
X167826349Y-61476050D01*
X167713140Y-61469522D01*
X167605537Y-61463317D01*
X167605534Y-61463317D01*
X167599931Y-61462994D01*
X167374781Y-61490241D01*
X167369419Y-61491891D01*
X167369417Y-61491891D01*
X167350408Y-61497739D01*
X167158013Y-61556927D01*
X167153029Y-61559499D01*
X167153030Y-61559499D01*
X167039885Y-61617898D01*
X166956481Y-61660946D01*
X166952033Y-61664359D01*
X166940326Y-61673342D01*
X166776553Y-61799009D01*
X166693894Y-61889850D01*
X166683840Y-61900900D01*
X166623919Y-61966752D01*
X166620938Y-61971503D01*
X166620938Y-61971504D01*
X166544275Y-62093716D01*
X166503401Y-62158874D01*
X166485849Y-62202537D01*
X166441884Y-62258279D01*
X166374759Y-62281404D01*
X166305788Y-62264567D01*
X166255217Y-62209783D01*
X166199972Y-62093959D01*
X166194290Y-62084352D01*
X166068541Y-61909356D01*
X166061242Y-61900900D01*
X165906500Y-61750944D01*
X165897803Y-61743902D01*
X165718960Y-61623724D01*
X165709157Y-61618335D01*
X165511857Y-61531726D01*
X165501262Y-61528160D01*
X165371615Y-61497034D01*
X165357530Y-61497739D01*
X165354000Y-61506618D01*
X165354000Y-65492498D01*
X164846000Y-65492498D01*
X164846000Y-63772115D01*
X164841525Y-63756876D01*
X164840135Y-63755671D01*
X164832452Y-63754000D01*
X163848115Y-63754000D01*
X163832876Y-63758475D01*
X163831671Y-63759865D01*
X163830000Y-63767548D01*
X163830000Y-64316711D01*
X149779918Y-64316711D01*
X149696377Y-64137559D01*
X149690897Y-64128068D01*
X149660206Y-64084235D01*
X149649729Y-64075860D01*
X149636282Y-64082928D01*
X148962022Y-64757188D01*
X148954408Y-64771132D01*
X148224356Y-64771132D01*
X148225592Y-64768868D01*
X148225461Y-64767035D01*
X148221210Y-64760420D01*
X147542997Y-64082207D01*
X147531223Y-64075777D01*
X147519207Y-64085074D01*
X147489103Y-64128068D01*
X147483623Y-64137559D01*
X147394355Y-64328993D01*
X147390609Y-64339285D01*
X147335941Y-64543309D01*
X147334038Y-64554104D01*
X147315628Y-64764525D01*
X147315628Y-64775475D01*
X137160500Y-64775475D01*
X137160500Y-63959866D01*
X137153745Y-63897684D01*
X137102615Y-63761295D01*
X137015261Y-63644739D01*
X136898705Y-63557385D01*
X136762316Y-63506255D01*
X136700134Y-63499500D01*
X136691636Y-63499500D01*
X136623515Y-63479498D01*
X136577022Y-63425842D01*
X136566918Y-63355568D01*
X136596412Y-63290988D01*
X136619365Y-63270287D01*
X136705270Y-63210136D01*
X136705273Y-63210134D01*
X136709781Y-63206977D01*
X136866977Y-63049781D01*
X136994488Y-62867676D01*
X136996811Y-62862694D01*
X136996814Y-62862689D01*
X137086117Y-62671178D01*
X137086118Y-62671177D01*
X137088440Y-62666196D01*
X137145978Y-62451463D01*
X137165353Y-62230000D01*
X147314647Y-62230000D01*
X147334022Y-62451463D01*
X147391560Y-62666196D01*
X147393882Y-62671177D01*
X147393883Y-62671178D01*
X147483186Y-62862689D01*
X147483189Y-62862694D01*
X147485512Y-62867676D01*
X147613023Y-63049781D01*
X147770219Y-63206977D01*
X147774727Y-63210134D01*
X147774730Y-63210136D01*
X147821842Y-63243124D01*
X147952323Y-63334488D01*
X147957305Y-63336811D01*
X147957310Y-63336814D01*
X148062965Y-63386081D01*
X148116250Y-63432998D01*
X148135711Y-63501275D01*
X148115169Y-63569235D01*
X148062965Y-63614471D01*
X147957559Y-63663623D01*
X147948068Y-63669103D01*
X147904235Y-63699794D01*
X147895860Y-63710271D01*
X147902928Y-63723718D01*
X148577188Y-64397978D01*
X148591132Y-64405592D01*
X148592965Y-64405461D01*
X148599580Y-64401210D01*
X149277793Y-63722997D01*
X149284223Y-63711223D01*
X149274926Y-63699207D01*
X149231931Y-63669102D01*
X149222445Y-63663624D01*
X149117035Y-63614471D01*
X149063750Y-63567554D01*
X149044289Y-63499277D01*
X149064831Y-63431317D01*
X149117035Y-63386081D01*
X149222690Y-63336814D01*
X149222695Y-63336811D01*
X149227677Y-63334488D01*
X149358158Y-63243124D01*
X149379922Y-63227885D01*
X163830000Y-63227885D01*
X163834475Y-63243124D01*
X163835865Y-63244329D01*
X163843548Y-63246000D01*
X164827885Y-63246000D01*
X164843124Y-63241525D01*
X164844329Y-63240135D01*
X164846000Y-63232452D01*
X164846000Y-61507502D01*
X164841894Y-61493520D01*
X164831648Y-61491930D01*
X164829525Y-61492381D01*
X164623565Y-61555743D01*
X164613220Y-61559964D01*
X164421733Y-61658798D01*
X164412302Y-61664783D01*
X164241337Y-61795968D01*
X164233124Y-61803521D01*
X164088091Y-61962910D01*
X164081336Y-61971810D01*
X163966834Y-62154343D01*
X163961753Y-62164313D01*
X163881383Y-62364240D01*
X163878152Y-62374940D01*
X163834255Y-62586916D01*
X163833052Y-62596053D01*
X163830105Y-62647160D01*
X163830000Y-62650806D01*
X163830000Y-63227885D01*
X149379922Y-63227885D01*
X149405270Y-63210136D01*
X149405273Y-63210134D01*
X149409781Y-63206977D01*
X149566977Y-63049781D01*
X149694488Y-62867676D01*
X149696811Y-62862694D01*
X149696814Y-62862689D01*
X149786117Y-62671178D01*
X149786118Y-62671177D01*
X149788440Y-62666196D01*
X149845978Y-62451463D01*
X149865353Y-62230000D01*
X149845978Y-62008537D01*
X149788440Y-61793804D01*
X149768454Y-61750944D01*
X149696814Y-61597311D01*
X149696811Y-61597306D01*
X149694488Y-61592324D01*
X149691331Y-61587815D01*
X149570136Y-61414730D01*
X149570134Y-61414727D01*
X149566977Y-61410219D01*
X149409781Y-61253023D01*
X149405273Y-61249866D01*
X149405270Y-61249864D01*
X149329505Y-61196813D01*
X149227677Y-61125512D01*
X149222695Y-61123189D01*
X149222690Y-61123186D01*
X149117627Y-61074195D01*
X149064342Y-61027278D01*
X149044881Y-60959001D01*
X149065423Y-60891041D01*
X149117627Y-60845805D01*
X149222690Y-60796814D01*
X149222695Y-60796811D01*
X149227677Y-60794488D01*
X149329505Y-60723187D01*
X149405270Y-60670136D01*
X149405273Y-60670134D01*
X149409781Y-60666977D01*
X149566977Y-60509781D01*
X149694488Y-60327676D01*
X149696811Y-60322694D01*
X149696814Y-60322689D01*
X149786117Y-60131178D01*
X149786118Y-60131177D01*
X149788440Y-60126196D01*
X149845978Y-59911463D01*
X149865353Y-59690000D01*
X149845978Y-59468537D01*
X149788440Y-59253804D01*
X149786117Y-59248822D01*
X149696814Y-59057311D01*
X149696811Y-59057306D01*
X149694488Y-59052324D01*
X149566977Y-58870219D01*
X149409781Y-58713023D01*
X149405273Y-58709866D01*
X149405270Y-58709864D01*
X149329505Y-58656813D01*
X149227677Y-58585512D01*
X149222695Y-58583189D01*
X149222690Y-58583186D01*
X149117627Y-58534195D01*
X149064342Y-58487278D01*
X149044881Y-58419001D01*
X149065423Y-58351041D01*
X149117627Y-58305805D01*
X149222690Y-58256814D01*
X149222695Y-58256811D01*
X149227677Y-58254488D01*
X149329505Y-58183187D01*
X149405270Y-58130136D01*
X149405273Y-58130134D01*
X149409781Y-58126977D01*
X149566977Y-57969781D01*
X149694488Y-57787676D01*
X149696811Y-57782694D01*
X149696814Y-57782689D01*
X149786117Y-57591178D01*
X149786118Y-57591177D01*
X149788440Y-57586196D01*
X149845978Y-57371463D01*
X149865353Y-57150000D01*
X149845978Y-56928537D01*
X149788440Y-56713804D01*
X149786117Y-56708822D01*
X149696814Y-56517311D01*
X149696811Y-56517306D01*
X149694488Y-56512324D01*
X149566977Y-56330219D01*
X149409781Y-56173023D01*
X149405273Y-56169866D01*
X149405270Y-56169864D01*
X149329505Y-56116813D01*
X149227677Y-56045512D01*
X149222695Y-56043189D01*
X149222690Y-56043186D01*
X149117627Y-55994195D01*
X149064342Y-55947278D01*
X149044881Y-55879001D01*
X149065423Y-55811041D01*
X149117627Y-55765805D01*
X149222690Y-55716814D01*
X149222695Y-55716811D01*
X149227677Y-55714488D01*
X149399840Y-55593938D01*
X149405270Y-55590136D01*
X149405273Y-55590134D01*
X149409781Y-55586977D01*
X149566977Y-55429781D01*
X149573344Y-55420689D01*
X149691331Y-55252185D01*
X149691332Y-55252183D01*
X149694488Y-55247676D01*
X149696811Y-55242694D01*
X149696814Y-55242689D01*
X149786117Y-55051178D01*
X149786118Y-55051177D01*
X149788440Y-55046196D01*
X149793413Y-55027639D01*
X149844554Y-54836776D01*
X149845978Y-54831463D01*
X149865353Y-54610000D01*
X149863314Y-54586695D01*
X161222251Y-54586695D01*
X161222548Y-54591848D01*
X161222548Y-54591851D01*
X161228011Y-54686590D01*
X161235110Y-54809715D01*
X161236247Y-54814761D01*
X161236248Y-54814767D01*
X161256119Y-54902939D01*
X161284222Y-55027639D01*
X161368266Y-55234616D01*
X161484987Y-55425088D01*
X161631250Y-55593938D01*
X161803126Y-55736632D01*
X161996000Y-55849338D01*
X162204692Y-55929030D01*
X162209760Y-55930061D01*
X162209763Y-55930062D01*
X162315430Y-55951560D01*
X162423597Y-55973567D01*
X162428772Y-55973757D01*
X162428774Y-55973757D01*
X162641673Y-55981564D01*
X162641677Y-55981564D01*
X162646837Y-55981753D01*
X162651957Y-55981097D01*
X162651959Y-55981097D01*
X162863288Y-55954025D01*
X162863289Y-55954025D01*
X162868416Y-55953368D01*
X162873366Y-55951883D01*
X163077429Y-55890661D01*
X163077434Y-55890659D01*
X163082384Y-55889174D01*
X163282994Y-55790896D01*
X163464860Y-55661173D01*
X163623096Y-55503489D01*
X163682594Y-55420689D01*
X163750435Y-55326277D01*
X163753453Y-55322077D01*
X163852430Y-55121811D01*
X163917370Y-54908069D01*
X163946529Y-54686590D01*
X163948156Y-54620000D01*
X163929852Y-54397361D01*
X163875431Y-54180702D01*
X163786354Y-53975840D01*
X163665014Y-53788277D01*
X163514670Y-53623051D01*
X163510619Y-53619852D01*
X163510615Y-53619848D01*
X163343414Y-53487800D01*
X163343410Y-53487798D01*
X163339359Y-53484598D01*
X163298053Y-53461796D01*
X163248084Y-53411364D01*
X163233312Y-53341921D01*
X163258428Y-53275516D01*
X163285780Y-53248909D01*
X163329603Y-53217650D01*
X163464860Y-53121173D01*
X163623096Y-52963489D01*
X163682594Y-52880689D01*
X163750435Y-52786277D01*
X163753453Y-52782077D01*
X163852430Y-52581811D01*
X163917370Y-52368069D01*
X163946529Y-52146590D01*
X163948156Y-52080000D01*
X163929852Y-51857361D01*
X163875431Y-51640702D01*
X163786354Y-51435840D01*
X163665014Y-51248277D01*
X163514670Y-51083051D01*
X163510619Y-51079852D01*
X163510615Y-51079848D01*
X163343414Y-50947800D01*
X163343410Y-50947798D01*
X163339359Y-50944598D01*
X163298053Y-50921796D01*
X163248084Y-50871364D01*
X163233312Y-50801921D01*
X163258428Y-50735516D01*
X163285780Y-50708909D01*
X163329603Y-50677650D01*
X163464860Y-50581173D01*
X163623096Y-50423489D01*
X163682594Y-50340689D01*
X163750435Y-50246277D01*
X163753453Y-50242077D01*
X163792812Y-50162441D01*
X163850136Y-50046453D01*
X163850137Y-50046451D01*
X163852430Y-50041811D01*
X163917370Y-49828069D01*
X163946529Y-49606590D01*
X163948156Y-49540000D01*
X163929852Y-49317361D01*
X163875431Y-49100702D01*
X163786354Y-48895840D01*
X163665014Y-48708277D01*
X163661532Y-48704450D01*
X163517798Y-48546488D01*
X163486746Y-48482642D01*
X163495141Y-48412143D01*
X163540317Y-48357375D01*
X163566761Y-48343706D01*
X163673297Y-48303767D01*
X163681705Y-48300615D01*
X163798261Y-48213261D01*
X163885615Y-48096705D01*
X163936745Y-47960316D01*
X163943500Y-47898134D01*
X163943500Y-46101866D01*
X163936745Y-46039684D01*
X163885615Y-45903295D01*
X163798261Y-45786739D01*
X163681705Y-45699385D01*
X163545316Y-45648255D01*
X163483134Y-45641500D01*
X161686866Y-45641500D01*
X161624684Y-45648255D01*
X161488295Y-45699385D01*
X161371739Y-45786739D01*
X161284385Y-45903295D01*
X161233255Y-46039684D01*
X161226500Y-46101866D01*
X161226500Y-47898134D01*
X161233255Y-47960316D01*
X161284385Y-48096705D01*
X161371739Y-48213261D01*
X161488295Y-48300615D01*
X161496704Y-48303767D01*
X161496705Y-48303768D01*
X161605451Y-48344535D01*
X161662216Y-48387176D01*
X161686916Y-48453738D01*
X161671709Y-48523087D01*
X161652316Y-48549568D01*
X161525629Y-48682138D01*
X161399743Y-48866680D01*
X161305688Y-49069305D01*
X161245989Y-49284570D01*
X161222251Y-49506695D01*
X161222548Y-49511848D01*
X161222548Y-49511851D01*
X161228011Y-49606590D01*
X161235110Y-49729715D01*
X161236247Y-49734761D01*
X161236248Y-49734767D01*
X161256119Y-49822939D01*
X161284222Y-49947639D01*
X161368266Y-50154616D01*
X161484987Y-50345088D01*
X161631250Y-50513938D01*
X161803126Y-50656632D01*
X161853050Y-50685805D01*
X161876445Y-50699476D01*
X161925169Y-50751114D01*
X161938240Y-50820897D01*
X161911509Y-50886669D01*
X161871055Y-50920027D01*
X161858607Y-50926507D01*
X161854474Y-50929610D01*
X161854471Y-50929612D01*
X161830247Y-50947800D01*
X161679965Y-51060635D01*
X161525629Y-51222138D01*
X161399743Y-51406680D01*
X161305688Y-51609305D01*
X161245989Y-51824570D01*
X161222251Y-52046695D01*
X161222548Y-52051848D01*
X161222548Y-52051851D01*
X161228011Y-52146590D01*
X161235110Y-52269715D01*
X161236247Y-52274761D01*
X161236248Y-52274767D01*
X161256119Y-52362939D01*
X161284222Y-52487639D01*
X161368266Y-52694616D01*
X161484987Y-52885088D01*
X161631250Y-53053938D01*
X161803126Y-53196632D01*
X161853050Y-53225805D01*
X161876445Y-53239476D01*
X161925169Y-53291114D01*
X161938240Y-53360897D01*
X161911509Y-53426669D01*
X161871055Y-53460027D01*
X161858607Y-53466507D01*
X161854474Y-53469610D01*
X161854471Y-53469612D01*
X161830247Y-53487800D01*
X161679965Y-53600635D01*
X161525629Y-53762138D01*
X161399743Y-53946680D01*
X161305688Y-54149305D01*
X161245989Y-54364570D01*
X161222251Y-54586695D01*
X149863314Y-54586695D01*
X149845978Y-54388537D01*
X149791633Y-54185720D01*
X149789863Y-54179114D01*
X149789862Y-54179112D01*
X149788440Y-54173804D01*
X149698343Y-53980590D01*
X149696814Y-53977311D01*
X149696811Y-53977306D01*
X149694488Y-53972324D01*
X149691331Y-53967815D01*
X149570136Y-53794730D01*
X149570134Y-53794727D01*
X149566977Y-53790219D01*
X149409781Y-53633023D01*
X149405273Y-53629866D01*
X149405270Y-53629864D01*
X149329505Y-53576813D01*
X149227677Y-53505512D01*
X149222695Y-53503189D01*
X149222690Y-53503186D01*
X149117627Y-53454195D01*
X149064342Y-53407278D01*
X149044881Y-53339001D01*
X149065423Y-53271041D01*
X149117627Y-53225805D01*
X149222690Y-53176814D01*
X149222695Y-53176811D01*
X149227677Y-53174488D01*
X149399840Y-53053938D01*
X149405270Y-53050136D01*
X149405273Y-53050134D01*
X149409781Y-53046977D01*
X149566977Y-52889781D01*
X149573344Y-52880689D01*
X149691331Y-52712185D01*
X149691332Y-52712183D01*
X149694488Y-52707676D01*
X149696811Y-52702694D01*
X149696814Y-52702689D01*
X149786117Y-52511178D01*
X149786118Y-52511177D01*
X149788440Y-52506196D01*
X149793413Y-52487639D01*
X149844554Y-52296776D01*
X149845978Y-52291463D01*
X149865353Y-52070000D01*
X149845978Y-51848537D01*
X149791633Y-51645720D01*
X149789863Y-51639114D01*
X149789862Y-51639112D01*
X149788440Y-51633804D01*
X149698343Y-51440590D01*
X149696814Y-51437311D01*
X149696811Y-51437306D01*
X149694488Y-51432324D01*
X149691331Y-51427815D01*
X149570136Y-51254730D01*
X149570134Y-51254727D01*
X149566977Y-51250219D01*
X149409781Y-51093023D01*
X149405273Y-51089866D01*
X149405270Y-51089864D01*
X149329505Y-51036813D01*
X149227677Y-50965512D01*
X149222695Y-50963189D01*
X149222690Y-50963186D01*
X149117035Y-50913919D01*
X149063750Y-50867002D01*
X149044289Y-50798725D01*
X149064831Y-50730765D01*
X149117035Y-50685529D01*
X149222445Y-50636376D01*
X149231931Y-50630898D01*
X149275764Y-50600207D01*
X149284139Y-50589729D01*
X149277071Y-50576281D01*
X148602812Y-49902022D01*
X148588868Y-49894408D01*
X148587035Y-49894539D01*
X148580420Y-49898790D01*
X147902207Y-50577003D01*
X147895777Y-50588777D01*
X147905074Y-50600793D01*
X147948069Y-50630898D01*
X147957555Y-50636376D01*
X148062965Y-50685529D01*
X148116250Y-50732446D01*
X148135711Y-50800723D01*
X148115169Y-50868683D01*
X148062965Y-50913919D01*
X147957311Y-50963186D01*
X147957306Y-50963189D01*
X147952324Y-50965512D01*
X147947817Y-50968668D01*
X147947815Y-50968669D01*
X147774730Y-51089864D01*
X147774727Y-51089866D01*
X147770219Y-51093023D01*
X147613023Y-51250219D01*
X147609866Y-51254727D01*
X147609864Y-51254730D01*
X147488669Y-51427815D01*
X147485512Y-51432324D01*
X147483189Y-51437306D01*
X147483186Y-51437311D01*
X147481657Y-51440590D01*
X147391560Y-51633804D01*
X147390138Y-51639112D01*
X147390137Y-51639114D01*
X147388367Y-51645720D01*
X147334022Y-51848537D01*
X147314647Y-52070000D01*
X147334022Y-52291463D01*
X147335446Y-52296776D01*
X147386588Y-52487639D01*
X147391560Y-52506196D01*
X147393882Y-52511177D01*
X147393883Y-52511178D01*
X147483186Y-52702689D01*
X147483189Y-52702694D01*
X147485512Y-52707676D01*
X147488668Y-52712183D01*
X147488669Y-52712185D01*
X147606657Y-52880689D01*
X147613023Y-52889781D01*
X147770219Y-53046977D01*
X147774727Y-53050134D01*
X147774730Y-53050136D01*
X147780160Y-53053938D01*
X147952323Y-53174488D01*
X147957305Y-53176811D01*
X147957310Y-53176814D01*
X148062373Y-53225805D01*
X148115658Y-53272722D01*
X148135119Y-53340999D01*
X148114577Y-53408959D01*
X148062373Y-53454195D01*
X147957311Y-53503186D01*
X147957306Y-53503189D01*
X147952324Y-53505512D01*
X147947817Y-53508668D01*
X147947815Y-53508669D01*
X147774730Y-53629864D01*
X147774727Y-53629866D01*
X147770219Y-53633023D01*
X147613023Y-53790219D01*
X147609866Y-53794727D01*
X147609864Y-53794730D01*
X147488669Y-53967815D01*
X147485512Y-53972324D01*
X147483189Y-53977306D01*
X147483186Y-53977311D01*
X147481657Y-53980590D01*
X147391560Y-54173804D01*
X147390138Y-54179112D01*
X147390137Y-54179114D01*
X147388367Y-54185720D01*
X147334022Y-54388537D01*
X147314647Y-54610000D01*
X147334022Y-54831463D01*
X147335446Y-54836776D01*
X147386588Y-55027639D01*
X147391560Y-55046196D01*
X147393882Y-55051177D01*
X147393883Y-55051178D01*
X147483186Y-55242689D01*
X147483189Y-55242694D01*
X147485512Y-55247676D01*
X147488668Y-55252183D01*
X147488669Y-55252185D01*
X147606657Y-55420689D01*
X147613023Y-55429781D01*
X147770219Y-55586977D01*
X147774727Y-55590134D01*
X147774730Y-55590136D01*
X147780160Y-55593938D01*
X147952323Y-55714488D01*
X147957305Y-55716811D01*
X147957310Y-55716814D01*
X148062373Y-55765805D01*
X148115658Y-55812722D01*
X148135119Y-55880999D01*
X148114577Y-55948959D01*
X148062373Y-55994195D01*
X147957311Y-56043186D01*
X147957306Y-56043189D01*
X147952324Y-56045512D01*
X147947817Y-56048668D01*
X147947815Y-56048669D01*
X147774730Y-56169864D01*
X147774727Y-56169866D01*
X147770219Y-56173023D01*
X147613023Y-56330219D01*
X147485512Y-56512324D01*
X147483189Y-56517306D01*
X147483186Y-56517311D01*
X147393883Y-56708822D01*
X147391560Y-56713804D01*
X147334022Y-56928537D01*
X147314647Y-57150000D01*
X147334022Y-57371463D01*
X147391560Y-57586196D01*
X147393882Y-57591177D01*
X147393883Y-57591178D01*
X147483186Y-57782689D01*
X147483189Y-57782694D01*
X147485512Y-57787676D01*
X147613023Y-57969781D01*
X147770219Y-58126977D01*
X147774727Y-58130134D01*
X147774730Y-58130136D01*
X147850495Y-58183187D01*
X147952323Y-58254488D01*
X147957305Y-58256811D01*
X147957310Y-58256814D01*
X148062373Y-58305805D01*
X148115658Y-58352722D01*
X148135119Y-58420999D01*
X148114577Y-58488959D01*
X148062373Y-58534195D01*
X147957311Y-58583186D01*
X147957306Y-58583189D01*
X147952324Y-58585512D01*
X147947817Y-58588668D01*
X147947815Y-58588669D01*
X147774730Y-58709864D01*
X147774727Y-58709866D01*
X147770219Y-58713023D01*
X147613023Y-58870219D01*
X147485512Y-59052324D01*
X147483189Y-59057306D01*
X147483186Y-59057311D01*
X147393883Y-59248822D01*
X147391560Y-59253804D01*
X147334022Y-59468537D01*
X147314647Y-59690000D01*
X147334022Y-59911463D01*
X147391560Y-60126196D01*
X147393882Y-60131177D01*
X147393883Y-60131178D01*
X147483186Y-60322689D01*
X147483189Y-60322694D01*
X147485512Y-60327676D01*
X147613023Y-60509781D01*
X147770219Y-60666977D01*
X147774727Y-60670134D01*
X147774730Y-60670136D01*
X147850495Y-60723187D01*
X147952323Y-60794488D01*
X147957305Y-60796811D01*
X147957310Y-60796814D01*
X148062373Y-60845805D01*
X148115658Y-60892722D01*
X148135119Y-60960999D01*
X148114577Y-61028959D01*
X148062373Y-61074195D01*
X147957311Y-61123186D01*
X147957306Y-61123189D01*
X147952324Y-61125512D01*
X147947817Y-61128668D01*
X147947815Y-61128669D01*
X147774730Y-61249864D01*
X147774727Y-61249866D01*
X147770219Y-61253023D01*
X147613023Y-61410219D01*
X147609866Y-61414727D01*
X147609864Y-61414730D01*
X147488669Y-61587815D01*
X147485512Y-61592324D01*
X147483189Y-61597306D01*
X147483186Y-61597311D01*
X147411546Y-61750944D01*
X147391560Y-61793804D01*
X147334022Y-62008537D01*
X147314647Y-62230000D01*
X137165353Y-62230000D01*
X137145978Y-62008537D01*
X137088440Y-61793804D01*
X137068454Y-61750944D01*
X136996814Y-61597311D01*
X136996811Y-61597306D01*
X136994488Y-61592324D01*
X136991331Y-61587815D01*
X136870136Y-61414730D01*
X136870134Y-61414727D01*
X136866977Y-61410219D01*
X136709781Y-61253023D01*
X136705273Y-61249866D01*
X136705270Y-61249864D01*
X136629505Y-61196813D01*
X136527677Y-61125512D01*
X136522695Y-61123189D01*
X136522690Y-61123186D01*
X136417627Y-61074195D01*
X136364342Y-61027278D01*
X136344881Y-60959001D01*
X136365423Y-60891041D01*
X136417627Y-60845805D01*
X136522690Y-60796814D01*
X136522695Y-60796811D01*
X136527677Y-60794488D01*
X136629505Y-60723187D01*
X136705270Y-60670136D01*
X136705273Y-60670134D01*
X136709781Y-60666977D01*
X136866977Y-60509781D01*
X136994488Y-60327676D01*
X136996811Y-60322694D01*
X136996814Y-60322689D01*
X137086117Y-60131178D01*
X137086118Y-60131177D01*
X137088440Y-60126196D01*
X137145978Y-59911463D01*
X137165353Y-59690000D01*
X137145978Y-59468537D01*
X137088440Y-59253804D01*
X137086117Y-59248822D01*
X136996814Y-59057311D01*
X136996811Y-59057306D01*
X136994488Y-59052324D01*
X136866977Y-58870219D01*
X136709781Y-58713023D01*
X136705273Y-58709866D01*
X136705270Y-58709864D01*
X136629505Y-58656813D01*
X136527677Y-58585512D01*
X136522695Y-58583189D01*
X136522690Y-58583186D01*
X136417627Y-58534195D01*
X136364342Y-58487278D01*
X136344881Y-58419001D01*
X136365423Y-58351041D01*
X136417627Y-58305805D01*
X136522690Y-58256814D01*
X136522695Y-58256811D01*
X136527677Y-58254488D01*
X136629505Y-58183187D01*
X136705270Y-58130136D01*
X136705273Y-58130134D01*
X136709781Y-58126977D01*
X136866977Y-57969781D01*
X136994488Y-57787676D01*
X136996811Y-57782694D01*
X136996814Y-57782689D01*
X137086117Y-57591178D01*
X137086118Y-57591177D01*
X137088440Y-57586196D01*
X137145978Y-57371463D01*
X137165353Y-57150000D01*
X137145978Y-56928537D01*
X137088440Y-56713804D01*
X137086117Y-56708822D01*
X136996814Y-56517311D01*
X136996811Y-56517306D01*
X136994488Y-56512324D01*
X136866977Y-56330219D01*
X136709781Y-56173023D01*
X136705273Y-56169866D01*
X136705270Y-56169864D01*
X136629505Y-56116813D01*
X136527677Y-56045512D01*
X136522695Y-56043189D01*
X136522690Y-56043186D01*
X136417627Y-55994195D01*
X136364342Y-55947278D01*
X136344881Y-55879001D01*
X136365423Y-55811041D01*
X136417627Y-55765805D01*
X136522690Y-55716814D01*
X136522695Y-55716811D01*
X136527677Y-55714488D01*
X136699840Y-55593938D01*
X136705270Y-55590136D01*
X136705273Y-55590134D01*
X136709781Y-55586977D01*
X136866977Y-55429781D01*
X136873344Y-55420689D01*
X136991331Y-55252185D01*
X136991332Y-55252183D01*
X136994488Y-55247676D01*
X136996811Y-55242694D01*
X136996814Y-55242689D01*
X137086117Y-55051178D01*
X137086118Y-55051177D01*
X137088440Y-55046196D01*
X137093413Y-55027639D01*
X137144554Y-54836776D01*
X137145978Y-54831463D01*
X137165353Y-54610000D01*
X137145978Y-54388537D01*
X137091633Y-54185720D01*
X137089863Y-54179114D01*
X137089862Y-54179112D01*
X137088440Y-54173804D01*
X136998343Y-53980590D01*
X136996814Y-53977311D01*
X136996811Y-53977306D01*
X136994488Y-53972324D01*
X136991331Y-53967815D01*
X136870136Y-53794730D01*
X136870134Y-53794727D01*
X136866977Y-53790219D01*
X136709781Y-53633023D01*
X136705273Y-53629866D01*
X136705270Y-53629864D01*
X136629505Y-53576813D01*
X136527677Y-53505512D01*
X136522695Y-53503189D01*
X136522690Y-53503186D01*
X136417627Y-53454195D01*
X136364342Y-53407278D01*
X136344881Y-53339001D01*
X136365423Y-53271041D01*
X136417627Y-53225805D01*
X136522690Y-53176814D01*
X136522695Y-53176811D01*
X136527677Y-53174488D01*
X136699840Y-53053938D01*
X136705270Y-53050136D01*
X136705273Y-53050134D01*
X136709781Y-53046977D01*
X136866977Y-52889781D01*
X136873344Y-52880689D01*
X136991331Y-52712185D01*
X136991332Y-52712183D01*
X136994488Y-52707676D01*
X136996811Y-52702694D01*
X136996814Y-52702689D01*
X137086117Y-52511178D01*
X137086118Y-52511177D01*
X137088440Y-52506196D01*
X137093413Y-52487639D01*
X137144554Y-52296776D01*
X137145978Y-52291463D01*
X137165353Y-52070000D01*
X137145978Y-51848537D01*
X137091633Y-51645720D01*
X137089863Y-51639114D01*
X137089862Y-51639112D01*
X137088440Y-51633804D01*
X136998343Y-51440590D01*
X136996814Y-51437311D01*
X136996811Y-51437306D01*
X136994488Y-51432324D01*
X136991331Y-51427815D01*
X136870136Y-51254730D01*
X136870134Y-51254727D01*
X136866977Y-51250219D01*
X136709781Y-51093023D01*
X136705273Y-51089866D01*
X136705270Y-51089864D01*
X136629505Y-51036813D01*
X136527677Y-50965512D01*
X136522695Y-50963189D01*
X136522690Y-50963186D01*
X136417627Y-50914195D01*
X136364342Y-50867278D01*
X136344881Y-50799001D01*
X136365423Y-50731041D01*
X136417627Y-50685805D01*
X136522690Y-50636814D01*
X136522695Y-50636811D01*
X136527677Y-50634488D01*
X136699840Y-50513938D01*
X136705270Y-50510136D01*
X136705273Y-50510134D01*
X136709781Y-50506977D01*
X136866977Y-50349781D01*
X136873344Y-50340689D01*
X136991331Y-50172185D01*
X136991332Y-50172183D01*
X136994488Y-50167676D01*
X136996811Y-50162694D01*
X136996814Y-50162689D01*
X137086117Y-49971178D01*
X137086118Y-49971177D01*
X137088440Y-49966196D01*
X137093413Y-49947639D01*
X137144554Y-49756776D01*
X137145978Y-49751463D01*
X137164874Y-49535475D01*
X147315628Y-49535475D01*
X147334038Y-49745896D01*
X147335941Y-49756691D01*
X147390609Y-49960715D01*
X147394355Y-49971007D01*
X147483623Y-50162441D01*
X147489103Y-50171932D01*
X147519794Y-50215765D01*
X147530271Y-50224140D01*
X147543718Y-50217072D01*
X148217978Y-49542812D01*
X148224356Y-49531132D01*
X148954408Y-49531132D01*
X148954539Y-49532965D01*
X148958790Y-49539580D01*
X149637003Y-50217793D01*
X149648777Y-50224223D01*
X149660793Y-50214926D01*
X149690897Y-50171932D01*
X149696377Y-50162441D01*
X149785645Y-49971007D01*
X149789391Y-49960715D01*
X149844059Y-49756691D01*
X149845962Y-49745896D01*
X149864372Y-49535475D01*
X149864372Y-49524525D01*
X149845962Y-49314104D01*
X149844059Y-49303309D01*
X149789391Y-49099285D01*
X149785645Y-49088993D01*
X149696377Y-48897559D01*
X149690897Y-48888068D01*
X149660206Y-48844235D01*
X149649729Y-48835860D01*
X149636282Y-48842928D01*
X148962022Y-49517188D01*
X148954408Y-49531132D01*
X148224356Y-49531132D01*
X148225592Y-49528868D01*
X148225461Y-49527035D01*
X148221210Y-49520420D01*
X147542997Y-48842207D01*
X147531223Y-48835777D01*
X147519207Y-48845074D01*
X147489103Y-48888068D01*
X147483623Y-48897559D01*
X147394355Y-49088993D01*
X147390609Y-49099285D01*
X147335941Y-49303309D01*
X147334038Y-49314104D01*
X147315628Y-49524525D01*
X147315628Y-49535475D01*
X137164874Y-49535475D01*
X137165353Y-49530000D01*
X137145978Y-49308537D01*
X137091633Y-49105720D01*
X137089863Y-49099114D01*
X137089862Y-49099112D01*
X137088440Y-49093804D01*
X136998343Y-48900590D01*
X136996814Y-48897311D01*
X136996811Y-48897306D01*
X136994488Y-48892324D01*
X136991331Y-48887815D01*
X136870136Y-48714730D01*
X136870134Y-48714727D01*
X136866977Y-48710219D01*
X136709781Y-48553023D01*
X136705273Y-48549866D01*
X136705270Y-48549864D01*
X136629505Y-48496813D01*
X136527677Y-48425512D01*
X136522695Y-48423189D01*
X136522690Y-48423186D01*
X136417627Y-48374195D01*
X136364342Y-48327278D01*
X136344881Y-48259001D01*
X136365423Y-48191041D01*
X136417627Y-48145805D01*
X136522690Y-48096814D01*
X136522695Y-48096811D01*
X136527677Y-48094488D01*
X136676477Y-47990297D01*
X136705270Y-47970136D01*
X136705273Y-47970134D01*
X136709781Y-47966977D01*
X136866977Y-47809781D01*
X136871354Y-47803531D01*
X136873733Y-47800134D01*
X147319500Y-47800134D01*
X147326255Y-47862316D01*
X147377385Y-47998705D01*
X147464739Y-48115261D01*
X147581295Y-48202615D01*
X147717684Y-48253745D01*
X147779866Y-48260500D01*
X147801515Y-48260500D01*
X147869636Y-48280502D01*
X147916129Y-48334158D01*
X147926233Y-48404432D01*
X147899936Y-48465172D01*
X147895860Y-48470271D01*
X147902928Y-48483718D01*
X148577188Y-49157978D01*
X148591132Y-49165592D01*
X148592965Y-49165461D01*
X148599580Y-49161210D01*
X149277793Y-48482997D01*
X149284223Y-48471223D01*
X149278326Y-48463601D01*
X149252463Y-48397483D01*
X149266451Y-48327878D01*
X149315850Y-48276885D01*
X149377983Y-48260500D01*
X149400134Y-48260500D01*
X149462316Y-48253745D01*
X149598705Y-48202615D01*
X149715261Y-48115261D01*
X149802615Y-47998705D01*
X149853745Y-47862316D01*
X149860500Y-47800134D01*
X149860500Y-46179866D01*
X149853745Y-46117684D01*
X149805116Y-45987966D01*
X156148257Y-45987966D01*
X156178565Y-46122446D01*
X156181645Y-46132275D01*
X156261770Y-46329603D01*
X156266413Y-46338794D01*
X156377694Y-46520388D01*
X156383777Y-46528699D01*
X156523213Y-46689667D01*
X156530580Y-46696883D01*
X156694434Y-46832916D01*
X156702881Y-46838831D01*
X156886756Y-46946279D01*
X156896042Y-46950729D01*
X157095001Y-47026703D01*
X157104899Y-47029579D01*
X157208250Y-47050606D01*
X157222299Y-47049410D01*
X157226000Y-47039065D01*
X157226000Y-47038517D01*
X157734000Y-47038517D01*
X157738064Y-47052359D01*
X157751478Y-47054393D01*
X157758184Y-47053534D01*
X157768262Y-47051392D01*
X157972255Y-46990191D01*
X157981842Y-46986433D01*
X158173095Y-46892739D01*
X158181945Y-46887464D01*
X158355328Y-46763792D01*
X158363200Y-46757139D01*
X158514052Y-46606812D01*
X158520730Y-46598965D01*
X158645003Y-46426020D01*
X158650313Y-46417183D01*
X158744670Y-46226267D01*
X158748469Y-46216672D01*
X158810377Y-46012910D01*
X158812555Y-46002837D01*
X158813986Y-45991962D01*
X158811775Y-45977778D01*
X158798617Y-45974000D01*
X157752115Y-45974000D01*
X157736876Y-45978475D01*
X157735671Y-45979865D01*
X157734000Y-45987548D01*
X157734000Y-47038517D01*
X157226000Y-47038517D01*
X157226000Y-45992115D01*
X157221525Y-45976876D01*
X157220135Y-45975671D01*
X157212452Y-45974000D01*
X156163225Y-45974000D01*
X156149694Y-45977973D01*
X156148257Y-45987966D01*
X149805116Y-45987966D01*
X149802615Y-45981295D01*
X149715261Y-45864739D01*
X149598705Y-45777385D01*
X149462316Y-45726255D01*
X149400134Y-45719500D01*
X147779866Y-45719500D01*
X147717684Y-45726255D01*
X147581295Y-45777385D01*
X147464739Y-45864739D01*
X147377385Y-45981295D01*
X147326255Y-46117684D01*
X147319500Y-46179866D01*
X147319500Y-47800134D01*
X136873733Y-47800134D01*
X136991331Y-47632185D01*
X136991332Y-47632183D01*
X136994488Y-47627676D01*
X136996811Y-47622694D01*
X136996814Y-47622689D01*
X137086117Y-47431178D01*
X137086118Y-47431177D01*
X137088440Y-47426196D01*
X137145978Y-47211463D01*
X137165353Y-46990000D01*
X137145978Y-46768537D01*
X137088440Y-46553804D01*
X137072858Y-46520388D01*
X136996814Y-46357311D01*
X136996811Y-46357306D01*
X136994488Y-46352324D01*
X136899504Y-46216672D01*
X136870136Y-46174730D01*
X136870134Y-46174727D01*
X136866977Y-46170219D01*
X136709781Y-46013023D01*
X136705273Y-46009866D01*
X136705270Y-46009864D01*
X136629505Y-45956813D01*
X136527677Y-45885512D01*
X136522695Y-45883189D01*
X136522690Y-45883186D01*
X136331178Y-45793883D01*
X136331177Y-45793882D01*
X136326196Y-45791560D01*
X136320888Y-45790138D01*
X136320886Y-45790137D01*
X136255051Y-45772497D01*
X136111463Y-45734022D01*
X135890000Y-45714647D01*
X135668537Y-45734022D01*
X135524949Y-45772497D01*
X135459114Y-45790137D01*
X135459112Y-45790138D01*
X135453804Y-45791560D01*
X135448823Y-45793882D01*
X135448822Y-45793883D01*
X135257311Y-45883186D01*
X135257306Y-45883189D01*
X135252324Y-45885512D01*
X135247817Y-45888668D01*
X135247815Y-45888669D01*
X135074730Y-46009864D01*
X135074727Y-46009866D01*
X135070219Y-46013023D01*
X134913023Y-46170219D01*
X134909866Y-46174727D01*
X134909864Y-46174730D01*
X134880496Y-46216672D01*
X134785512Y-46352324D01*
X134783189Y-46357306D01*
X134783186Y-46357311D01*
X134707142Y-46520388D01*
X134691560Y-46553804D01*
X134634022Y-46768537D01*
X134614647Y-46990000D01*
X134634022Y-47211463D01*
X134691560Y-47426196D01*
X134693882Y-47431177D01*
X134693883Y-47431178D01*
X134783186Y-47622689D01*
X134783189Y-47622694D01*
X134785512Y-47627676D01*
X134788668Y-47632183D01*
X134788669Y-47632185D01*
X134908647Y-47803531D01*
X134913023Y-47809781D01*
X135070219Y-47966977D01*
X135074727Y-47970134D01*
X135074730Y-47970136D01*
X135103523Y-47990297D01*
X135252323Y-48094488D01*
X135257305Y-48096811D01*
X135257310Y-48096814D01*
X135362373Y-48145805D01*
X135415658Y-48192722D01*
X135435119Y-48260999D01*
X135414577Y-48328959D01*
X135362373Y-48374195D01*
X135257311Y-48423186D01*
X135257306Y-48423189D01*
X135252324Y-48425512D01*
X135247817Y-48428668D01*
X135247815Y-48428669D01*
X135074730Y-48549864D01*
X135074727Y-48549866D01*
X135070219Y-48553023D01*
X134913023Y-48710219D01*
X134909866Y-48714727D01*
X134909864Y-48714730D01*
X134788669Y-48887815D01*
X134785512Y-48892324D01*
X134783189Y-48897306D01*
X134783186Y-48897311D01*
X134781657Y-48900590D01*
X134691560Y-49093804D01*
X134690138Y-49099112D01*
X134690137Y-49099114D01*
X134688367Y-49105720D01*
X134634022Y-49308537D01*
X134614647Y-49530000D01*
X134634022Y-49751463D01*
X134635446Y-49756776D01*
X134686588Y-49947639D01*
X134691560Y-49966196D01*
X134693882Y-49971177D01*
X134693883Y-49971178D01*
X134783186Y-50162689D01*
X134783189Y-50162694D01*
X134785512Y-50167676D01*
X134788668Y-50172183D01*
X134788669Y-50172185D01*
X134906657Y-50340689D01*
X134913023Y-50349781D01*
X135070219Y-50506977D01*
X135074727Y-50510134D01*
X135074730Y-50510136D01*
X135080160Y-50513938D01*
X135252323Y-50634488D01*
X135257305Y-50636811D01*
X135257310Y-50636814D01*
X135362373Y-50685805D01*
X135415658Y-50732722D01*
X135435119Y-50800999D01*
X135414577Y-50868959D01*
X135362373Y-50914195D01*
X135257311Y-50963186D01*
X135257306Y-50963189D01*
X135252324Y-50965512D01*
X135247817Y-50968668D01*
X135247815Y-50968669D01*
X135074730Y-51089864D01*
X135074727Y-51089866D01*
X135070219Y-51093023D01*
X134913023Y-51250219D01*
X134909866Y-51254727D01*
X134909864Y-51254730D01*
X134788669Y-51427815D01*
X134785512Y-51432324D01*
X134783189Y-51437306D01*
X134783186Y-51437311D01*
X134781657Y-51440590D01*
X134691560Y-51633804D01*
X134690138Y-51639112D01*
X134690137Y-51639114D01*
X134688367Y-51645720D01*
X134634022Y-51848537D01*
X134614647Y-52070000D01*
X134634022Y-52291463D01*
X134635446Y-52296776D01*
X134686588Y-52487639D01*
X134691560Y-52506196D01*
X134693882Y-52511177D01*
X134693883Y-52511178D01*
X134783186Y-52702689D01*
X134783189Y-52702694D01*
X134785512Y-52707676D01*
X134788668Y-52712183D01*
X134788669Y-52712185D01*
X134906657Y-52880689D01*
X134913023Y-52889781D01*
X135070219Y-53046977D01*
X135074727Y-53050134D01*
X135074730Y-53050136D01*
X135080160Y-53053938D01*
X135252323Y-53174488D01*
X135257305Y-53176811D01*
X135257310Y-53176814D01*
X135362373Y-53225805D01*
X135415658Y-53272722D01*
X135435119Y-53340999D01*
X135414577Y-53408959D01*
X135362373Y-53454195D01*
X135257311Y-53503186D01*
X135257306Y-53503189D01*
X135252324Y-53505512D01*
X135247817Y-53508668D01*
X135247815Y-53508669D01*
X135074730Y-53629864D01*
X135074727Y-53629866D01*
X135070219Y-53633023D01*
X134913023Y-53790219D01*
X134909866Y-53794727D01*
X134909864Y-53794730D01*
X134788669Y-53967815D01*
X134785512Y-53972324D01*
X134783189Y-53977306D01*
X134783186Y-53977311D01*
X134781657Y-53980590D01*
X134691560Y-54173804D01*
X134690138Y-54179112D01*
X134690137Y-54179114D01*
X134688367Y-54185720D01*
X134634022Y-54388537D01*
X134614647Y-54610000D01*
X134634022Y-54831463D01*
X134635446Y-54836776D01*
X134686588Y-55027639D01*
X134691560Y-55046196D01*
X134693882Y-55051177D01*
X134693883Y-55051178D01*
X134783186Y-55242689D01*
X134783189Y-55242694D01*
X134785512Y-55247676D01*
X134788668Y-55252183D01*
X134788669Y-55252185D01*
X134906657Y-55420689D01*
X134913023Y-55429781D01*
X135070219Y-55586977D01*
X135074727Y-55590134D01*
X135074730Y-55590136D01*
X135080160Y-55593938D01*
X135252323Y-55714488D01*
X135257305Y-55716811D01*
X135257310Y-55716814D01*
X135362373Y-55765805D01*
X135415658Y-55812722D01*
X135435119Y-55880999D01*
X135414577Y-55948959D01*
X135362373Y-55994195D01*
X135257311Y-56043186D01*
X135257306Y-56043189D01*
X135252324Y-56045512D01*
X135247817Y-56048668D01*
X135247815Y-56048669D01*
X135074730Y-56169864D01*
X135074727Y-56169866D01*
X135070219Y-56173023D01*
X134913023Y-56330219D01*
X134785512Y-56512324D01*
X134783189Y-56517306D01*
X134783186Y-56517311D01*
X134693883Y-56708822D01*
X134691560Y-56713804D01*
X134634022Y-56928537D01*
X134614647Y-57150000D01*
X134634022Y-57371463D01*
X134691560Y-57586196D01*
X134693882Y-57591177D01*
X134693883Y-57591178D01*
X134783186Y-57782689D01*
X134783189Y-57782694D01*
X134785512Y-57787676D01*
X134913023Y-57969781D01*
X135070219Y-58126977D01*
X135074727Y-58130134D01*
X135074730Y-58130136D01*
X135150495Y-58183187D01*
X135252323Y-58254488D01*
X135257305Y-58256811D01*
X135257310Y-58256814D01*
X135362373Y-58305805D01*
X135415658Y-58352722D01*
X135435119Y-58420999D01*
X135414577Y-58488959D01*
X135362373Y-58534195D01*
X135257311Y-58583186D01*
X135257306Y-58583189D01*
X135252324Y-58585512D01*
X135247817Y-58588668D01*
X135247815Y-58588669D01*
X135074730Y-58709864D01*
X135074727Y-58709866D01*
X135070219Y-58713023D01*
X134913023Y-58870219D01*
X134785512Y-59052324D01*
X134783189Y-59057306D01*
X134783186Y-59057311D01*
X134693883Y-59248822D01*
X134691560Y-59253804D01*
X134634022Y-59468537D01*
X134614647Y-59690000D01*
X134634022Y-59911463D01*
X134691560Y-60126196D01*
X134693882Y-60131177D01*
X134693883Y-60131178D01*
X134783186Y-60322689D01*
X134783189Y-60322694D01*
X134785512Y-60327676D01*
X134913023Y-60509781D01*
X135070219Y-60666977D01*
X135074727Y-60670134D01*
X135074730Y-60670136D01*
X135150495Y-60723187D01*
X135252323Y-60794488D01*
X135257305Y-60796811D01*
X135257310Y-60796814D01*
X135362373Y-60845805D01*
X135415658Y-60892722D01*
X135435119Y-60960999D01*
X135414577Y-61028959D01*
X135362373Y-61074195D01*
X135257311Y-61123186D01*
X135257306Y-61123189D01*
X135252324Y-61125512D01*
X135247817Y-61128668D01*
X135247815Y-61128669D01*
X135074730Y-61249864D01*
X135074727Y-61249866D01*
X135070219Y-61253023D01*
X134913023Y-61410219D01*
X134909866Y-61414727D01*
X134909864Y-61414730D01*
X134788669Y-61587815D01*
X134785512Y-61592324D01*
X134783189Y-61597306D01*
X134783186Y-61597311D01*
X134711546Y-61750944D01*
X134691560Y-61793804D01*
X134634022Y-62008537D01*
X134614647Y-62230000D01*
X125730000Y-62230000D01*
X125730000Y-44078134D01*
X156121500Y-44078134D01*
X156128255Y-44140316D01*
X156179385Y-44276705D01*
X156266739Y-44393261D01*
X156383295Y-44480615D01*
X156391704Y-44483767D01*
X156391705Y-44483768D01*
X156500960Y-44524726D01*
X156557725Y-44567367D01*
X156582425Y-44633929D01*
X156567218Y-44703278D01*
X156547825Y-44729759D01*
X156424590Y-44858717D01*
X156418104Y-44866727D01*
X156298098Y-45042649D01*
X156293000Y-45051623D01*
X156203338Y-45244783D01*
X156199775Y-45254470D01*
X156144389Y-45454183D01*
X156145912Y-45462607D01*
X156158292Y-45466000D01*
X158798344Y-45466000D01*
X158811875Y-45462027D01*
X158813180Y-45452947D01*
X158771214Y-45285875D01*
X158767894Y-45276124D01*
X158682972Y-45080814D01*
X158678105Y-45071739D01*
X158562426Y-44892926D01*
X158556136Y-44884757D01*
X158412293Y-44726677D01*
X158381241Y-44662831D01*
X158389635Y-44592333D01*
X158434812Y-44537564D01*
X158461256Y-44523895D01*
X158568297Y-44483767D01*
X158576705Y-44480615D01*
X158693261Y-44393261D01*
X158780615Y-44276705D01*
X158831745Y-44140316D01*
X158838500Y-44078134D01*
X158838500Y-42281866D01*
X158831745Y-42219684D01*
X158780615Y-42083295D01*
X158693261Y-41966739D01*
X158576705Y-41879385D01*
X158440316Y-41828255D01*
X158378134Y-41821500D01*
X156581866Y-41821500D01*
X156519684Y-41828255D01*
X156383295Y-41879385D01*
X156266739Y-41966739D01*
X156179385Y-42083295D01*
X156128255Y-42219684D01*
X156121500Y-42281866D01*
X156121500Y-44078134D01*
X125730000Y-44078134D01*
X125730000Y-40772703D01*
X127430743Y-40772703D01*
X127431302Y-40776947D01*
X127431302Y-40776951D01*
X127436376Y-40815488D01*
X127468268Y-41057734D01*
X127544129Y-41335036D01*
X127656923Y-41599476D01*
X127674092Y-41628163D01*
X127795505Y-41831029D01*
X127804561Y-41846161D01*
X127984313Y-42070528D01*
X128192851Y-42268423D01*
X128426317Y-42436186D01*
X128430112Y-42438195D01*
X128430113Y-42438196D01*
X128451869Y-42449715D01*
X128680392Y-42570712D01*
X128950373Y-42669511D01*
X129231264Y-42730755D01*
X129259841Y-42733004D01*
X129454282Y-42748307D01*
X129454291Y-42748307D01*
X129456739Y-42748500D01*
X129612271Y-42748500D01*
X129614407Y-42748354D01*
X129614418Y-42748354D01*
X129822548Y-42734165D01*
X129822554Y-42734164D01*
X129826825Y-42733873D01*
X129831020Y-42733004D01*
X129831022Y-42733004D01*
X129967584Y-42704723D01*
X130108342Y-42675574D01*
X130379343Y-42579607D01*
X130608780Y-42461186D01*
X130631005Y-42449715D01*
X130631006Y-42449715D01*
X130634812Y-42447750D01*
X130638313Y-42445289D01*
X130638317Y-42445287D01*
X130830947Y-42309904D01*
X130870023Y-42282441D01*
X130948403Y-42209606D01*
X131077479Y-42089661D01*
X131077481Y-42089658D01*
X131080622Y-42086740D01*
X131262713Y-41864268D01*
X131412927Y-41619142D01*
X131524934Y-41363984D01*
X131526757Y-41359830D01*
X131528483Y-41355898D01*
X131607244Y-41079406D01*
X131644193Y-40819784D01*
X131647146Y-40799036D01*
X131647146Y-40799034D01*
X131647335Y-40797703D01*
X170610743Y-40797703D01*
X170648268Y-41082734D01*
X170724129Y-41360036D01*
X170725813Y-41363984D01*
X170826260Y-41599476D01*
X170836923Y-41624476D01*
X170848693Y-41644142D01*
X170980436Y-41864268D01*
X170984561Y-41871161D01*
X171164313Y-42095528D01*
X171181397Y-42111740D01*
X171357093Y-42278469D01*
X171372851Y-42293423D01*
X171606317Y-42461186D01*
X171610112Y-42463195D01*
X171610113Y-42463196D01*
X171631869Y-42474715D01*
X171860392Y-42595712D01*
X171884699Y-42604607D01*
X172074718Y-42674144D01*
X172130373Y-42694511D01*
X172411264Y-42755755D01*
X172439841Y-42758004D01*
X172634282Y-42773307D01*
X172634291Y-42773307D01*
X172636739Y-42773500D01*
X172792271Y-42773500D01*
X172794407Y-42773354D01*
X172794418Y-42773354D01*
X173002548Y-42759165D01*
X173002554Y-42759164D01*
X173006825Y-42758873D01*
X173011020Y-42758004D01*
X173011022Y-42758004D01*
X173147583Y-42729724D01*
X173288342Y-42700574D01*
X173559343Y-42604607D01*
X173814812Y-42472750D01*
X173818313Y-42470289D01*
X173818317Y-42470287D01*
X173932418Y-42390095D01*
X174050023Y-42307441D01*
X174260622Y-42111740D01*
X174442713Y-41889268D01*
X174592927Y-41644142D01*
X174708483Y-41380898D01*
X174715605Y-41355898D01*
X174786068Y-41108534D01*
X174787244Y-41104406D01*
X174827751Y-40819784D01*
X174827845Y-40801951D01*
X174829235Y-40536583D01*
X174829235Y-40536576D01*
X174829257Y-40532297D01*
X174825407Y-40503049D01*
X174792292Y-40251522D01*
X174791732Y-40247266D01*
X174715871Y-39969964D01*
X174603077Y-39705524D01*
X174455439Y-39458839D01*
X174275687Y-39234472D01*
X174067149Y-39036577D01*
X173833683Y-38868814D01*
X173811843Y-38857250D01*
X173782670Y-38841804D01*
X173579608Y-38734288D01*
X173309627Y-38635489D01*
X173028736Y-38574245D01*
X172997685Y-38571801D01*
X172805718Y-38556693D01*
X172805709Y-38556693D01*
X172803261Y-38556500D01*
X172647729Y-38556500D01*
X172645593Y-38556646D01*
X172645582Y-38556646D01*
X172437452Y-38570835D01*
X172437446Y-38570836D01*
X172433175Y-38571127D01*
X172428980Y-38571996D01*
X172428978Y-38571996D01*
X172292416Y-38600277D01*
X172151658Y-38629426D01*
X171880657Y-38725393D01*
X171876848Y-38727359D01*
X171646363Y-38846321D01*
X171625188Y-38857250D01*
X171621687Y-38859711D01*
X171621683Y-38859713D01*
X171611594Y-38866804D01*
X171389977Y-39022559D01*
X171374892Y-39036577D01*
X171185239Y-39212814D01*
X171179378Y-39218260D01*
X170997287Y-39440732D01*
X170847073Y-39685858D01*
X170845347Y-39689791D01*
X170845346Y-39689792D01*
X170733333Y-39944964D01*
X170731517Y-39949102D01*
X170652756Y-40225594D01*
X170649672Y-40247266D01*
X170615196Y-40489512D01*
X170612249Y-40510216D01*
X170612227Y-40514505D01*
X170612226Y-40514512D01*
X170610765Y-40793417D01*
X170610743Y-40797703D01*
X131647335Y-40797703D01*
X131647751Y-40794784D01*
X131647839Y-40778152D01*
X131649235Y-40511583D01*
X131649235Y-40511576D01*
X131649257Y-40507297D01*
X131611732Y-40222266D01*
X131535871Y-39944964D01*
X131435426Y-39709476D01*
X131424763Y-39684476D01*
X131424761Y-39684472D01*
X131423077Y-39680524D01*
X131290401Y-39458839D01*
X131277643Y-39437521D01*
X131277640Y-39437517D01*
X131275439Y-39433839D01*
X131095687Y-39209472D01*
X130887149Y-39011577D01*
X130653683Y-38843814D01*
X130631843Y-38832250D01*
X130608654Y-38819972D01*
X130399608Y-38709288D01*
X130264617Y-38659888D01*
X130133658Y-38611964D01*
X130133656Y-38611963D01*
X130129627Y-38610489D01*
X129848736Y-38549245D01*
X129817685Y-38546801D01*
X129625718Y-38531693D01*
X129625709Y-38531693D01*
X129623261Y-38531500D01*
X129467729Y-38531500D01*
X129465593Y-38531646D01*
X129465582Y-38531646D01*
X129257452Y-38545835D01*
X129257446Y-38545836D01*
X129253175Y-38546127D01*
X129248980Y-38546996D01*
X129248978Y-38546996D01*
X129119020Y-38573909D01*
X128971658Y-38604426D01*
X128700657Y-38700393D01*
X128445188Y-38832250D01*
X128441687Y-38834711D01*
X128441683Y-38834713D01*
X128332105Y-38911726D01*
X128209977Y-38997559D01*
X127999378Y-39193260D01*
X127817287Y-39415732D01*
X127667073Y-39660858D01*
X127551517Y-39924102D01*
X127550342Y-39928229D01*
X127550341Y-39928230D01*
X127543220Y-39953230D01*
X127472756Y-40200594D01*
X127432249Y-40485216D01*
X127432227Y-40489505D01*
X127432226Y-40489512D01*
X127431484Y-40631176D01*
X127430743Y-40772703D01*
X125730000Y-40772703D01*
X125730000Y-38226000D01*
X125750002Y-38157879D01*
X125803658Y-38111386D01*
X125856000Y-38100000D01*
X176404000Y-38100000D01*
X176472121Y-38120002D01*
G37*
%TD.AperFunction*%
%TD*%
M02*
